<svg width="75" height="75" fill="none" xmlns="http://www.w3.org/2000/svg"><circle cx="37.5" cy="37.5" r="37.5" fill="#E93C3C"/><path d="M37.968 16.875c-10.096 0-18.28 7.194-18.28 16.068l.609 12.497h11.056l-.61-11.604c0-8.218 6.15-14.88 16.231-14.88-2.658-1.324-5.731-2.081-9.006-2.081Z" fill="#fff"/><path d="M34.842 27.404h-.003c-.219.063-.401.114-.527.148 3.656-6.407 8.247-7.31 13.297-8.265 5.188 2.836 8.641 7.891 8.641 13.656l-.61 12.497H44.585l.61-11.605c0-3.944-2.738-7.141-7.225-7.141-.62 0-2.197.447-3.127.71ZM20.763 48.82h10.754l.537 6.492H21.167l-.404-6.492ZM44.494 48.82h10.753l-.403 6.492H43.956l.538-6.492Z" fill="#fff"/></svg>