<svg width="75" height="75" viewBox="0 0 75 75" fill="none" xmlns="http://www.w3.org/2000/svg">
<path d="M37.5 75C58.2107 75 75 58.2107 75 37.5C75 16.7893 58.2107 0 37.5 0C16.7893 0 0 16.7893 0 37.5C0 58.2107 16.7893 75 37.5 75Z" fill="white"/>
<path d="M47.0518 39.7503C48.0002 38.146 49.5306 38.146 50.4791 39.7503L56.3852 49.9038C57.3336 51.5081 56.5577 52.8169 54.6608 52.8169H42.7623C40.887 52.8169 40.111 51.5081 41.0378 49.9038L47.0518 39.7503ZM35.6275 20.2032C36.5759 18.5989 38.0848 18.5989 39.0332 20.2032L40.3481 22.5252L43.452 27.8659C44.2065 29.3857 44.2065 31.18 43.452 32.6999L33.0408 50.3683C32.0924 51.8037 30.5189 52.7114 28.7729 52.8169H20.1292C18.2323 52.8169 17.4564 51.5293 18.4048 49.9038L35.6275 20.2032Z" fill="#0D1C2E"/>
</svg>
