<svg width="75" height="75" viewBox="0 0 75 75" fill="none" xmlns="http://www.w3.org/2000/svg">
<circle cx="37.5" cy="37.5" r="37.5" fill="#E93C3C"/>
<path d="M36.9684 15.875C26.8721 15.875 18.6875 23.0689 18.6875 31.943L19.2969 44.4404H30.3531L29.7437 32.8357C29.7437 24.6179 35.893 17.9569 45.9744 17.9569C43.3161 16.6317 40.2428 15.875 36.9684 15.875Z" fill="white"/>
<path d="M33.8418 26.4039L33.8385 26.4048C33.6201 26.4667 33.4377 26.5184 33.3121 26.5516C36.9684 20.1453 41.5588 19.2427 46.609 18.2874C51.7965 21.1227 55.25 26.1781 55.25 31.9425L54.6406 44.4398H43.5844L44.1938 32.8352C44.1938 28.8911 41.4564 25.6938 36.9691 25.6938C36.3484 25.6938 34.7715 26.1405 33.8418 26.4039Z" fill="white"/>
<path d="M19.7634 47.8199H30.5168L31.0545 54.3124H20.1666L19.7634 47.8199Z" fill="white"/>
<path d="M43.4936 47.8201H54.247L53.8438 54.3125H42.9559L43.4936 47.8201Z" fill="white"/>
</svg>
