<svg width="326" height="72" fill="none" xmlns="http://www.w3.org/2000/svg"><path d="M325.12 10.97v11.579h-11.817v16.28c0 3.396 1.894 5.311 5.773 5.311 2.345 0 4.33-.696 6.044-1.567v11.928c-2.707 1.306-5.323 1.915-8.841 1.915-11.185 0-16.146-6.355-16.146-15.497v-18.37h-6.946v-11.58h6.946V0h13.17v10.97h11.817Z" fill="#fff"/><path fill-rule="evenodd" clip-rule="evenodd" d="M154.51 54.936h14.343c9.291 0 15.876 4.962 17.59 13.494L172.912 72c-.361-2.873-2.887-4.788-6.585-4.788h-14.343c-8.93 0-14.793-4.963-14.793-12.363 0-4.701 2.435-9.229 6.314-11.492-3.789-3.483-6.044-8.358-6.044-13.843 0-11.231 9.291-19.589 21.74-19.589 3.518 0 6.765.696 9.652 1.828 1.353-4.788 5.953-7.835 12.268-7.835h3.878V15.67h-3.247c-2.165 0-3.879 1.045-4.33 2.699 2.255 3.134 3.608 6.878 3.608 11.144 0 11.23-9.381 19.589-21.829 19.589-2.346 0-4.601-.261-6.766-.87-1.353.87-2.074 2.089-2.074 3.395 0 2.002 1.714 3.308 4.149 3.308Zm12.99-25.422c0-4.353-3.609-7.575-8.299-7.575-4.781 0-8.209 3.222-8.209 7.575s3.518 7.574 8.209 7.574c4.69 0 8.299-3.221 8.299-7.574Z" fill="#fff"/><path d="M55.657 9.925c-6.405 0-11.637 2.35-15.335 6.878-2.887-4.353-7.848-6.878-14.072-6.878-5.322 0-9.742 1.828-13.08 5.31V10.97H0V55.37h13.17V30.384c0-4.875 3.518-8.183 8.57-8.183 4.87 0 8.028 3.221 8.028 8.01v25.16h13.17V30.384c0-4.875 3.518-8.183 8.57-8.183 4.87 0 8.027 3.221 8.027 8.01v25.16h13.17V26.38c0-9.925-6.675-16.455-17.048-16.455Z" fill="#fff"/><path fill-rule="evenodd" clip-rule="evenodd" d="M115.921 10.97v4.44c-3.518-3.482-8.299-5.485-13.891-5.485-12.629 0-22.19 10.012-22.19 23.245 0 13.234 9.561 23.246 22.19 23.246 5.592 0 10.373-2.002 13.891-5.485v4.44h13.17V10.97h-13.17Zm-11.275 33.17c-6.405 0-11.186-4.701-11.186-10.97 0-6.268 4.781-10.97 11.186-10.97 6.494 0 11.275 4.702 11.275 10.97 0 6.269-4.781 10.97-11.275 10.97ZM290.193 33.345c0-13.495-10.374-23.42-24.175-23.42-13.982 0-24.536 9.925-24.536 22.984 0 13.408 11.005 23.507 25.618 23.507 8.479 0 15.876-3.308 20.747-8.62l-8.84-7.4c-2.165 2.612-6.314 4.963-11.546 4.963-5.773 0-10.193-3.047-11.817-8.01h34.278c.18-1.131.271-2.785.271-4.004Zm-24.356-12.45c4.962 0 8.931 3.047 10.374 8.01h-20.657c1.353-4.876 5.322-8.01 10.283-8.01Z" fill="#fff"/><path d="M212.91 9.18c-12.512 0-22.655 8.42-22.655 18.804l.755 14.626h13.702l-.755-13.58c0-9.618 7.62-17.413 20.114-17.413-3.294-1.55-7.103-2.436-11.161-2.436Z" fill="#fff"/><path d="m209.035 21.502-.004.001c-.27.073-.497.133-.652.172 4.531-7.497 10.22-8.553 16.478-9.671 6.429 3.318 10.709 9.234 10.709 15.98l-.755 14.625h-13.702l.755-13.58c0-4.616-3.392-8.358-8.953-8.358-.769 0-2.723.523-3.876.831ZM191.588 46.565h13.327l.666 7.597h-13.493l-.5-7.597ZM220.664 46.565h13.326l-.249 3.799-.25 3.799h-13.493l.666-7.598Z" fill="#fff"/></svg>