<svg width="150" height="52" viewBox="0 0 150 52" fill="none" xmlns="http://www.w3.org/2000/svg">
<g clip-path="url(#clip0_358_26)">
<path d="M142.277 0.191895H7.68045C3.54477 0.191895 0.192139 3.54453 0.192139 7.68021V43.8674C0.192139 48.0031 3.54477 51.3557 7.68045 51.3557H142.277C146.413 51.3557 149.765 48.0031 149.765 43.8674V7.68021C149.765 3.54453 146.413 0.191895 142.277 0.191895Z" fill="white" stroke="#E84142" stroke-width="0.384"/>
<path d="M63.4685 33.5533H66.1899L64.8512 29.3366L63.4685 33.5533ZM63.6068 26.8865H66.1393L69.9376 37.6029H67.5073L66.816 35.4H62.8644L62.1219 37.6029H59.7788L63.6068 26.8865ZM75.1774 29.6783H77.4047L74.5445 37.6029H72.3543L69.5087 29.6783H71.8372L73.4896 35.5236L75.1774 29.6783V29.6783ZM82.6586 33.7496C82.5277 33.832 82.3946 33.8999 82.2585 33.9532C82.1275 34.0017 81.9459 34.0477 81.7127 34.0913L81.2473 34.1786C80.8106 34.2561 80.4976 34.3506 80.3082 34.4621C79.9884 34.6511 79.8282 34.9444 79.8282 35.3418C79.8282 35.6956 79.9252 35.9525 80.1193 36.1125C80.3181 36.2676 80.5581 36.3451 80.8393 36.3451C81.2859 36.3451 81.696 36.2142 82.0696 35.9525C82.4478 35.6908 82.6445 35.2133 82.6586 34.5203V33.7496V33.7496ZM81.3997 32.7827C81.7832 32.7342 82.0571 32.6736 82.2225 32.6009C82.5183 32.4749 82.6659 32.2786 82.6659 32.0121C82.6659 31.6873 82.5522 31.4643 82.3242 31.3432C82.1009 31.2171 81.7712 31.1542 81.3345 31.1542C80.8445 31.1542 80.4976 31.2753 80.2936 31.5177C80.148 31.697 80.051 31.9393 80.0025 32.2447H78.0016C78.0449 31.5516 78.239 30.9821 78.5838 30.5362C79.1317 29.8382 80.0729 29.4892 81.407 29.4892C82.2757 29.4892 83.0468 29.6613 83.7214 30.0054C84.3955 30.3496 84.7331 30.999 84.7331 31.9539V35.589C84.7331 35.841 84.7378 36.1464 84.7477 36.5051C84.7618 36.7765 84.803 36.9606 84.8713 37.0576C84.9392 37.1545 85.0409 37.2345 85.1765 37.2975V37.6029H82.9211C82.8579 37.4429 82.8141 37.2927 82.7901 37.1521C82.7656 37.0115 82.7463 36.8516 82.7317 36.6723C82.4452 36.9825 82.1155 37.2466 81.7419 37.4647C81.2958 37.7216 80.7908 37.8501 80.2284 37.8501C79.5105 37.8501 78.9162 37.6465 78.4456 37.2394C77.9797 36.8273 77.747 36.2458 77.747 35.4945C77.747 34.5203 78.1226 33.815 78.875 33.3789C79.2872 33.1414 79.8934 32.9717 80.6943 32.8699L81.3997 32.7827V32.7827ZM88.4009 37.6029H86.327V26.8865H88.4009V37.6029V37.6029ZM94.5068 33.7496C94.3801 33.8298 94.2461 33.898 94.1066 33.9532C93.9757 34.0017 93.7936 34.0477 93.5609 34.0913L93.095 34.1786C92.6583 34.2561 92.3452 34.3506 92.1564 34.4621C91.836 34.6511 91.6758 34.9444 91.6758 35.3418C91.6758 35.6956 91.7729 35.9525 91.967 36.1125C92.1658 36.2676 92.4058 36.3451 92.6875 36.3451C93.1336 36.3451 93.5437 36.2142 93.9172 35.9525C94.2955 35.6908 94.4922 35.2133 94.5068 34.5203V33.7496V33.7496ZM93.2478 32.7827C93.6308 32.7342 93.9052 32.6736 94.0701 32.6009C94.3659 32.4749 94.5141 32.2786 94.5141 32.0121C94.5141 31.6873 94.3998 31.4643 94.1718 31.3432C93.9485 31.2171 93.6188 31.1542 93.1821 31.1542C92.6922 31.1542 92.3452 31.2753 92.1418 31.5177C91.9962 31.697 91.8992 31.9393 91.8506 32.2447H89.8492C89.8931 31.5516 90.0872 30.9821 90.4315 30.5362C90.9799 29.8382 91.9211 29.4892 93.2552 29.4892C94.1233 29.4892 94.895 29.6613 95.5691 30.0054C96.2437 30.3496 96.5807 30.999 96.5807 31.9539V35.589C96.5807 35.841 96.5854 36.1464 96.5953 36.5051C96.6099 36.7765 96.6512 36.9606 96.719 37.0576C96.7868 37.1545 96.8885 37.2345 97.0247 37.2975V37.6029H94.7687C94.7056 37.4429 94.6618 37.2927 94.6378 37.1521C94.6132 37.0115 94.5939 36.8516 94.5793 36.6723C94.2934 36.9825 93.9632 37.2466 93.5896 37.4647C93.1435 37.7216 92.639 37.8501 92.076 37.8501C91.3581 37.8501 90.7638 37.6465 90.2932 37.2394C89.8273 36.8273 89.5946 36.2458 89.5946 35.4945C89.5946 34.5203 89.9708 33.815 90.7226 33.3789C91.1348 33.1414 91.7416 32.9717 92.5419 32.8699L93.2478 32.7827V32.7827ZM102.526 29.4892C103.346 29.4892 104.016 29.7049 104.535 30.1363C105.059 30.5628 105.321 31.2729 105.321 32.2665V37.6029H103.196V32.7827C103.196 32.3658 103.14 32.046 103.028 31.823C102.825 31.4159 102.437 31.2123 101.864 31.2123C101.161 31.2123 100.678 31.5104 100.416 32.1065C100.28 32.4216 100.212 32.8239 100.212 33.3134V37.6029H98.1454V29.6928H100.147V30.8488C100.413 30.4417 100.666 30.1484 100.903 29.9691C101.331 29.6492 101.872 29.4892 102.526 29.4892V29.4892ZM111.681 32.521C111.642 32.2253 111.543 31.9587 111.383 31.7212C111.15 31.4013 110.789 31.2414 110.299 31.2414C109.6 31.2414 109.122 31.5879 108.865 32.281C108.729 32.6494 108.661 33.1389 108.661 33.7496C108.661 34.3312 108.729 34.799 108.865 35.1528C109.112 35.8119 109.578 36.1415 110.262 36.1415C110.748 36.1415 111.092 36.0107 111.296 35.749C111.499 35.4872 111.623 35.1479 111.667 34.7311H113.785C113.736 35.3612 113.508 35.9573 113.101 36.5196C112.45 37.4259 111.487 37.8791 110.211 37.8791C108.935 37.8791 107.997 37.5011 107.395 36.745C106.794 35.9889 106.493 35.0074 106.493 33.8005C106.493 32.4386 106.825 31.3795 107.49 30.6234C108.154 29.8673 109.071 29.4892 110.24 29.4892C111.235 29.4892 112.048 29.7122 112.678 30.1581C113.314 30.604 113.69 31.3917 113.806 32.521H111.681V32.521ZM119.315 29.4747C119.805 29.4747 120.249 29.5595 120.647 29.7292C121.05 29.8988 121.38 30.1581 121.637 30.5071C121.855 30.8028 121.988 31.1081 122.037 31.4232C122.085 31.7333 122.11 32.2422 122.11 32.9499V37.6029H119.992V32.7827C119.992 32.3561 119.919 32.0121 119.774 31.7503C119.585 31.382 119.226 31.1978 118.697 31.1978C118.148 31.1978 117.732 31.382 117.445 31.7503C117.164 32.1138 117.023 32.6349 117.023 33.3134V37.6029H114.956V26.9229H117.023V30.7107C117.324 30.2502 117.671 29.9303 118.064 29.751C118.461 29.5668 118.879 29.4747 119.315 29.4747V29.4747ZM126.884 31.176C126.404 31.176 126.03 31.3262 125.763 31.6267C125.501 31.9272 125.336 32.3343 125.269 32.8481H128.492C128.458 32.3004 128.291 31.886 127.99 31.6049C127.694 31.3189 127.325 31.176 126.884 31.176ZM126.884 29.4674C127.544 29.4674 128.138 29.591 128.667 29.8382C129.196 30.0854 129.632 30.4756 129.977 31.0088C130.287 31.4789 130.489 32.0242 130.581 32.6446C130.634 33.0081 130.656 33.5315 130.646 34.2149H125.217C125.247 35.0098 125.497 35.5672 125.967 35.8871C126.253 36.0858 126.598 36.1851 127 36.1851C127.427 36.1851 127.774 36.064 128.041 35.8216C128.187 35.6908 128.315 35.509 128.427 35.2764H130.544C130.491 35.7465 130.246 36.224 129.809 36.7086C129.13 37.4793 128.179 37.8646 126.957 37.8646C125.948 37.8646 125.057 37.5398 124.286 36.8904C123.514 36.2409 123.129 35.1843 123.129 33.7205C123.129 32.3489 123.476 31.2971 124.17 30.5653C124.868 29.8334 125.773 29.4674 126.884 29.4674V29.4674ZM66.7127 13.7284H70.3873C71.1136 13.7284 71.699 13.934 72.144 14.3449C72.5885 14.7521 72.8108 15.3261 72.8108 16.0665C72.8108 16.7033 72.6125 17.2587 72.216 17.7326C71.8195 18.2028 71.2101 18.438 70.3873 18.438H67.8188V21.8868H66.7127V13.7284ZM71.6938 16.0721C71.6938 15.4723 71.4715 15.065 71.0265 14.8503C70.7818 14.7355 70.4468 14.6781 70.0205 14.6781H67.8188V17.5049H70.0205C70.5172 17.5049 70.919 17.3994 71.2268 17.1884C71.5378 16.9773 71.6938 16.6053 71.6938 16.0721ZM76.2021 21.2425C76.8658 21.2425 77.3197 20.9926 77.5639 20.4928C77.8122 19.9893 77.9364 19.4302 77.9364 18.8156C77.9364 18.2602 77.8477 17.8085 77.6698 17.4605C77.388 16.9126 76.9028 16.6385 76.2131 16.6385C75.6016 16.6385 75.1571 16.8718 74.879 17.3383C74.6014 17.8048 74.4621 18.3676 74.4621 19.0266C74.4621 19.6597 74.6014 20.1874 74.879 20.6094C75.1571 21.0315 75.5979 21.2425 76.2021 21.2425V21.2425ZM76.2412 15.7666C77.0082 15.7666 77.6567 16.0221 78.1868 16.533C78.7169 17.044 78.9814 17.7956 78.9814 18.7878C78.9814 19.7468 78.7482 20.5391 78.2812 21.1648C77.8143 21.7905 77.0896 22.1033 76.1077 22.1033C75.2885 22.1033 74.6385 21.8276 74.1564 21.2759C73.6748 20.7205 73.4338 19.9763 73.4338 19.0433C73.4338 18.0436 73.6878 17.2476 74.1955 16.6552C74.7032 16.0629 75.3851 15.7666 76.2412 15.7666V15.7666ZM80.4105 15.9388L81.5557 20.6261L82.7176 15.9388H83.8404L85.0075 20.5983L86.2252 15.9388H87.2259L85.4969 21.8868H84.4576L83.2456 17.2828L82.0727 21.8868H81.0329L79.3153 15.9388H80.4105V15.9388ZM90.4278 15.8055C90.8505 15.8055 91.26 15.9055 91.6565 16.1054C92.0531 16.3017 92.3552 16.5571 92.5628 16.8718C92.7626 17.1717 92.8962 17.5216 92.963 17.9214C93.0219 18.1954 93.0517 18.6323 93.0517 19.2321H88.6878C88.7066 19.8356 88.8491 20.3206 89.1162 20.6872C89.3828 21.05 89.796 21.2314 90.3558 21.2314C90.8781 21.2314 91.295 21.0593 91.6065 20.7149C91.7844 20.515 91.9101 20.2836 91.9842 20.0207H92.9682C92.9426 20.2392 92.8555 20.4836 92.7073 20.7538C92.5628 21.0204 92.3995 21.2388 92.2179 21.4092C91.9143 21.7054 91.5381 21.9053 91.0894 22.009C90.8484 22.0682 90.576 22.0978 90.2724 22.0978C89.531 22.0978 88.9028 21.8294 88.3878 21.2925C87.8729 20.752 87.6152 19.9967 87.6152 19.0266C87.6152 18.0714 87.8745 17.2957 88.3936 16.6996C88.9122 16.1036 89.5905 15.8055 90.4278 15.8055V15.8055ZM92.0233 18.438C91.9826 18.0048 91.8882 17.6586 91.74 17.3994C91.4656 16.9181 91.008 16.6774 90.3668 16.6774C89.9072 16.6774 89.5216 16.8441 89.2106 17.1773C88.8992 17.5068 88.7343 17.927 88.716 18.438H92.0233ZM94.0858 15.9388H95.0364V16.9662C95.1141 16.7663 95.3051 16.5238 95.6092 16.2387C95.9129 15.9499 96.263 15.8055 96.6595 15.8055C96.6783 15.8055 96.7096 15.8074 96.7545 15.8111C96.7988 15.8148 96.8745 15.8222 96.9819 15.8333V16.8885C96.9269 16.8779 96.8714 16.8705 96.8155 16.8663C96.767 16.8626 96.7132 16.8607 96.6543 16.8607C96.1503 16.8607 95.7626 17.0236 95.4924 17.3494C95.2216 17.6715 95.0865 18.0436 95.0865 18.4657V21.8868H94.0858V15.9388ZM100.101 15.8055C100.523 15.8055 100.933 15.9055 101.33 16.1054C101.726 16.3017 102.028 16.5571 102.235 16.8718C102.436 17.1717 102.569 17.5216 102.636 17.9214C102.695 18.1954 102.725 18.6323 102.725 19.2321H98.3609C98.3797 19.8356 98.5221 20.3206 98.7892 20.6872C99.0558 21.05 99.4691 21.2314 100.029 21.2314C100.551 21.2314 100.968 21.0593 101.279 20.7149C101.457 20.515 101.583 20.2836 101.657 20.0207H102.641C102.616 20.2392 102.529 20.4836 102.38 20.7538C102.235 21.0204 102.073 21.2388 101.891 21.4092C101.587 21.7054 101.211 21.9053 100.762 22.009C100.521 22.0682 100.249 22.0978 99.9454 22.0978C99.204 22.0978 98.5758 21.8294 98.0609 21.2925C97.5459 20.752 97.2882 19.9967 97.2882 19.0266C97.2882 18.0714 97.5475 17.2957 98.0661 16.6996C98.5852 16.1036 99.2635 15.8055 100.101 15.8055V15.8055ZM101.696 18.438C101.656 18.0048 101.561 17.6586 101.413 17.3994C101.139 16.9181 100.681 16.6774 100.04 16.6774C99.5802 16.6774 99.1946 16.8441 98.8837 17.1773C98.5722 17.5068 98.4073 17.927 98.3885 18.438H101.696ZM104.365 18.9822C104.365 19.619 104.5 20.1522 104.77 20.5816C105.041 21.0111 105.475 21.2259 106.072 21.2259C106.534 21.2259 106.915 21.0278 107.211 20.6316C107.511 20.2318 107.661 19.6597 107.661 18.9156C107.661 18.164 107.507 17.6086 107.2 17.2494C106.892 16.8866 106.513 16.7052 106.06 16.7052C105.556 16.7052 105.147 16.8977 104.832 17.2828C104.521 17.6678 104.365 18.2343 104.365 18.9822V18.9822ZM105.871 15.8333C106.327 15.8333 106.709 15.9296 107.017 16.1221C107.194 16.2332 107.396 16.4275 107.622 16.7052V13.7007H108.584V21.8868H107.683V21.0593C107.45 21.4258 107.174 21.6905 106.855 21.8534C106.537 22.0164 106.171 22.0978 105.76 22.0978C105.097 22.0978 104.522 21.8201 104.037 21.2648C103.551 20.7057 103.309 19.9633 103.309 19.0378C103.309 18.1714 103.529 17.4216 103.97 16.7885C104.415 16.1517 105.049 15.8333 105.871 15.8333V15.8333ZM112.703 13.7007H113.677V16.6608C113.895 16.3757 114.157 16.1591 114.46 16.011C114.764 15.8592 115.094 15.7833 115.45 15.7833C116.191 15.7833 116.791 16.0388 117.251 16.5497C117.714 17.0569 117.946 17.8067 117.946 18.7989C117.946 19.7393 117.718 20.5205 117.262 21.1426C116.806 21.7646 116.174 22.0756 115.366 22.0756C114.914 22.0756 114.533 21.9664 114.221 21.7479C114.036 21.6183 113.838 21.411 113.626 21.1259V21.8868H112.703V13.7007V13.7007ZM115.305 21.1925C115.846 21.1925 116.25 20.9778 116.517 20.5484C116.788 20.1189 116.923 19.5524 116.923 18.8489C116.923 18.2232 116.788 17.7049 116.517 17.2939C116.25 16.8829 115.856 16.6774 115.333 16.6774C114.877 16.6774 114.477 16.8459 114.133 17.1828C113.791 17.5198 113.621 18.0751 113.621 18.8489C113.621 19.408 113.691 19.8615 113.832 20.2096C114.096 20.8649 114.586 21.1925 115.305 21.1925V21.1925ZM122.61 15.9388H123.716C123.575 16.3201 123.262 17.1902 122.777 18.549C122.414 19.5709 122.109 20.4039 121.865 21.0482C121.287 22.5662 120.879 23.4918 120.642 23.825C120.405 24.1582 119.997 24.3248 119.419 24.3248C119.278 24.3248 119.169 24.3193 119.091 24.3082C119.017 24.297 118.924 24.2767 118.813 24.2471V23.3363C118.987 23.3844 119.114 23.414 119.191 23.4251C119.269 23.4362 119.337 23.4418 119.397 23.4418C119.582 23.4418 119.717 23.4103 119.803 23.3474C119.891 23.2888 119.966 23.2133 120.025 23.1252C120.044 23.0956 120.11 22.9438 120.225 22.6698C120.34 22.3958 120.424 22.1922 120.475 22.0589L118.274 15.9388H119.408L121.003 20.7816L122.61 15.9388V15.9388Z" fill="#E84142"/>
<path fill-rule="evenodd" clip-rule="evenodd" d="M52.3659 25.7862C52.3659 34.7693 45.0839 42.0514 36.1009 42.0514C27.1179 42.0514 19.8357 34.7693 19.8357 25.7862C19.8357 16.8032 27.1179 9.521 36.1009 9.521C45.0839 9.521 52.3659 16.8032 52.3659 25.7862V25.7862ZM31.492 32.2591H28.3354C27.6721 32.2591 27.3445 32.2591 27.1446 32.1312C26.9289 31.9914 26.797 31.7596 26.781 31.5039C26.769 31.2681 26.9329 30.9804 27.2605 30.4051L35.0546 16.6669C35.3863 16.0835 35.5541 15.7918 35.7659 15.6839C35.8786 15.6268 36.0031 15.597 36.1295 15.597C36.2558 15.597 36.3804 15.6268 36.4931 15.6839C36.7049 15.7918 36.8727 16.0835 37.2043 16.6669L38.8066 19.4639L38.8148 19.4782C39.173 20.1041 39.3546 20.4214 39.4339 20.7545C39.5219 21.1196 39.5219 21.5003 39.4339 21.8653C39.354 22.201 39.1742 22.5206 38.8106 23.156L34.7166 30.3931L34.7059 30.4116C34.3454 31.0426 34.1627 31.3624 33.9095 31.6038C33.6353 31.8663 33.3024 32.0594 32.9384 32.1672C32.6068 32.2591 32.2352 32.2591 31.492 32.2591V32.2591ZM39.4638 32.2592H43.9869C44.6542 32.2592 44.9899 32.2592 45.1897 32.1273C45.4054 31.9875 45.5413 31.7517 45.5533 31.496C45.5648 31.268 45.4046 30.9915 45.0904 30.4496L45.0578 30.3932L42.7922 26.5173L42.7664 26.4737C42.448 25.9353 42.2872 25.6634 42.081 25.5584C41.969 25.5012 41.8451 25.4715 41.7194 25.4715C41.5937 25.4715 41.4697 25.5012 41.3577 25.5584C41.1499 25.6663 40.9821 25.9499 40.6505 26.5213L38.3929 30.3972L38.3852 30.4105C38.0547 30.981 37.8895 31.2661 37.9014 31.5C37.9174 31.7557 38.0493 31.9915 38.265 32.1313C38.4608 32.2592 38.7965 32.2592 39.4638 32.2592V32.2592Z" fill="#E84142"/>
</g>
<defs>
<clipPath id="clip0_358_26">
<rect width="150" height="51.5478" fill="white"/>
</clipPath>
</defs>
</svg>
