<svg width="2875" height="988" fill="none" xmlns="http://www.w3.org/2000/svg"><rect x="3.68" y="3.68" width="2866.82" height="980.64" rx="143.526" fill="#fff" stroke="#E84142" stroke-width="7.36"/><path d="M1216.48 643.099h52.16l-25.66-80.821-26.5 80.821Zm2.65-127.781h48.54l72.8 205.397h-46.58l-13.25-42.222h-75.74l-14.23 42.222h-44.91l73.37-205.397ZM1440.9 568.827h42.69l-54.82 151.888h-41.98l-54.54-151.888h44.63l31.67 112.035 32.35-112.035ZM1584.29 646.861c-2.51 1.58-5.06 2.88-7.67 3.902-2.51.929-5.99 1.812-10.46 2.648l-8.92 1.672c-8.37 1.486-14.37 3.298-18 5.434-6.13 3.623-9.2 9.244-9.2 16.861 0 6.782 1.86 11.705 5.58 14.771 3.81 2.973 8.41 4.459 13.8 4.459 8.56 0 16.42-2.508 23.58-7.525 7.25-5.016 11.02-14.167 11.29-27.451v-14.771Zm-24.13-18.533c7.35-.929 12.6-2.09 15.77-3.483 5.67-2.416 8.5-6.178 8.5-11.287 0-6.225-2.18-10.498-6.55-12.82-4.28-2.416-10.6-3.623-18.97-3.623-9.39 0-16.04 2.322-19.95 6.967-2.79 3.437-4.65 8.082-5.58 13.935h-38.35c.83-13.285 4.55-24.2 11.16-32.747 10.5-13.377 28.54-20.066 54.11-20.066 16.65 0 31.43 3.298 44.36 9.894 12.92 6.596 19.39 19.044 19.39 37.345v69.673c0 4.831.09 10.683.28 17.558.27 5.202 1.06 8.732 2.37 10.59 1.3 1.858 3.25 3.391 5.85 4.598v5.853h-43.23c-1.21-3.066-2.05-5.945-2.51-8.64-.47-2.694-.84-5.759-1.12-9.196-5.49 5.945-11.81 11.008-18.97 15.188-8.55 4.924-18.23 7.386-29.01 7.386-13.76 0-25.15-3.902-34.17-11.705-8.93-7.897-13.39-19.044-13.39-33.443 0-18.673 7.2-32.19 21.62-40.55 7.9-4.552 19.52-7.804 34.87-9.755l13.52-1.672ZM1694.35 720.715h-39.75V515.318h39.75v205.397ZM1811.38 646.861a45.96 45.96 0 0 1-7.67 3.902c-2.51.929-6 1.812-10.46 2.648l-8.93 1.672c-8.37 1.486-14.37 3.298-17.99 5.434-6.14 3.623-9.21 9.244-9.21 16.861 0 6.782 1.86 11.705 5.58 14.771 3.81 2.973 8.41 4.459 13.81 4.459 8.55 0 16.41-2.508 23.57-7.525 7.25-5.016 11.02-14.167 11.3-27.451v-14.771Zm-24.13-18.533c7.34-.929 12.6-2.09 15.76-3.483 5.67-2.416 8.51-6.178 8.51-11.287 0-6.225-2.19-10.498-6.56-12.82-4.28-2.416-10.6-3.623-18.97-3.623-9.39 0-16.04 2.322-19.94 6.967-2.79 3.437-4.65 8.082-5.58 13.935h-38.36c.84-13.285 4.56-24.2 11.16-32.747 10.51-13.377 28.55-20.066 54.12-20.066 16.64 0 31.43 3.298 44.35 9.894 12.93 6.596 19.39 19.044 19.39 37.345v69.673c0 4.831.09 10.683.28 17.558.28 5.202 1.07 8.732 2.37 10.59 1.3 1.858 3.25 3.391 5.86 4.598v5.853h-43.24c-1.21-3.066-2.05-5.945-2.51-8.64-.47-2.694-.84-5.759-1.12-9.196-5.48 5.945-11.81 11.008-18.97 15.188-8.55 4.924-18.22 7.386-29.01 7.386-13.76 0-25.15-3.902-34.17-11.705-8.93-7.897-13.39-19.044-13.39-33.443 0-18.673 7.21-32.19 21.62-40.55 7.9-4.552 19.53-7.804 34.87-9.755l13.53-1.672ZM1965.09 565.204c15.71 0 28.55 4.134 38.49 12.402 10.05 8.175 15.07 21.785 15.07 40.829v102.28h-40.73v-92.387c0-7.989-1.07-14.12-3.21-18.393-3.9-7.804-11.34-11.706-22.31-11.706-13.49 0-22.74 5.714-27.76 17.14-2.6 6.038-3.91 13.749-3.91 23.132v82.214h-39.61V569.106h38.36v22.156c5.11-7.803 9.95-13.424 14.5-16.861 8.19-6.131 18.56-9.197 31.11-9.197ZM2140.56 623.312c-.75-5.667-2.65-10.776-5.72-15.328-4.46-6.132-11.39-9.197-20.78-9.197-13.39 0-22.55 6.642-27.48 19.926-2.6 7.061-3.91 16.443-3.91 28.148 0 11.148 1.31 20.113 3.91 26.894 4.74 12.634 13.67 18.951 26.78 18.951 9.3 0 15.9-2.508 19.81-7.524 3.9-5.017 6.27-11.52 7.11-19.509h40.59c-.93 12.077-5.3 23.503-13.11 34.279-12.46 17.372-30.92 26.058-55.38 26.058-24.45 0-42.44-7.246-53.97-21.738-11.53-14.492-17.3-33.304-17.3-56.435 0-26.104 6.37-46.403 19.11-60.895 12.74-14.492 30.31-21.738 52.72-21.738 19.06 0 34.64 4.274 46.73 12.82 12.18 8.547 19.38 23.643 21.62 45.288h-40.73ZM2286.88 564.926c9.39 0 17.9 1.625 25.52 4.877 7.72 3.251 14.04 8.221 18.97 14.91 4.19 5.667 6.74 11.519 7.67 17.558.93 5.945 1.4 15.699 1.4 29.262v89.182h-40.59v-92.387c0-8.175-1.4-14.77-4.19-19.787-3.62-7.06-10.5-10.59-20.64-10.59-10.51 0-18.5 3.53-23.99 10.59-5.39 6.967-8.09 16.954-8.09 29.96v82.214h-39.61v-204.7h39.61v72.6c5.77-8.826 12.42-14.957 19.95-18.394 7.62-3.53 15.62-5.295 23.99-5.295ZM2431.94 597.533c-9.2 0-16.36 2.88-21.48 8.639-5.02 5.76-8.18 13.563-9.48 23.41h61.79c-.65-10.497-3.86-18.44-9.63-23.828-5.67-5.481-12.74-8.221-21.2-8.221Zm0-32.747c12.65 0 24.04 2.369 34.17 7.107 10.14 4.738 18.51 12.216 25.11 22.435 5.95 9.011 9.81 19.462 11.58 31.353 1.02 6.967 1.44 17 1.25 30.099H2400c.56 15.235 5.35 25.918 14.37 32.049 5.48 3.809 12.09 5.713 19.8 5.713 8.19 0 14.83-2.322 19.95-6.967 2.79-2.508 5.25-5.992 7.39-10.451h40.59c-1.02 9.011-5.72 18.162-14.09 27.451-13.02 14.771-31.24 22.156-54.67 22.156-19.34 0-36.41-6.224-51.19-18.672-14.79-12.448-22.18-32.7-22.18-60.755 0-26.29 6.65-46.449 19.95-60.476 13.39-14.028 30.73-21.042 52.02-21.042ZM1278.66 263.122h70.43c13.92 0 25.14 3.939 33.67 11.815 8.52 7.806 12.78 18.806 12.78 32.998 0 12.206-3.8 22.851-11.4 31.934-7.6 9.012-19.28 13.519-35.05 13.519h-49.23v66.102h-21.2V263.122Zm95.47 44.92c0-11.496-4.26-19.302-12.79-23.418-4.69-2.2-11.11-3.3-19.28-3.3h-42.2v54.181h42.2c9.52 0 17.22-2.023 23.12-6.068 5.96-4.045 8.95-11.176 8.95-21.395ZM1460.54 407.142c12.72 0 21.42-4.79 26.1-14.37 4.76-9.651 7.14-20.366 7.14-32.146 0-10.645-1.7-19.302-5.11-25.973-5.4-10.502-14.7-15.754-27.92-15.754-11.72 0-20.24 4.471-25.57 13.412-5.32 8.942-7.99 19.728-7.99 32.36 0 12.134 2.67 22.247 7.99 30.337 5.33 8.089 13.78 12.134 25.36 12.134Zm.75-104.955c14.7 0 27.13 4.897 37.29 14.69s15.23 24.198 15.23 43.217c0 18.379-4.47 33.565-13.42 45.558-8.95 11.993-22.84 17.989-41.66 17.989-15.7 0-28.16-5.286-37.4-15.86-9.23-10.644-13.85-24.908-13.85-42.791 0-19.16 4.87-34.417 14.6-45.771s22.8-17.032 39.21-17.032ZM1541.2 305.487l21.95 89.84 22.27-89.84h21.52l22.37 89.308 23.34-89.308h19.18l-33.14 114.003h-19.92l-23.23-88.243-22.48 88.243h-19.93l-32.92-114.003h20.99ZM1733.2 302.933c8.1 0 15.95 1.916 23.55 5.748 7.6 3.761 13.39 8.657 17.37 14.689 3.83 5.748 6.39 12.454 7.67 20.118 1.13 5.251 1.7 13.625 1.7 25.121h-83.64c.36 11.567 3.09 20.863 8.21 27.889 5.11 6.954 13.03 10.431 23.76 10.431 10.01 0 18-3.299 23.97-9.899 3.41-3.832 5.82-8.267 7.24-13.306h18.86c-.49 4.187-2.16 8.871-5 14.051-2.77 5.11-5.9 9.296-9.38 12.561-5.82 5.677-13.03 9.509-21.63 11.496-4.62 1.135-9.84 1.703-15.66 1.703-14.21 0-26.25-5.145-36.12-15.435-9.87-10.36-14.81-24.837-14.81-43.429 0-18.309 4.97-33.176 14.92-44.601 9.94-11.425 22.94-17.137 38.99-17.137Zm30.58 50.455c-.78-8.303-2.59-14.938-5.43-19.906-5.26-9.225-14.03-13.838-26.32-13.838-8.81 0-16.2 3.194-22.16 9.581-5.97 6.315-9.13 14.37-9.48 24.163h63.39ZM1803.31 305.487h18.22v19.693c1.49-3.832 5.15-8.481 10.98-13.945 5.82-5.535 12.53-8.302 20.13-8.302.36 0 .96.035 1.82.106.85.071 2.3.213 4.36.426v20.224a28.22 28.22 0 0 0-3.19-.425c-.93-.071-1.96-.107-3.09-.107-9.66 0-17.09 3.123-22.27 9.367-5.19 6.174-7.78 13.306-7.78 21.396v65.57h-19.18V305.487ZM1918.6 302.933c8.1 0 15.95 1.916 23.55 5.748 7.6 3.761 13.39 8.657 17.36 14.689 3.84 5.748 6.4 12.454 7.68 20.118 1.13 5.251 1.7 13.625 1.7 25.121h-83.64c.36 11.567 3.09 20.863 8.21 27.889 5.11 6.954 13.03 10.431 23.76 10.431 10.01 0 18-3.299 23.97-9.899 3.41-3.832 5.82-8.267 7.24-13.306h18.86c-.49 4.187-2.16 8.871-5.01 14.051-2.77 5.11-5.89 9.296-9.37 12.561-5.83 5.677-13.04 9.509-21.63 11.496-4.62 1.135-9.84 1.703-15.66 1.703-14.21 0-26.25-5.145-36.12-15.435-9.87-10.36-14.81-24.837-14.81-43.429 0-18.309 4.97-33.176 14.91-44.601 9.95-11.425 22.95-17.137 39-17.137Zm30.58 50.455c-.78-8.303-2.59-14.938-5.43-19.906-5.26-9.225-14.03-13.838-26.32-13.838-8.81 0-16.2 3.194-22.16 9.581-5.97 6.315-9.13 14.37-9.49 24.163h63.4ZM2000.33 363.819c0 12.206 2.59 22.425 7.77 30.656 5.19 8.232 13.5 12.348 24.94 12.348 8.87 0 16.16-3.797 21.84-11.39 5.75-7.664 8.63-18.628 8.63-32.891 0-14.406-2.95-25.05-8.85-31.934-5.89-6.954-13.17-10.431-21.84-10.431-9.66 0-17.51 3.69-23.54 11.07-5.97 7.38-8.95 18.238-8.95 32.572Zm28.87-60.354c8.74 0 16.05 1.845 21.95 5.535 3.41 2.129 7.28 5.854 11.61 11.177V262.59h18.43v156.9h-17.26v-15.86c-4.47 7.025-9.76 12.099-15.87 15.221-6.11 3.123-13.11 4.684-20.99 4.684-12.72 0-23.73-5.322-33.03-15.967-9.31-10.715-13.96-24.944-13.96-42.684 0-16.606 4.23-30.976 12.68-43.111 8.53-12.205 20.67-18.308 36.44-18.308ZM2160.15 262.59h18.65v56.735c4.19-5.464 9.2-9.615 15.02-12.454 5.83-2.909 12.15-4.364 18.97-4.364 14.2 0 25.71 4.896 34.52 14.689 8.88 9.722 13.32 24.092 13.32 43.11 0 18.025-4.37 32.998-13.11 44.92-8.73 11.922-20.85 17.883-36.33 17.883-8.67 0-15.98-2.093-21.95-6.28-3.55-2.484-7.35-6.458-11.4-11.922v14.583h-17.69v-156.9Zm49.87 143.594c10.37 0 18.11-4.116 23.23-12.347 5.18-8.232 7.77-19.089 7.77-32.572 0-11.993-2.59-21.928-7.77-29.805-5.12-7.877-12.68-11.816-22.7-11.816-8.74 0-16.41 3.229-23.01 9.687-6.54 6.458-9.81 17.102-9.81 31.934 0 10.715 1.35 19.408 4.05 26.079 5.05 12.56 14.46 18.84 28.24 18.84ZM2350.02 305.487h21.21c-2.7 7.309-8.7 23.986-18.01 50.029-6.96 19.586-12.79 35.553-17.47 47.901-11.08 29.095-18.9 46.836-23.44 53.222-4.55 6.387-12.36 9.58-23.44 9.58-2.7 0-4.8-.106-6.29-.319-1.42-.213-3.2-.603-5.33-1.171v-17.457c3.34.923 5.76 1.49 7.25 1.703 1.49.213 2.8.32 3.94.32 3.55 0 6.14-.604 7.78-1.81a15.31 15.31 0 0 0 4.26-4.258c.36-.567 1.63-3.477 3.84-8.728 2.2-5.252 3.8-9.155 4.79-11.709l-42.19-117.303h21.73l30.58 92.82 30.79-92.82Z" fill="#E84142"/><path fill-rule="evenodd" clip-rule="evenodd" d="M1003.68 494.237c0 172.175-139.572 311.75-311.747 311.75-172.174 0-311.749-139.575-311.749-311.75s139.575-311.75 311.749-311.75c172.175 0 311.747 139.575 311.747 311.75ZM603.597 618.3h-60.502c-12.713 0-18.993 0-22.823-2.451-4.135-2.68-6.663-7.122-6.969-12.023-.23-4.519 2.91-10.033 9.19-21.061L671.88 319.45c6.357-11.181 9.573-16.772 13.632-18.84a15.413 15.413 0 0 1 13.939 0c4.059 2.068 7.275 7.659 13.632 18.84l30.71 53.609.157.274c6.865 11.996 10.347 18.079 11.867 24.463a45.47 45.47 0 0 1 0 21.291c-1.532 6.433-4.978 12.56-11.947 24.737l-78.469 138.711-.204.356c-6.91 12.094-10.412 18.223-15.266 22.849a45.647 45.647 0 0 1-18.611 10.799c-6.356 1.761-13.478 1.761-27.723 1.761Zm152.792.003h86.694c12.789 0 19.223 0 23.052-2.528 4.135-2.68 6.739-7.199 6.969-12.1.222-4.37-2.85-9.67-8.871-20.057l-.626-1.08-43.423-74.288-.495-.836c-6.102-10.319-9.184-15.53-13.137-17.544a15.252 15.252 0 0 0-13.862 0c-3.983 2.068-7.199 7.505-13.556 18.457l-43.27 74.287-.148.256c-6.335 10.934-9.5 16.398-9.272 20.882.306 4.901 2.834 9.419 6.969 12.1 3.753 2.451 10.186 2.451 22.976 2.451Z" fill="#E84142"/></svg>