<svg width="590" height="518" fill="none" xmlns="http://www.w3.org/2000/svg"><path d="M5.078 26.38c-1.836 0-3.174-.787-4.014-2.362l1.66-1.27.147-.107.137.185a.884.884 0 0 0-.01.156c0 .176.081.365.244.567.209.267.453.475.733.625.28.15.621.224 1.025.224.384 0 .726-.09 1.025-.273.3-.189.537-.465.713-.83.176-.365.264-.81.264-1.338 0-.775-.176-1.377-.527-1.807-.352-.436-.817-.654-1.397-.654-.397 0-.749.098-1.055.293-.306.189-.608.492-.908.908l-1.435-.615.459-6.543h6.699v1.904H4.102l-.166 2.412a4.93 4.93 0 0 1 1.386-.214c.788 0 1.475.172 2.06.517.587.345 1.04.843 1.358 1.494.32.651.479 1.426.479 2.325 0 .865-.17 1.63-.508 2.294a3.742 3.742 0 0 1-1.445 1.553c-.625.371-1.355.557-2.188.557ZM15 13.306c.905 0 1.68.257 2.324.771.645.514 1.136 1.263 1.475 2.246.345.977.517 2.149.517 3.516s-.172 2.542-.517 3.525c-.339.977-.83 1.726-1.475 2.246-.644.515-1.42.772-2.324.772-.905 0-1.68-.257-2.324-.772-.645-.52-1.14-1.27-1.485-2.246-.338-.983-.507-2.158-.507-3.525s.169-2.54.507-3.516c.345-.983.84-1.731 1.485-2.246.644-.514 1.42-.771 2.324-.771Zm0 1.797c-.456 0-.846.188-1.172.566-.325.371-.576.911-.752 1.621-.17.71-.254 1.56-.254 2.549 0 .508.026 1.006.078 1.494l3.858-4.58c-.182-.534-.423-.94-.723-1.22-.3-.287-.644-.43-1.035-.43Zm0 9.482c.456 0 .846-.189 1.172-.566.325-.378.573-.922.742-1.631.176-.71.264-1.56.264-2.55 0-.585-.03-1.116-.088-1.59l-3.877 4.608c.182.56.423.99.723 1.29.306.293.66.439 1.064.439Zm7.744-5.8c-.443 0-.856-.118-1.24-.352-.378-.241-.68-.57-.908-.987a2.987 2.987 0 0 1-.332-1.406c0-.495.11-.95.332-1.367.228-.417.53-.746.908-.987.384-.24.797-.36 1.24-.36.45 0 .863.123 1.24.37.378.241.677.57.899.987.228.416.342.875.342 1.377 0 .527-.108.999-.323 1.416-.215.41-.51.732-.888.966-.378.228-.801.342-1.27.342Zm5.176-5.245h1.435L22.218 26H20.84l7.08-12.46Zm-5.225 3.984c.326 0 .57-.133.733-.4.169-.273.254-.628.254-1.064 0-.43-.085-.782-.254-1.055a.794.794 0 0 0-.733-.42.808.808 0 0 0-.732.42c-.163.273-.244.625-.244 1.055 0 .436.081.79.244 1.064.17.267.413.4.732.4Zm4.61 8.672c-.45 0-.863-.117-1.24-.351-.378-.241-.68-.57-.909-.987a2.93 2.93 0 0 1-.332-1.396c0-.495.11-.95.332-1.367.228-.423.53-.756.909-.996.384-.241.797-.362 1.24-.362.442 0 .853.124 1.23.371.384.241.687.573.908.997.222.416.332.875.332 1.377 0 .527-.107.996-.322 1.406-.215.41-.51.732-.889.966a2.359 2.359 0 0 1-1.26.342Zm-.05-1.26c.326 0 .57-.133.733-.4.17-.267.254-.618.254-1.055 0-.43-.084-.784-.254-1.064a.795.795 0 0 0-.732-.42c-.32 0-.563.14-.733.42-.162.28-.244.635-.244 1.064 0 .437.082.788.244 1.055.163.267.407.4.733.4ZM6.24 55.24c3.08 0 5.46-1.72 5.46-4.26 0-3.22-3.86-4.18-5.08-4.44-1.26-.26-2.52-.68-2.52-1.58 0-.72.88-1.24 2.12-1.24 1.3 0 2.66.54 3.46 1.3l1.44-2.36c-1.02-.98-2.76-1.7-4.88-1.7-3.18 0-5.32 1.64-5.32 4.12 0 2.44 2.06 3.74 4.82 4.4 1.46.36 2.78.68 2.78 1.64 0 .82-1.06 1.36-2.3 1.36-1.46 0-3.12-.72-4.24-1.76l-1.6 2.36c1.44 1.3 3.72 2.16 5.86 2.16Zm11.988 0c3.14 0 5.5-2.3 5.5-5.34s-2.36-5.34-5.5-5.34-5.5 2.3-5.5 5.34 2.36 5.34 5.5 5.34Zm0-2.82c-1.44 0-2.5-1.08-2.5-2.52s1.06-2.52 2.5-2.52 2.5 1.08 2.5 2.52-1.06 2.52-2.5 2.52ZM25.457 55h2.92V40.6h-2.92V55ZM38.13 40.6v5.22c-.78-.8-1.84-1.26-3.08-1.26-2.8 0-4.92 2.3-4.92 5.34s2.12 5.34 4.92 5.34c1.24 0 2.3-.46 3.08-1.26V55h2.92V40.6h-2.92Zm-2.5 11.82c-1.42 0-2.48-1.08-2.48-2.52s1.06-2.52 2.48-2.52c1.44 0 2.5 1.08 2.5 2.52s-1.06 2.52-2.5 2.52Zm19.57-7.62v1.02c-.78-.8-1.84-1.26-3.08-1.26-2.8 0-4.92 2.3-4.92 5.34s2.12 5.34 4.92 5.34c1.24 0 2.3-.46 3.08-1.26V55h2.92V44.8h-2.92Zm-2.5 7.62c-1.42 0-2.48-1.08-2.48-2.52s1.06-2.52 2.48-2.52c1.44 0 2.5 1.08 2.5 2.52s-1.06 2.52-2.5 2.52Zm14.176-4.96V44.8h-2.62v-2.52h-2.92v2.52h-1.54v2.66h1.54v4.22c0 2.1 1.1 3.56 3.58 3.56.78 0 1.36-.14 1.96-.44v-2.74c-.38.2-.82.36-1.34.36-.86 0-1.28-.44-1.28-1.22v-3.74h2.62ZM73.074 55h2.92V40.6h-2.92V55Zm12.674-10.2v1.02c-.78-.8-1.84-1.26-3.08-1.26-2.8 0-4.92 2.3-4.92 5.34s2.12 5.34 4.92 5.34c1.24 0 2.3-.46 3.08-1.26V55h2.92V44.8h-2.92Zm-2.5 7.62c-1.42 0-2.48-1.08-2.48-2.52s1.06-2.52 2.48-2.52c1.44 0 2.5 1.08 2.5 2.52s-1.06 2.52-2.5 2.52Zm12.376 2.82c2.92 0 4.82-1.72 4.82-4.32V44.8h-2.92v5.72c0 1.14-.76 1.9-1.9 1.9s-1.9-.76-1.9-1.9V44.8h-2.92v6.12c0 2.6 1.92 4.32 4.82 4.32Zm13.001-10.68c-1.26 0-2.3.44-3.1 1.26V44.8h-2.92V55h2.92v-5.54c0-1.26.86-2.08 2.1-2.08 1.2 0 1.98.8 1.98 2.04V55h2.92v-6.56c0-2.34-1.56-3.88-3.9-3.88Zm10.931 10.68c2.06 0 3.78-.98 4.72-2.54l-2.54-1.54c-.42.76-1.22 1.26-2.18 1.26-1.44 0-2.5-1.08-2.5-2.52s1.06-2.52 2.5-2.52c.96 0 1.76.5 2.18 1.26l2.54-1.54c-.94-1.56-2.66-2.54-4.72-2.54-3.14 0-5.5 2.3-5.5 5.34s2.36 5.34 5.5 5.34Zm12.175-10.68c-1.26 0-2.3.46-3.1 1.32V40.6h-2.92V55h2.92v-5.54c0-1.26.86-2.08 2.12-2.08 1.18 0 1.96.8 1.96 2.04V55h2.92v-6.56c0-2.34-1.56-3.88-3.9-3.88Z" fill="#E93C3C"/><path d="M428.914 15.688c1.287-1.235 2.208-2.146 2.766-2.735.562-.588.989-1.135 1.281-1.64.297-.51.445-1.032.445-1.563 0-.422-.133-.755-.398-1-.266-.25-.623-.375-1.07-.375-.662 0-1.201.208-1.618.625a.962.962 0 0 0-.195.258.492.492 0 0 0-.055.219l.008.085-.109.149-.11-.086-1.187-.898c.385-.62.857-1.094 1.414-1.422.562-.334 1.19-.5 1.883-.5a3.38 3.38 0 0 1 1.601.375c.474.244.844.588 1.11 1.03.271.444.406.951.406 1.524 0 .568-.135 1.112-.406 1.633a7.21 7.21 0 0 1-1.055 1.516c-.432.49-1.07 1.156-1.914 2l-.641.633h3.258c.172 0 .297-.008.375-.024a.502.502 0 0 0 .219-.117h.18V17h-6.188v-1.313Zm11.148 1.617c-1.468 0-2.539-.63-3.21-1.89l1.328-1.017.117-.085.109.148a.725.725 0 0 0-.008.125c0 .14.066.292.196.453.166.214.362.38.586.5.224.12.497.18.82.18.307 0 .581-.073.82-.219.24-.151.43-.372.571-.664.14-.292.211-.649.211-1.07 0-.62-.141-1.102-.422-1.446-.282-.349-.654-.523-1.118-.523-.317 0-.598.078-.843.234-.245.151-.487.393-.727.727l-1.148-.492.367-5.235h5.359v1.524h-3.789l-.133 1.93a3.95 3.95 0 0 1 1.11-.172c.63 0 1.18.137 1.648.414a2.75 2.75 0 0 1 1.086 1.195c.255.52.383 1.14.383 1.86 0 .692-.135 1.304-.406 1.835a2.996 2.996 0 0 1-1.157 1.242c-.5.297-1.083.446-1.75.446Zm6.133-6.078a1.87 1.87 0 0 1-.992-.282 2.122 2.122 0 0 1-.726-.789 2.379 2.379 0 0 1-.266-1.125c0-.396.088-.76.266-1.094.182-.333.424-.596.726-.789a1.833 1.833 0 0 1 1.985.008c.302.193.541.456.718.79.183.333.274.7.274 1.1 0 .423-.086.8-.258 1.134a1.963 1.963 0 0 1-.711.773 1.928 1.928 0 0 1-1.016.274Zm4.141-4.196h1.148L445.773 17h-1.101l5.664-9.969Zm-4.18 3.188a.641.641 0 0 0 .586-.32c.136-.22.203-.503.203-.852 0-.344-.067-.625-.203-.844a.635.635 0 0 0-.586-.336.647.647 0 0 0-.586.336c-.13.219-.195.5-.195.844 0 .349.065.633.195.851.136.214.331.32.586.32Zm3.688 6.937c-.36 0-.69-.093-.992-.281a2.116 2.116 0 0 1-.727-.79 2.345 2.345 0 0 1-.266-1.116c0-.396.089-.76.266-1.094.182-.338.424-.604.727-.797.307-.193.638-.289.992-.289s.682.099.984.297c.307.193.55.458.727.797.177.333.265.7.265 1.101 0 .422-.086.797-.258 1.125a1.953 1.953 0 0 1-.71.774 1.888 1.888 0 0 1-1.008.273Zm-.039-1.008c.26 0 .455-.106.586-.32.135-.213.203-.495.203-.844 0-.343-.068-.627-.203-.851a.637.637 0 0 0-.586-.336.645.645 0 0 0-.586.336c-.13.224-.196.508-.196.851 0 .35.066.63.196.844a.64.64 0 0 0 .586.32ZM431.536 38.664V29.96h-2.48V41h7.088v-2.336h-4.608Zm7.06-6.864c.832 0 1.456-.608 1.456-1.44 0-.816-.624-1.424-1.456-1.424-.816 0-1.44.608-1.44 1.424 0 .832.624 1.44 1.44 1.44Zm-1.168 9.2h2.336v-8.16h-2.336V41Zm10.14-8.16v.816c-.624-.64-1.472-1.008-2.464-1.008-2.24 0-3.936 1.84-3.936 4.272 0 2.432 1.696 4.272 3.936 4.272.992 0 1.84-.368 2.464-1.008v3.856h2.336v-11.2h-2.336Zm-2 6.096c-1.136 0-1.984-.864-1.984-2.016 0-1.152.848-2.016 1.984-2.016 1.152 0 2 .864 2 2.016 0 1.152-.848 2.016-2 2.016Zm9.9 2.256c2.336 0 3.856-1.376 3.856-3.456V32.84h-2.336v4.576c0 .912-.608 1.52-1.52 1.52s-1.52-.608-1.52-1.52V32.84h-2.336v4.896c0 2.08 1.536 3.456 3.856 3.456Zm6.753-9.392c.832 0 1.456-.608 1.456-1.44 0-.816-.624-1.424-1.456-1.424-.816 0-1.44.608-1.44 1.424 0 .832.624 1.44 1.44 1.44Zm-1.168 9.2h2.336v-8.16h-2.336V41Zm10.14-11.52v4.176c-.624-.64-1.472-1.008-2.464-1.008-2.24 0-3.936 1.84-3.936 4.272 0 2.432 1.696 4.272 3.936 4.272.992 0 1.84-.368 2.464-1.008V41h2.336V29.48h-2.336Zm-2 9.456c-1.136 0-1.984-.864-1.984-2.016 0-1.152.848-2.016 1.984-2.016 1.152 0 2 .864 2 2.016 0 1.152-.848 2.016-2 2.016Zm7.356-7.136c.832 0 1.456-.608 1.456-1.44 0-.816-.624-1.424-1.456-1.424-.816 0-1.44.608-1.44 1.424 0 .832.624 1.44 1.44 1.44Zm-1.168 9.2h2.336v-8.16h-2.336V41Zm9.34-6.032V32.84h-2.096v-2.016h-2.336v2.016h-1.232v2.128h1.232v3.376c0 1.68.88 2.848 2.864 2.848.624 0 1.088-.112 1.568-.352v-2.192c-.304.16-.656.288-1.072.288-.688 0-1.024-.352-1.024-.976v-2.992h2.096Zm7.086-2.128-1.872 5.184-1.888-5.184h-2.672l3.264 8.016-.24.512c-.208.432-.528.608-.88.608s-.72-.16-.96-.4l-.896 1.824c.576.512 1.472.832 2.24.832 1.136 0 2.16-.736 2.624-1.92l3.888-9.472h-2.608Zm11.89-.192c-.992 0-1.84.368-2.464 1.008v-.816h-2.336v11.2h2.336v-3.856c.624.64 1.472 1.008 2.464 1.008 2.256 0 3.936-1.84 3.936-4.272 0-2.432-1.68-4.272-3.936-4.272Zm-.464 6.288c-1.152 0-2-.864-2-2.016 0-1.152.848-2.016 2-2.016 1.152 0 2 .864 2 2.016 0 1.152-.848 2.016-2 2.016Zm10.348-6.224c-.88 0-1.632.384-2.208 1.056v-.928h-2.336V41h2.336v-3.808c0-1.264.784-2.08 2.208-2.08h.352v-2.4h-.352Zm5.283 8.48c2.512 0 4.4-1.84 4.4-4.272 0-2.432-1.888-4.272-4.4-4.272-2.512 0-4.4 1.84-4.4 4.272 0 2.432 1.888 4.272 4.4 4.272Zm0-2.256c-1.152 0-2-.864-2-2.016 0-1.152.848-2.016 2-2.016 1.152 0 2 .864 2 2.016 0 1.152-.848 2.016-2 2.016Zm10.85-6.096-1.872 5.2-1.888-5.2h-2.672L526.61 41h2.4l3.312-8.16h-2.608Zm4.741-1.04c.832 0 1.456-.608 1.456-1.44 0-.816-.624-1.424-1.456-1.424-.816 0-1.44.608-1.44 1.424 0 .832.624 1.44 1.44 1.44Zm-1.168 9.2h2.336v-8.16h-2.336V41Zm10.14-11.52v4.176c-.624-.64-1.472-1.008-2.464-1.008-2.24 0-3.936 1.84-3.936 4.272 0 2.432 1.696 4.272 3.936 4.272.992 0 1.84-.368 2.464-1.008V41h2.336V29.48h-2.336Zm-2 9.456c-1.136 0-1.984-.864-1.984-2.016 0-1.152.848-2.016 1.984-2.016 1.152 0 2 .864 2 2.016 0 1.152-.848 2.016-2 2.016Zm7.357-7.136c.832 0 1.456-.608 1.456-1.44 0-.816-.624-1.424-1.456-1.424-.816 0-1.44.608-1.44 1.424 0 .832.624 1.44 1.44 1.44Zm-1.168 9.2h2.336v-8.16h-2.336V41Zm9.003-8.352c-1.008 0-1.84.352-2.48 1.008v-.816h-2.336V41h2.336v-4.432c0-1.008.688-1.664 1.68-1.664.96 0 1.584.64 1.584 1.632V41h2.336v-5.248c0-1.872-1.248-3.104-3.12-3.104Zm10.025 8.272H564.1c-.432 0-.736-.24-.736-.608 0-.24.128-.464.368-.624.384.112.784.16 1.2.16 2.208 0 3.872-1.536 3.872-3.6 0-.784-.24-1.472-.64-2.048.08-.304.384-.496.768-.496h.576v-2.16h-.688c-1.12 0-1.936.56-2.176 1.44a4.534 4.534 0 0 0-1.712-.336c-2.208 0-3.856 1.536-3.856 3.6 0 1.008.4 1.904 1.072 2.544-.688.416-1.12 1.248-1.12 2.112 0 1.36 1.04 2.272 2.624 2.272h2.544c.656 0 1.104.352 1.168.88l2.4-.656c-.304-1.568-1.472-2.48-3.12-2.48Zm-1.712-6.064c.832 0 1.472.592 1.472 1.392 0 .8-.64 1.392-1.472 1.392s-1.456-.592-1.456-1.392c0-.8.608-1.392 1.456-1.392ZM428.924 54.278h1.148v.098a.425.425 0 0 0-.112.182 2.804 2.804 0 0 0-.014.336v7.266h4.2V63h-5.222v-8.722Zm9.576 8.834a2.82 2.82 0 0 1-1.526-.42 2.86 2.86 0 0 1-1.05-1.176c-.252-.504-.378-1.078-.378-1.722 0-.644.126-1.218.378-1.722a2.86 2.86 0 0 1 1.05-1.176c.448-.29.957-.434 1.526-.434.569 0 1.078.145 1.526.434.448.28.798.672 1.05 1.176.252.504.378 1.078.378 1.722 0 .644-.126 1.218-.378 1.722a2.86 2.86 0 0 1-1.05 1.176 2.82 2.82 0 0 1-1.526.42Zm0-.84c.364 0 .686-.107.966-.322a2.09 2.09 0 0 0 .672-.882c.168-.383.252-.812.252-1.288 0-.728-.177-1.32-.532-1.778-.355-.467-.807-.7-1.358-.7s-1.003.233-1.358.7c-.355.457-.532 1.05-.532 1.778 0 .476.079.905.238 1.288.168.373.392.667.672.882.289.215.616.322.98.322Zm7.49.882a3.163 3.163 0 0 1-1.652-.434 3.128 3.128 0 0 1-1.148-1.19 3.63 3.63 0 0 1-.406-1.722c0-.635.135-1.204.406-1.708.28-.504.663-.9 1.148-1.19a3.136 3.136 0 0 1 1.638-.434c.513 0 .98.107 1.4.322.42.205.761.495 1.022.868l-.63.616-.098.098-.07-.07a.447.447 0 0 0-.056-.224.675.675 0 0 0-.21-.252 1.753 1.753 0 0 0-.644-.378 2.44 2.44 0 0 0-.826-.126c-.364 0-.705.103-1.022.308a2.11 2.11 0 0 0-.742.84c-.187.364-.28.784-.28 1.26s.093.905.28 1.288c.196.383.462.681.798.896a2.13 2.13 0 0 0 1.148.322c.644 0 1.199-.261 1.666-.784l.588.686c-.625.672-1.395 1.008-2.31 1.008Zm5.796-3.36-.84.784V63h-1.022v-9.31h1.148v.098a.425.425 0 0 0-.112.182 2.804 2.804 0 0 0-.014.336v5.236l3.206-2.968c.233.047.481.07.742.07h.364l-2.688 2.534L455.706 63l-1.302.056-2.618-3.262Zm8.022 3.346c-.952 0-1.713-.29-2.282-.868-.56-.579-.84-1.395-.84-2.45 0-.7.131-1.302.392-1.806.261-.513.611-.9 1.05-1.162a2.84 2.84 0 0 1 1.498-.406c.775 0 1.4.257 1.876.77.485.513.728 1.27.728 2.268 0 .103-.009.257-.028.462h-4.55c.037.784.257 1.377.658 1.778s.91.602 1.526.602c.672 0 1.223-.238 1.652-.714l.56.546c-.541.653-1.288.98-2.24.98Zm1.4-3.976c0-.597-.154-1.069-.462-1.414-.299-.355-.695-.532-1.19-.532-.467 0-.873.163-1.218.49-.345.327-.56.812-.644 1.456h3.514Zm5.068 3.976a2.38 2.38 0 0 1-1.288-.378c-.401-.261-.728-.649-.98-1.162-.252-.513-.378-1.134-.378-1.862 0-.737.131-1.353.392-1.848.261-.495.597-.859 1.008-1.092a2.521 2.521 0 0 1 1.302-.364c.429 0 .803.098 1.12.294.327.196.574.467.742.812v-3.85h1.064v.098a.425.425 0 0 0-.112.182 2.804 2.804 0 0 0-.014.336l.014 7.7c0 .224.005.41.014.56.019.14.061.285.126.434h-.994a1.643 1.643 0 0 1-.126-.434 9.534 9.534 0 0 1-.014-.56 2.374 2.374 0 0 1-.798.84 2.01 2.01 0 0 1-1.078.294Zm.154-.882c.579 0 1.003-.229 1.274-.686.271-.457.406-1.06.406-1.806 0-.756-.149-1.363-.448-1.82-.289-.457-.728-.686-1.316-.686-.56 0-.989.21-1.288.63-.299.41-.448.975-.448 1.694 0 .821.154 1.475.462 1.96.317.476.77.714 1.358.714Zm11.466.924 4.382-9.492.84.434-4.396 9.464-.826-.406Zm13.944-6.58h1.022v1.26c.14-.467.383-.817.728-1.05.345-.233.751-.35 1.218-.35.485 0 .929.126 1.33.378.411.243.737.611.98 1.106.243.495.364 1.097.364 1.806 0 .719-.126 1.34-.378 1.862-.252.513-.588.9-1.008 1.162a2.409 2.409 0 0 1-1.316.392c-.383 0-.742-.089-1.078-.266a2.256 2.256 0 0 1-.826-.742v3.178h-1.036v-8.736Zm2.772 5.67c.513 0 .943-.191 1.288-.574.355-.392.532-1.027.532-1.904 0-.793-.154-1.4-.462-1.82-.308-.43-.747-.644-1.316-.644-.532 0-.966.224-1.302.672-.327.439-.49 1.11-.49 2.016.019.737.182 1.297.49 1.68s.728.574 1.26.574Zm8.106-5.824c.681 0 1.246.233 1.694.7l-.448.784-.056.126-.098-.056a.84.84 0 0 0-.098-.238.683.683 0 0 0-.238-.21 1.476 1.476 0 0 0-.826-.238c-.336 0-.653.084-.952.252a1.878 1.878 0 0 0-.728.77c-.187.336-.28.76-.28 1.274v3.402h-1.022v-6.412h1.05l-.028 1.176c.177-.42.448-.747.812-.98.373-.233.779-.35 1.218-.35Zm5.782 6.664a2.82 2.82 0 0 1-1.526-.42 2.86 2.86 0 0 1-1.05-1.176c-.252-.504-.378-1.078-.378-1.722 0-.644.126-1.218.378-1.722a2.86 2.86 0 0 1 1.05-1.176c.448-.29.957-.434 1.526-.434.569 0 1.078.145 1.526.434.448.28.798.672 1.05 1.176.252.504.378 1.078.378 1.722 0 .644-.126 1.218-.378 1.722a2.86 2.86 0 0 1-1.05 1.176 2.82 2.82 0 0 1-1.526.42Zm0-.84c.364 0 .686-.107.966-.322a2.09 2.09 0 0 0 .672-.882c.168-.383.252-.812.252-1.288 0-.728-.177-1.32-.532-1.778-.355-.467-.807-.7-1.358-.7s-1.003.233-1.358.7c-.355.457-.532 1.05-.532 1.778 0 .476.079.905.238 1.288.168.373.392.667.672.882.289.215.616.322.98.322Zm9.716.14a3.33 3.33 0 0 1-2.03.686c-.709 0-1.213-.215-1.512-.644-.289-.43-.434-1.13-.434-2.1 0-.159.009-.434.028-.826l.126-2.1h-1.414v-.826h1.47l.098-1.708 1.12-.182.14-.014.014.084a3.196 3.196 0 0 0-.154.238.997.997 0 0 0-.056.308l-.154 1.274h2.128v.826h-2.184l-.126 2.17c-.019.373-.028.62-.028.742 0 .747.084 1.255.252 1.526.177.261.457.392.84.392.28 0 .537-.051.77-.154a4.22 4.22 0 0 0 .798-.49l.308.798Zm4.284.7a2.82 2.82 0 0 1-1.526-.42 2.86 2.86 0 0 1-1.05-1.176c-.252-.504-.378-1.078-.378-1.722 0-.644.126-1.218.378-1.722a2.86 2.86 0 0 1 1.05-1.176c.448-.29.957-.434 1.526-.434.569 0 1.078.145 1.526.434.448.28.798.672 1.05 1.176.252.504.378 1.078.378 1.722 0 .644-.126 1.218-.378 1.722a2.86 2.86 0 0 1-1.05 1.176 2.82 2.82 0 0 1-1.526.42Zm0-.84c.364 0 .686-.107.966-.322a2.09 2.09 0 0 0 .672-.882c.168-.383.252-.812.252-1.288 0-.728-.177-1.32-.532-1.778-.355-.467-.807-.7-1.358-.7s-1.003.233-1.358.7c-.355.457-.532 1.05-.532 1.778 0 .476.079.905.238 1.288.168.373.392.667.672.882.289.215.616.322.98.322Zm7.49.882a3.163 3.163 0 0 1-1.652-.434 3.128 3.128 0 0 1-1.148-1.19 3.63 3.63 0 0 1-.406-1.722c0-.635.135-1.204.406-1.708.28-.504.663-.9 1.148-1.19a3.136 3.136 0 0 1 1.638-.434c.513 0 .98.107 1.4.322.42.205.761.495 1.022.868l-.63.616-.098.098-.07-.07a.447.447 0 0 0-.056-.224.675.675 0 0 0-.21-.252 1.753 1.753 0 0 0-.644-.378 2.44 2.44 0 0 0-.826-.126c-.364 0-.705.103-1.022.308a2.11 2.11 0 0 0-.742.84c-.187.364-.28.784-.28 1.26s.093.905.28 1.288c.196.383.462.681.798.896a2.13 2.13 0 0 0 1.148.322c.644 0 1.199-.261 1.666-.784l.588.686c-.625.672-1.395 1.008-2.31 1.008Zm6.51-.042a2.82 2.82 0 0 1-1.526-.42 2.86 2.86 0 0 1-1.05-1.176c-.252-.504-.378-1.078-.378-1.722 0-.644.126-1.218.378-1.722a2.86 2.86 0 0 1 1.05-1.176c.448-.29.957-.434 1.526-.434.569 0 1.078.145 1.526.434.448.28.798.672 1.05 1.176.252.504.378 1.078.378 1.722 0 .644-.126 1.218-.378 1.722a2.86 2.86 0 0 1-1.05 1.176 2.82 2.82 0 0 1-1.526.42Zm0-.84c.364 0 .686-.107.966-.322a2.09 2.09 0 0 0 .672-.882c.168-.383.252-.812.252-1.288 0-.728-.177-1.32-.532-1.778-.355-.467-.807-.7-1.358-.7s-1.003.233-1.358.7c-.355.457-.532 1.05-.532 1.778 0 .476.079.905.238 1.288.168.373.392.667.672.882.289.215.616.322.98.322Zm4.606-.084h1.89v-7.686h-1.806v-.812h2.828v8.498h1.876V63h-4.788v-.812Zm16.394.924a2.82 2.82 0 0 1-1.526-.42 2.86 2.86 0 0 1-1.05-1.176c-.252-.504-.378-1.078-.378-1.722 0-.644.126-1.218.378-1.722a2.86 2.86 0 0 1 1.05-1.176c.448-.29.957-.434 1.526-.434.569 0 1.078.145 1.526.434.448.28.798.672 1.05 1.176.252.504.378 1.078.378 1.722 0 .644-.126 1.218-.378 1.722a2.86 2.86 0 0 1-1.05 1.176 2.82 2.82 0 0 1-1.526.42Zm0-.84c.364 0 .686-.107.966-.322a2.09 2.09 0 0 0 .672-.882c.168-.383.252-.812.252-1.288 0-.728-.177-1.32-.532-1.778-.355-.467-.807-.7-1.358-.7s-1.003.233-1.358.7c-.355.457-.532 1.05-.532 1.778 0 .476.079.905.238 1.288.168.373.392.667.672.882.289.215.616.322.98.322Zm3.724-5.67h.882l1.036 5.138 1.092-4.536h.616l1.358 4.522c.261-1.745.425-2.889.49-3.43.065-.55.098-1.045.098-1.484v-.21h.938a90.206 90.206 0 0 1-1.064 6.412h-.952l-1.176-4.144-1.12 4.144h-.91l-1.288-6.412Zm7.784 0h.98v1.134c.252-.392.569-.705.952-.938.383-.233.789-.35 1.218-.35.569 0 1.022.22 1.358.658.345.43.518 1.101.518 2.016V63h-.98v-3.85c0-.635-.107-1.097-.322-1.386a1.012 1.012 0 0 0-.854-.434c-.289 0-.583.084-.882.252a2.13 2.13 0 0 0-.728.714c-.187.299-.28.64-.28 1.022V63h-.98v-6.398Zm9.8 6.538c-.952 0-1.713-.29-2.282-.868-.56-.579-.84-1.395-.84-2.45 0-.7.131-1.302.392-1.806.261-.513.611-.9 1.05-1.162a2.84 2.84 0 0 1 1.498-.406c.775 0 1.4.257 1.876.77.485.513.728 1.27.728 2.268 0 .103-.009.257-.028.462h-4.55c.037.784.257 1.377.658 1.778s.91.602 1.526.602c.672 0 1.223-.238 1.652-.714l.56.546c-.541.653-1.288.98-2.24.98Zm1.4-3.976c0-.597-.154-1.069-.462-1.414-.299-.355-.695-.532-1.19-.532-.467 0-.873.163-1.218.49-.345.327-.56.812-.644 1.456h3.514Zm5.068 3.976a2.38 2.38 0 0 1-1.288-.378c-.401-.261-.728-.649-.98-1.162-.252-.513-.378-1.134-.378-1.862 0-.737.131-1.353.392-1.848.261-.495.597-.859 1.008-1.092a2.521 2.521 0 0 1 1.302-.364c.429 0 .803.098 1.12.294.327.196.574.467.742.812v-3.85h1.064v.098a.425.425 0 0 0-.112.182 2.804 2.804 0 0 0-.014.336l.014 7.7c0 .224.005.41.014.56.019.14.061.285.126.434h-.994a1.643 1.643 0 0 1-.126-.434 9.534 9.534 0 0 1-.014-.56 2.374 2.374 0 0 1-.798.84 2.01 2.01 0 0 1-1.078.294Zm.154-.882c.579 0 1.003-.229 1.274-.686.271-.457.406-1.06.406-1.806 0-.756-.149-1.363-.448-1.82-.289-.457-.728-.686-1.316-.686-.56 0-.989.21-1.288.63-.299.41-.448.975-.448 1.694 0 .821.154 1.475.462 1.96.317.476.77.714 1.358.714Z" fill="#A5B8D4"/><path d="M485.914 360.688c1.287-1.235 2.208-2.146 2.766-2.735.562-.588.989-1.135 1.281-1.641.297-.51.445-1.031.445-1.562 0-.422-.133-.755-.398-1-.266-.25-.623-.375-1.07-.375-.662 0-1.201.208-1.618.625a.968.968 0 0 0-.195.258.493.493 0 0 0-.055.219l.008.085-.109.149-.11-.086-1.187-.898c.385-.62.857-1.094 1.414-1.422.562-.334 1.19-.5 1.883-.5a3.38 3.38 0 0 1 1.601.375c.474.244.844.588 1.11 1.031.271.443.406.95.406 1.523 0 .568-.135 1.112-.406 1.633a7.217 7.217 0 0 1-1.055 1.516 47.885 47.885 0 0 1-1.914 2l-.641.633h3.258c.172 0 .297-.008.375-.024a.507.507 0 0 0 .219-.117h.18V362h-6.188v-1.312ZM497 351.844c.724 0 1.344.205 1.859.617.516.411.909 1.01 1.18 1.797.276.781.414 1.719.414 2.812 0 1.094-.138 2.034-.414 2.821-.271.781-.664 1.38-1.18 1.797-.515.411-1.135.617-1.859.617s-1.344-.206-1.859-.617c-.516-.417-.912-1.016-1.188-1.797-.271-.787-.406-1.727-.406-2.821 0-1.093.135-2.031.406-2.812.276-.787.672-1.386 1.188-1.797.515-.412 1.135-.617 1.859-.617Zm0 1.437c-.365 0-.677.151-.938.453-.26.297-.46.73-.601 1.297-.135.568-.203 1.248-.203 2.039 0 .407.021.805.062 1.196l3.086-3.664c-.146-.428-.338-.753-.578-.977a1.164 1.164 0 0 0-.828-.344Zm0 7.586c.365 0 .677-.151.938-.453.26-.302.458-.737.593-1.305.141-.567.211-1.247.211-2.039 0-.468-.023-.893-.07-1.273l-3.102 3.687c.146.448.339.792.578 1.032.245.234.529.351.852.351Zm6.195-4.64c-.354 0-.685-.094-.992-.282a2.112 2.112 0 0 1-.726-.789 2.376 2.376 0 0 1-.266-1.125c0-.396.088-.76.266-1.093.182-.334.424-.597.726-.79.307-.192.638-.289.992-.289.36 0 .69.099.993.297.302.193.541.456.718.789.183.334.274.701.274 1.102 0 .422-.086.799-.258 1.133a1.96 1.96 0 0 1-.711.773 1.932 1.932 0 0 1-1.016.274Zm4.141-4.196h1.148L502.773 362h-1.101l5.664-9.969Zm-4.18 3.188a.64.64 0 0 0 .586-.321c.136-.218.203-.502.203-.851 0-.344-.067-.625-.203-.844a.635.635 0 0 0-.586-.336.647.647 0 0 0-.586.336c-.13.219-.195.5-.195.844 0 .349.065.633.195.851a.654.654 0 0 0 .586.321Zm3.688 6.937c-.36 0-.69-.094-.992-.281a2.121 2.121 0 0 1-.727-.789 2.344 2.344 0 0 1-.266-1.117c0-.396.089-.761.266-1.094a2.1 2.1 0 0 1 .727-.797 1.83 1.83 0 0 1 .992-.289c.354 0 .682.099.984.297.307.193.55.458.727.797.177.333.265.7.265 1.101 0 .422-.086.797-.258 1.125a1.952 1.952 0 0 1-.71.774 1.89 1.89 0 0 1-1.008.273Zm-.039-1.008c.26 0 .455-.106.586-.32.135-.213.203-.495.203-.844 0-.343-.068-.627-.203-.851a.637.637 0 0 0-.586-.336.645.645 0 0 0-.586.336c-.13.224-.196.508-.196.851 0 .349.066.631.196.844a.64.64 0 0 0 .586.32ZM494.024 374.96H485.4v2.336h3.072V386h2.48v-8.704h3.072v-2.336Zm8.142 6.992c0-2.48-1.84-4.304-4.288-4.304-2.48 0-4.352 1.824-4.352 4.224 0 2.464 1.952 4.32 4.544 4.32 1.504 0 2.816-.608 3.68-1.584l-1.568-1.36c-.384.48-1.12.912-2.048.912-1.024 0-1.808-.56-2.096-1.472h6.08c.032-.208.048-.512.048-.736Zm-4.32-2.288c.88 0 1.584.56 1.84 1.472h-3.664c.24-.896.944-1.472 1.824-1.472Zm11.612-1.824v.816c-.624-.64-1.472-1.008-2.464-1.008-2.24 0-3.936 1.84-3.936 4.272 0 2.432 1.696 4.272 3.936 4.272.992 0 1.84-.368 2.464-1.008V386h2.336v-8.16h-2.336Zm-2 6.096c-1.136 0-1.984-.864-1.984-2.016 0-1.152.848-2.016 1.984-2.016 1.152 0 2 .864 2 2.016 0 1.152-.848 2.016-2 2.016Zm16.061-6.288c-1.136 0-2.064.432-2.72 1.264-.512-.8-1.392-1.264-2.496-1.264-.944 0-1.728.336-2.32.976v-.784h-2.336V386h2.336v-4.592c0-.896.624-1.504 1.52-1.504.864 0 1.424.592 1.424 1.472V386h2.336v-4.592c0-.896.624-1.504 1.52-1.504.864 0 1.424.592 1.424 1.472V386h2.336v-5.328c0-1.824-1.184-3.024-3.024-3.024ZM485.924 399.278h1.148v.098a.426.426 0 0 0-.112.182 2.797 2.797 0 0 0-.014.336v7.266h4.2v.84h-5.222v-8.722Zm9.576 8.834a2.82 2.82 0 0 1-1.526-.42 2.86 2.86 0 0 1-1.05-1.176c-.252-.504-.378-1.078-.378-1.722 0-.644.126-1.218.378-1.722a2.86 2.86 0 0 1 1.05-1.176 2.755 2.755 0 0 1 1.526-.434c.569 0 1.078.145 1.526.434.448.28.798.672 1.05 1.176.252.504.378 1.078.378 1.722 0 .644-.126 1.218-.378 1.722a2.86 2.86 0 0 1-1.05 1.176 2.82 2.82 0 0 1-1.526.42Zm0-.84c.364 0 .686-.107.966-.322.289-.215.513-.509.672-.882.168-.383.252-.812.252-1.288 0-.728-.177-1.321-.532-1.778-.355-.467-.807-.7-1.358-.7s-1.003.233-1.358.7c-.355.457-.532 1.05-.532 1.778 0 .476.079.905.238 1.288.168.373.392.667.672.882a1.6 1.6 0 0 0 .98.322Zm7.49.882a3.166 3.166 0 0 1-1.652-.434 3.126 3.126 0 0 1-1.148-1.19 3.629 3.629 0 0 1-.406-1.722c0-.635.135-1.204.406-1.708.28-.504.663-.901 1.148-1.19a3.139 3.139 0 0 1 1.638-.434c.513 0 .98.107 1.4.322.42.205.761.495 1.022.868l-.63.616-.098.098-.07-.07a.446.446 0 0 0-.056-.224.67.67 0 0 0-.21-.252 1.761 1.761 0 0 0-.644-.378 2.44 2.44 0 0 0-.826-.126c-.364 0-.705.103-1.022.308a2.11 2.11 0 0 0-.742.84c-.187.364-.28.784-.28 1.26s.093.905.28 1.288c.196.383.462.681.798.896.345.215.728.322 1.148.322.644 0 1.199-.261 1.666-.784l.588.686c-.625.672-1.395 1.008-2.31 1.008Zm5.796-3.36-.84.784V408h-1.022v-9.31h1.148v.098a.426.426 0 0 0-.112.182 2.797 2.797 0 0 0-.014.336v5.236l3.206-2.968c.233.047.481.07.742.07h.364l-2.688 2.534 3.136 3.822-1.302.056-2.618-3.262Zm8.022 3.346c-.952 0-1.713-.289-2.282-.868-.56-.579-.84-1.395-.84-2.45 0-.7.131-1.302.392-1.806.261-.513.611-.901 1.05-1.162a2.837 2.837 0 0 1 1.498-.406c.775 0 1.4.257 1.876.77.485.513.728 1.269.728 2.268 0 .103-.009.257-.028.462h-4.55c.037.784.257 1.377.658 1.778s.91.602 1.526.602c.672 0 1.223-.238 1.652-.714l.56.546c-.541.653-1.288.98-2.24.98Zm1.4-3.976c0-.597-.154-1.069-.462-1.414-.299-.355-.695-.532-1.19-.532-.467 0-.873.163-1.218.49-.345.327-.56.812-.644 1.456h3.514Zm5.068 3.976a2.38 2.38 0 0 1-1.288-.378c-.401-.261-.728-.649-.98-1.162-.252-.513-.378-1.134-.378-1.862 0-.737.131-1.353.392-1.848.261-.495.597-.859 1.008-1.092a2.518 2.518 0 0 1 1.302-.364c.429 0 .803.098 1.12.294.327.196.574.467.742.812v-3.85h1.064v.098a.426.426 0 0 0-.112.182 2.797 2.797 0 0 0-.014.336l.014 7.7c0 .224.005.411.014.56.019.14.061.285.126.434h-.994a1.64 1.64 0 0 1-.126-.434 9.527 9.527 0 0 1-.014-.56 2.369 2.369 0 0 1-.798.84 2.01 2.01 0 0 1-1.078.294Zm.154-.882c.579 0 1.003-.229 1.274-.686.271-.457.406-1.059.406-1.806 0-.756-.149-1.363-.448-1.82-.289-.457-.728-.686-1.316-.686-.56 0-.989.21-1.288.63-.299.411-.448.975-.448 1.694 0 .821.154 1.475.462 1.96.317.476.77.714 1.358.714Zm11.466.924 4.382-9.492.84.434-4.396 9.464-.826-.406Zm19.474-6.58c-.149.756-.462 1.689-.938 2.8L551.878 408h-.784l-2.534-6.398h1.008l1.974 5.012 1.036-2.366c.429-.971.709-1.853.84-2.646h.952Zm4.438 6.538c-.952 0-1.713-.289-2.282-.868-.56-.579-.84-1.395-.84-2.45 0-.7.131-1.302.392-1.806.261-.513.611-.901 1.05-1.162a2.837 2.837 0 0 1 1.498-.406c.775 0 1.4.257 1.876.77.485.513.728 1.269.728 2.268 0 .103-.009.257-.028.462h-4.55c.037.784.257 1.377.658 1.778s.91.602 1.526.602c.672 0 1.223-.238 1.652-.714l.56.546c-.541.653-1.288.98-2.24.98Zm1.4-3.976c0-.597-.154-1.069-.462-1.414-.299-.355-.695-.532-1.19-.532-.467 0-.873.163-1.218.49-.345.327-.56.812-.644 1.456h3.514Zm5.306 3.976c-1.083 0-1.988-.336-2.716-1.008l.56-.952.084-.126.084.056c0 .019.005.061.014.126a.919.919 0 0 0 .238.392c.215.215.457.383.728.504.28.112.625.168 1.036.168.504 0 .901-.089 1.19-.266.289-.187.434-.439.434-.756 0-.271-.117-.495-.35-.672-.233-.177-.653-.364-1.26-.56-1.605-.457-2.408-1.12-2.408-1.988 0-.495.201-.887.602-1.176.411-.289.994-.434 1.75-.434.579 0 1.064.084 1.456.252a3.05 3.05 0 0 1 1.092.756l-.574.7-.098.112-.07-.07a.617.617 0 0 0-.07-.252.664.664 0 0 0-.196-.224 2.254 2.254 0 0 0-.728-.378 2.326 2.326 0 0 0-.784-.14c-.401 0-.733.07-.994.21-.252.14-.378.336-.378.588 0 .233.131.448.392.644s.733.392 1.414.588c.803.243 1.367.509 1.694.798.336.28.504.649.504 1.106 0 .579-.229 1.059-.686 1.442-.448.373-1.101.56-1.96.56Zm9.702-.728a3.333 3.333 0 0 1-2.03.686c-.709 0-1.213-.215-1.512-.644-.289-.429-.434-1.129-.434-2.1 0-.159.009-.434.028-.826l.126-2.1h-1.414v-.826h1.47l.098-1.708 1.12-.182.14-.014.014.084a3.196 3.196 0 0 0-.154.238.995.995 0 0 0-.056.308l-.154 1.274h2.128v.826h-2.184l-.126 2.17a18.12 18.12 0 0 0-.028.742c0 .747.084 1.255.252 1.526.177.261.457.392.84.392.28 0 .537-.051.77-.154.233-.103.499-.266.798-.49l.308.798Zm4.592.728c-.952 0-1.713-.289-2.282-.868-.56-.579-.84-1.395-.84-2.45 0-.7.131-1.302.392-1.806.261-.513.611-.901 1.05-1.162a2.837 2.837 0 0 1 1.498-.406c.775 0 1.4.257 1.876.77.485.513.728 1.269.728 2.268 0 .103-.009.257-.028.462h-4.55c.037.784.257 1.377.658 1.778s.91.602 1.526.602c.672 0 1.223-.238 1.652-.714l.56.546c-.541.653-1.288.98-2.24.98Zm1.4-3.976c0-.597-.154-1.069-.462-1.414-.299-.355-.695-.532-1.19-.532-.467 0-.873.163-1.218.49-.345.327-.56.812-.644 1.456h3.514Zm5.068 3.976a2.38 2.38 0 0 1-1.288-.378c-.401-.261-.728-.649-.98-1.162-.252-.513-.378-1.134-.378-1.862 0-.737.131-1.353.392-1.848.261-.495.597-.859 1.008-1.092a2.518 2.518 0 0 1 1.302-.364c.429 0 .803.098 1.12.294.327.196.574.467.742.812v-3.85h1.064v.098a.426.426 0 0 0-.112.182 2.797 2.797 0 0 0-.014.336l.014 7.7c0 .224.005.411.014.56.019.14.061.285.126.434h-.994a1.64 1.64 0 0 1-.126-.434 9.527 9.527 0 0 1-.014-.56 2.369 2.369 0 0 1-.798.84 2.01 2.01 0 0 1-1.078.294Zm.154-.882c.579 0 1.003-.229 1.274-.686.271-.457.406-1.059.406-1.806 0-.756-.149-1.363-.448-1.82-.289-.457-.728-.686-1.316-.686-.56 0-.989.21-1.288.63-.299.411-.448.975-.448 1.694 0 .821.154 1.475.462 1.96.317.476.77.714 1.358.714Z" fill="#D4DFF0"/><path d="M256.062 466.305c-1.468 0-2.539-.631-3.21-1.891l1.328-1.016.117-.086.109.149a.727.727 0 0 0-.008.125c0 .141.066.292.196.453.166.214.362.38.586.5.224.12.497.18.82.18.307 0 .581-.073.82-.219.24-.151.43-.372.571-.664.14-.292.211-.648.211-1.07 0-.62-.141-1.102-.422-1.446-.282-.349-.654-.523-1.118-.523-.317 0-.598.078-.843.234-.245.151-.487.393-.727.727l-1.148-.492.367-5.235h5.359v1.524h-3.789l-.133 1.929a3.973 3.973 0 0 1 1.11-.172c.63 0 1.18.139 1.648.415a2.75 2.75 0 0 1 1.086 1.195c.255.521.383 1.14.383 1.859 0 .693-.135 1.305-.406 1.836a2.998 2.998 0 0 1-1.157 1.242c-.5.297-1.083.446-1.75.446Zm6.133-6.078c-.354 0-.685-.094-.992-.282a2.112 2.112 0 0 1-.726-.789 2.376 2.376 0 0 1-.266-1.125c0-.396.088-.76.266-1.093.182-.334.424-.597.726-.79.307-.192.638-.289.992-.289.36 0 .69.099.993.297.302.193.541.456.718.789.183.334.274.701.274 1.102 0 .422-.086.799-.258 1.133a1.96 1.96 0 0 1-.711.773 1.932 1.932 0 0 1-1.016.274Zm4.141-4.196h1.148L261.773 466h-1.101l5.664-9.969Zm-4.18 3.188a.64.64 0 0 0 .586-.321c.136-.218.203-.502.203-.851 0-.344-.067-.625-.203-.844a.635.635 0 0 0-.586-.336.647.647 0 0 0-.586.336c-.13.219-.195.5-.195.844 0 .349.065.633.195.851a.654.654 0 0 0 .586.321Zm3.688 6.937c-.36 0-.69-.094-.992-.281a2.121 2.121 0 0 1-.727-.789 2.344 2.344 0 0 1-.266-1.117c0-.396.089-.761.266-1.094a2.1 2.1 0 0 1 .727-.797 1.83 1.83 0 0 1 .992-.289c.354 0 .682.099.984.297.307.193.55.458.727.797.177.333.265.7.265 1.101 0 .422-.086.797-.258 1.125a1.952 1.952 0 0 1-.71.774 1.89 1.89 0 0 1-1.008.273Zm-.039-1.008c.26 0 .455-.106.586-.32.135-.213.203-.495.203-.844 0-.343-.068-.627-.203-.851a.637.637 0 0 0-.586-.336.645.645 0 0 0-.586.336c-.13.224-.196.508-.196.851 0 .349.066.631.196.844a.64.64 0 0 0 .586.32ZM261.968 478.96l-2.928 5.456-2.912-5.456h-3.072V490h2.48v-7.088l2.784 5.232h1.408l2.784-5.232V490h2.48v-11.04h-3.024Zm10.959 2.88v.816c-.624-.64-1.472-1.008-2.464-1.008-2.24 0-3.936 1.84-3.936 4.272 0 2.432 1.696 4.272 3.936 4.272.992 0 1.84-.368 2.464-1.008V490h2.336v-8.16h-2.336Zm-2 6.096c-1.136 0-1.984-.864-1.984-2.016 0-1.152.848-2.016 1.984-2.016 1.152 0 2 .864 2 2.016 0 1.152-.848 2.016-2 2.016Zm10.733-6.224c-.88 0-1.632.384-2.208 1.056v-.928h-2.336V490h2.336v-3.808c0-1.264.784-2.08 2.208-2.08h.352v-2.4h-.352Zm6.575 8.288h3.072l-3.568-4.4 3.456-3.76h-3.024l-2.688 3.04v-6.4h-2.336V490h2.336v-1.968l.608-.656 2.144 2.624Zm11.416-4.048c0-2.48-1.84-4.304-4.288-4.304-2.48 0-4.352 1.824-4.352 4.224 0 2.464 1.952 4.32 4.544 4.32 1.504 0 2.816-.608 3.68-1.584l-1.568-1.36c-.384.48-1.12.912-2.048.912-1.024 0-1.808-.56-2.096-1.472h6.079c.033-.208.049-.512.049-.736Zm-4.32-2.288c.88 0 1.584.56 1.84 1.472h-3.664c.24-.896.944-1.472 1.824-1.472Zm10.515.304v-2.128h-2.096v-2.016h-2.336v2.016h-1.232v2.128h1.232v3.376c0 1.68.88 2.848 2.864 2.848.624 0 1.088-.112 1.568-.352v-2.192c-.304.16-.656.288-1.072.288-.688 0-1.024-.352-1.024-.976v-2.992h2.096Zm2.609-3.168c.832 0 1.456-.608 1.456-1.44 0-.816-.624-1.424-1.456-1.424-.816 0-1.44.608-1.44 1.424 0 .832.624 1.44 1.44 1.44Zm-1.168 9.2h2.336v-8.16h-2.336V490Zm9.004-8.352c-1.008 0-1.84.352-2.48 1.008v-.816h-2.336V490h2.336v-4.432c0-1.008.688-1.664 1.68-1.664.96 0 1.584.64 1.584 1.632V490h2.336v-5.248c0-1.872-1.248-3.104-3.12-3.104Zm10.025 8.272h-2.544c-.432 0-.736-.24-.736-.608 0-.24.128-.464.368-.624.384.112.784.16 1.2.16 2.208 0 3.872-1.536 3.872-3.6 0-.784-.24-1.472-.64-2.048.08-.304.384-.496.768-.496h.576v-2.16h-.688c-1.12 0-1.936.56-2.176 1.44a4.534 4.534 0 0 0-1.712-.336c-2.208 0-3.856 1.536-3.856 3.6 0 1.008.4 1.904 1.072 2.544-.688.416-1.12 1.248-1.12 2.112 0 1.36 1.04 2.272 2.624 2.272h2.544c.656 0 1.104.352 1.168.88l2.4-.656c-.304-1.568-1.472-2.48-3.12-2.48Zm-1.712-6.064c.832 0 1.472.592 1.472 1.392 0 .8-.64 1.392-1.472 1.392s-1.456-.592-1.456-1.392c0-.8.608-1.392 1.456-1.392ZM343.518 490l-1.792-2c.656-.848 1.12-1.872 1.408-2.896l-2.032-.608a7.417 7.417 0 0 1-.848 1.872l-2.112-2.352c1.136-.656 2.112-1.424 2.112-2.688 0-1.488-1.344-2.56-3.056-2.56s-3.024 1.088-3.024 2.576c0 .752.32 1.52.816 2.256-.992.64-1.824 1.52-1.824 3.008 0 2.128 1.712 3.584 4.208 3.584 1.008 0 1.936-.24 2.704-.816l.56.624h2.88Zm-6.32-9.408c.464 0 .848.288.848.752 0 .496-.48.864-1.136 1.232-.336-.448-.56-.864-.56-1.216 0-.496.4-.768.848-.768Zm.256 7.488c-1.136 0-1.952-.688-1.952-1.616 0-.544.288-.96.752-1.328l2.416 2.672a2.874 2.874 0 0 1-1.216.272Zm15.024-6.432c-.992 0-1.84.368-2.464 1.008v-.816h-2.336v11.2h2.336v-3.856c.624.64 1.472 1.008 2.464 1.008 2.256 0 3.936-1.84 3.936-4.272 0-2.432-1.68-4.272-3.936-4.272Zm-.464 6.288c-1.152 0-2-.864-2-2.016 0-1.152.848-2.016 2-2.016 1.152 0 2 .864 2 2.016 0 1.152-.848 2.016-2 2.016Zm11.757-6.096v.816c-.624-.64-1.472-1.008-2.464-1.008-2.24 0-3.936 1.84-3.936 4.272 0 2.432 1.696 4.272 3.936 4.272.992 0 1.84-.368 2.464-1.008V490h2.336v-8.16h-2.336Zm-2 6.096c-1.136 0-1.984-.864-1.984-2.016 0-1.152.848-2.016 1.984-2.016 1.152 0 2 .864 2 2.016 0 1.152-.848 2.016-2 2.016Zm10.732-6.224c-.88 0-1.632.384-2.208 1.056v-.928h-2.336V490h2.336v-3.808c0-1.264.784-2.08 2.208-2.08h.352v-2.4h-.352Zm6.796 2.256v-2.128h-2.096v-2.016h-2.336v2.016h-1.232v2.128h1.232v3.376c0 1.68.88 2.848 2.864 2.848.624 0 1.088-.112 1.568-.352v-2.192c-.304.16-.656.288-1.072.288-.688 0-1.024-.352-1.024-.976v-2.992h2.096Zm6.258-2.32c-1.008 0-1.84.352-2.48 1.008v-.816h-2.336V490h2.336v-4.432c0-1.008.688-1.664 1.68-1.664.96 0 1.584.64 1.584 1.632V490h2.336v-5.248c0-1.872-1.248-3.104-3.12-3.104Zm12.984 4.304c0-2.48-1.84-4.304-4.288-4.304-2.48 0-4.352 1.824-4.352 4.224 0 2.464 1.952 4.32 4.544 4.32 1.504 0 2.816-.608 3.68-1.584l-1.568-1.36c-.384.48-1.12.912-2.048.912-1.024 0-1.808-.56-2.096-1.472h6.08c.032-.208.048-.512.048-.736Zm-4.32-2.288c.88 0 1.584.56 1.84 1.472h-3.664c.24-.896.944-1.472 1.824-1.472Zm10.204-1.952c-.88 0-1.632.384-2.208 1.056v-.928h-2.336V490h2.336v-3.808c0-1.264.784-2.08 2.208-2.08h.352v-2.4h-.352Zm4.383 8.48c1.984 0 3.552-.944 3.552-2.736 0-1.904-1.728-2.304-3.008-2.576-.832-.176-1.456-.32-1.456-.784 0-.416.512-.592 1.136-.592.8 0 1.472.304 2.08.72l1.088-1.504c-.768-.56-1.808-1.072-3.248-1.072-1.856 0-3.392.864-3.392 2.624 0 1.92 1.712 2.304 3.008 2.592.832.192 1.456.352 1.456.816 0 .432-.528.656-1.296.656-.944 0-1.712-.352-2.336-.88l-1.088 1.504c.8.656 1.952 1.232 3.504 1.232Zm9.639-8.544c-1.008 0-1.84.368-2.48 1.056v-4.224h-2.336V490h2.336v-4.432c0-1.008.688-1.664 1.696-1.664.944 0 1.568.64 1.568 1.632V490h2.336v-5.248c0-1.872-1.248-3.104-3.12-3.104Zm5.993-.848c.832 0 1.456-.608 1.456-1.44 0-.816-.624-1.424-1.456-1.424-.816 0-1.44.608-1.44 1.424 0 .832.624 1.44 1.44 1.44Zm-1.168 9.2h2.336v-8.16h-2.336V490Zm8.987-8.352c-.992 0-1.84.368-2.464 1.008v-.816h-2.336v11.2h2.336v-3.856c.624.64 1.472 1.008 2.464 1.008 2.256 0 3.936-1.84 3.936-4.272 0-2.432-1.68-4.272-3.936-4.272Zm-.464 6.288c-1.152 0-2-.864-2-2.016 0-1.152.848-2.016 2-2.016 1.152 0 2 .864 2 2.016 0 1.152-.848 2.016-2 2.016Zm8.685 2.256c1.984 0 3.552-.944 3.552-2.736 0-1.904-1.728-2.304-3.008-2.576-.832-.176-1.456-.32-1.456-.784 0-.416.512-.592 1.136-.592.8 0 1.472.304 2.08.72l1.088-1.504c-.768-.56-1.808-1.072-3.248-1.072-1.856 0-3.392.864-3.392 2.624 0 1.92 1.712 2.304 3.008 2.592.832.192 1.456.352 1.456.816 0 .432-.528.656-1.296.656-.944 0-1.712-.352-2.336-.88l-1.088 1.504c.8.656 1.952 1.232 3.504 1.232ZM255.514 512.154c-.924 0-1.624-.275-2.1-.826-.476-.551-.714-1.33-.714-2.338v-5.712h1.092v.098a.426.426 0 0 0-.112.182 2.797 2.797 0 0 0-.014.336v5.11c0 .747.145 1.321.434 1.722.289.401.765.602 1.428.602.672 0 1.153-.201 1.442-.602.299-.401.448-.989.448-1.764v-5.684h.938v5.67c0 1.073-.252 1.876-.756 2.408-.495.532-1.19.798-2.086.798Zm4.494-6.552h.98v1.134a2.94 2.94 0 0 1 .952-.938c.383-.233.789-.35 1.218-.35.569 0 1.022.219 1.358.658.345.429.518 1.101.518 2.016V512h-.98v-3.85c0-.635-.107-1.097-.322-1.386a1.013 1.013 0 0 0-.854-.434c-.289 0-.583.084-.882.252a2.13 2.13 0 0 0-.728.714c-.187.299-.28.639-.28 1.022V512h-.98v-6.398Zm7.098 5.586h1.89v-7.686h-1.806v-.812h2.828v8.498h1.876V512h-4.788v-.812Zm9.394.924a2.82 2.82 0 0 1-1.526-.42 2.86 2.86 0 0 1-1.05-1.176c-.252-.504-.378-1.078-.378-1.722 0-.644.126-1.218.378-1.722a2.86 2.86 0 0 1 1.05-1.176 2.755 2.755 0 0 1 1.526-.434c.569 0 1.078.145 1.526.434.448.28.798.672 1.05 1.176.252.504.378 1.078.378 1.722 0 .644-.126 1.218-.378 1.722a2.86 2.86 0 0 1-1.05 1.176 2.82 2.82 0 0 1-1.526.42Zm0-.84c.364 0 .686-.107.966-.322.289-.215.513-.509.672-.882.168-.383.252-.812.252-1.288 0-.728-.177-1.321-.532-1.778-.355-.467-.807-.7-1.358-.7s-1.003.233-1.358.7c-.355.457-.532 1.05-.532 1.778 0 .476.079.905.238 1.288.168.373.392.667.672.882a1.6 1.6 0 0 0 .98.322Zm7.49.882a3.166 3.166 0 0 1-1.652-.434 3.126 3.126 0 0 1-1.148-1.19 3.629 3.629 0 0 1-.406-1.722c0-.635.135-1.204.406-1.708.28-.504.663-.901 1.148-1.19a3.139 3.139 0 0 1 1.638-.434c.513 0 .98.107 1.4.322.42.205.761.495 1.022.868l-.63.616-.098.098-.07-.07a.446.446 0 0 0-.056-.224.67.67 0 0 0-.21-.252 1.761 1.761 0 0 0-.644-.378 2.44 2.44 0 0 0-.826-.126c-.364 0-.705.103-1.022.308a2.11 2.11 0 0 0-.742.84c-.187.364-.28.784-.28 1.26s.093.905.28 1.288c.196.383.462.681.798.896.345.215.728.322 1.148.322.644 0 1.199-.261 1.666-.784l.588.686c-.625.672-1.395 1.008-2.31 1.008Zm5.796-3.36-.84.784V512h-1.022v-9.31h1.148v.098a.426.426 0 0 0-.112.182 2.797 2.797 0 0 0-.014.336v5.236l3.206-2.968c.233.047.481.07.742.07h.364l-2.688 2.534 3.136 3.822-1.302.056-2.618-3.262Zm8.022 3.346c-.952 0-1.713-.289-2.282-.868-.56-.579-.84-1.395-.84-2.45 0-.7.131-1.302.392-1.806.261-.513.611-.901 1.05-1.162a2.837 2.837 0 0 1 1.498-.406c.775 0 1.4.257 1.876.77.485.513.728 1.269.728 2.268 0 .103-.009.257-.028.462h-4.55c.037.784.257 1.377.658 1.778s.91.602 1.526.602c.672 0 1.223-.238 1.652-.714l.56.546c-.541.653-1.288.98-2.24.98Zm1.4-3.976c0-.597-.154-1.069-.462-1.414-.299-.355-.695-.532-1.19-.532-.467 0-.873.163-1.218.49-.345.327-.56.812-.644 1.456h3.514Zm5.068 3.976a2.38 2.38 0 0 1-1.288-.378c-.401-.261-.728-.649-.98-1.162-.252-.513-.378-1.134-.378-1.862 0-.737.131-1.353.392-1.848.261-.495.597-.859 1.008-1.092a2.518 2.518 0 0 1 1.302-.364c.429 0 .803.098 1.12.294.327.196.574.467.742.812v-3.85h1.064v.098a.426.426 0 0 0-.112.182 2.797 2.797 0 0 0-.014.336l.014 7.7c0 .224.005.411.014.56.019.14.061.285.126.434h-.994a1.64 1.64 0 0 1-.126-.434 9.527 9.527 0 0 1-.014-.56 2.369 2.369 0 0 1-.798.84 2.01 2.01 0 0 1-1.078.294Zm.154-.882c.579 0 1.003-.229 1.274-.686.271-.457.406-1.059.406-1.806 0-.756-.149-1.363-.448-1.82-.289-.457-.728-.686-1.316-.686-.56 0-.989.21-1.288.63-.299.411-.448.975-.448 1.694 0 .821.154 1.475.462 1.96.317.476.77.714 1.358.714ZM356.687 390.026a174.99 174.99 0 0 1-54.078 8.565v-175l54.078 166.435Z" fill="#fff"/><path d="M477.609 223.591a174.995 174.995 0 0 1-120.922 166.435l-54.078-166.435h175Z" fill="#D4DFF0"/><path d="M302.609 48.59a175.001 175.001 0 0 1 175 175.001h-175v-175Z" fill="#A5B8D4"/><path d="M302.609 48.59a174.998 174.998 0 0 0-175 175.001c0 22.981 4.527 45.738 13.321 66.97a175.015 175.015 0 0 0 94.71 94.709 175.009 175.009 0 0 0 66.969 13.321v-350Z" fill="#E93C3C"/><path d="M188.984 145.711 118.274 75" stroke="#E93C3C"/><path stroke="#28374D" d="m189.498 146.064-27.578-27.577"/><path d="m414.707 145.985 70.711-70.711" stroke="#A5B8D4"/><path stroke="#28374D" d="m414.354 146.498 27.577-27.578"/><path d="m404.433 313.707 70.711 70.711" stroke="#D4DFF0"/><path stroke="#28374D" d="m403.92 313.354 27.578 27.577"/><path d="m321.622 358.827 16.147 98.688" stroke="#fff"/><path stroke="#28374D" d="m321.412 358.24 6.297 38.489"/></svg>