<svg width="516" height="579" viewBox="0 0 516 579" fill="none" xmlns="http://www.w3.org/2000/svg">
<path d="M414.681 455.712C381.376 479.931 341.258 492.983 300.078 493C258.898 493.017 218.77 479.996 185.445 455.804L300 298L414.681 455.712Z" fill="#243952"/>
<path d="M300 103C341.18 103 381.303 116.037 414.618 140.242C447.933 164.447 472.731 198.577 485.456 237.741C498.181 276.906 498.181 319.094 485.456 358.258C472.731 397.422 447.934 431.553 414.618 455.758L300 298L300 103Z" fill="#E93C3C"/>
<path d="M351.527 236.309H345.82V234.621L352.301 225.047H354.234V234.07H356.227V236.332H354.234V240H351.527V236.309ZM351.621 234.141V229.676L348.598 234.141H351.621ZM363 224.766C364.086 224.766 365.016 225.074 365.789 225.691C366.562 226.309 367.152 227.207 367.559 228.387C367.973 229.559 368.18 230.965 368.18 232.605C368.18 234.246 367.973 235.656 367.559 236.836C367.152 238.008 366.562 238.906 365.789 239.531C365.016 240.148 364.086 240.457 363 240.457C361.914 240.457 360.984 240.148 360.211 239.531C359.438 238.906 358.844 238.008 358.43 236.836C358.023 235.656 357.82 234.246 357.82 232.605C357.82 230.965 358.023 229.559 358.43 228.387C358.844 227.207 359.438 226.309 360.211 225.691C360.984 225.074 361.914 224.766 363 224.766ZM363 226.922C362.453 226.922 361.984 227.148 361.594 227.602C361.203 228.047 360.902 228.695 360.691 229.547C360.488 230.398 360.387 231.418 360.387 232.605C360.387 233.215 360.418 233.812 360.48 234.398L365.109 228.902C364.891 228.262 364.602 227.773 364.242 227.438C363.883 227.094 363.469 226.922 363 226.922ZM363 238.301C363.547 238.301 364.016 238.074 364.406 237.621C364.797 237.168 365.094 236.516 365.297 235.664C365.508 234.812 365.613 233.793 365.613 232.605C365.613 231.902 365.578 231.266 365.508 230.695L360.855 236.227C361.074 236.898 361.363 237.414 361.723 237.773C362.09 238.125 362.516 238.301 363 238.301ZM372.293 231.34C371.762 231.34 371.266 231.199 370.805 230.918C370.352 230.629 369.988 230.234 369.715 229.734C369.449 229.227 369.316 228.664 369.316 228.047C369.316 227.453 369.449 226.906 369.715 226.406C369.988 225.906 370.352 225.512 370.805 225.223C371.266 224.934 371.762 224.789 372.293 224.789C372.832 224.789 373.328 224.938 373.781 225.234C374.234 225.523 374.594 225.918 374.859 226.418C375.133 226.918 375.27 227.469 375.27 228.07C375.27 228.703 375.141 229.27 374.883 229.77C374.625 230.262 374.27 230.648 373.816 230.93C373.363 231.203 372.855 231.34 372.293 231.34ZM378.504 225.047H380.227L371.66 240H370.008L378.504 225.047ZM372.234 229.828C372.625 229.828 372.918 229.668 373.113 229.348C373.316 229.02 373.418 228.594 373.418 228.07C373.418 227.555 373.316 227.133 373.113 226.805C372.918 226.469 372.625 226.301 372.234 226.301C371.852 226.301 371.559 226.469 371.355 226.805C371.16 227.133 371.062 227.555 371.062 228.07C371.062 228.594 371.16 229.02 371.355 229.348C371.559 229.668 371.852 229.828 372.234 229.828ZM377.766 240.234C377.227 240.234 376.73 240.094 376.277 239.812C375.824 239.523 375.461 239.129 375.188 238.629C374.922 238.129 374.789 237.57 374.789 236.953C374.789 236.359 374.922 235.812 375.188 235.312C375.461 234.805 375.824 234.406 376.277 234.117C376.738 233.828 377.234 233.684 377.766 233.684C378.297 233.684 378.789 233.832 379.242 234.129C379.703 234.418 380.066 234.816 380.332 235.324C380.598 235.824 380.73 236.375 380.73 236.977C380.73 237.609 380.602 238.172 380.344 238.664C380.086 239.156 379.73 239.543 379.277 239.824C378.832 240.098 378.328 240.234 377.766 240.234ZM377.707 238.723C378.098 238.723 378.391 238.562 378.586 238.242C378.789 237.922 378.891 237.5 378.891 236.977C378.891 236.461 378.789 236.035 378.586 235.699C378.391 235.363 378.098 235.195 377.707 235.195C377.324 235.195 377.031 235.363 376.828 235.699C376.633 236.035 376.535 236.461 376.535 236.977C376.535 237.5 376.633 237.922 376.828 238.242C377.023 238.562 377.316 238.723 377.707 238.723Z" fill="white"/>
<path d="M354.342 259.208V256.58H346.188V269H348.978V264.194H353.64V261.566H348.978V259.208H354.342ZM362.092 259.82V260.738C361.39 260.018 360.436 259.604 359.32 259.604C356.8 259.604 354.892 261.674 354.892 264.41C354.892 267.146 356.8 269.216 359.32 269.216C360.436 269.216 361.39 268.802 362.092 268.082V269H364.72V259.82H362.092ZM359.842 266.678C358.564 266.678 357.61 265.706 357.61 264.41C357.61 263.114 358.564 262.142 359.842 262.142C361.138 262.142 362.092 263.114 362.092 264.41C362.092 265.706 361.138 266.678 359.842 266.678ZM368.118 258.65C369.054 258.65 369.756 257.966 369.756 257.03C369.756 256.112 369.054 255.428 368.118 255.428C367.2 255.428 366.498 256.112 366.498 257.03C366.498 257.966 367.2 258.65 368.118 258.65ZM366.804 269H369.432V259.82H366.804V269ZM376.627 259.676C375.637 259.676 374.791 260.108 374.143 260.864V259.82H371.515V269H374.143V264.716C374.143 263.294 375.025 262.376 376.627 262.376H377.023V259.676H376.627ZM382.255 269H384.883V256.04H382.255V269ZM393.662 259.82V260.738C392.96 260.018 392.006 259.604 390.89 259.604C388.37 259.604 386.462 261.674 386.462 264.41C386.462 267.146 388.37 269.216 390.89 269.216C392.006 269.216 392.96 268.802 393.662 268.082V269H396.29V259.82H393.662ZM391.412 266.678C390.134 266.678 389.18 265.706 389.18 264.41C389.18 263.114 390.134 262.142 391.412 262.142C392.708 262.142 393.662 263.114 393.662 264.41C393.662 265.706 392.708 266.678 391.412 266.678ZM402.55 269.216C405.178 269.216 406.888 267.668 406.888 265.328V259.82H404.26V264.968C404.26 265.994 403.576 266.678 402.55 266.678C401.524 266.678 400.84 265.994 400.84 264.968V259.82H398.212V265.328C398.212 267.668 399.94 269.216 402.55 269.216ZM414.251 259.604C413.117 259.604 412.181 260 411.461 260.738V259.82H408.833V269H411.461V264.014C411.461 262.88 412.235 262.142 413.351 262.142C414.431 262.142 415.133 262.862 415.133 263.978V269H417.761V263.096C417.761 260.99 416.357 259.604 414.251 259.604ZM424.089 269.216C425.943 269.216 427.491 268.334 428.337 266.93L426.051 265.544C425.673 266.228 424.953 266.678 424.089 266.678C422.793 266.678 421.839 265.706 421.839 264.41C421.839 263.114 422.793 262.142 424.089 262.142C424.953 262.142 425.673 262.592 426.051 263.276L428.337 261.89C427.491 260.486 425.943 259.604 424.089 259.604C421.263 259.604 419.139 261.674 419.139 264.41C419.139 267.146 421.263 269.216 424.089 269.216ZM435.046 259.604C433.912 259.604 432.976 260.018 432.256 260.792V256.04H429.628V269H432.256V264.014C432.256 262.88 433.03 262.142 434.164 262.142C435.226 262.142 435.928 262.862 435.928 263.978V269H438.556V263.096C438.556 260.99 437.152 259.604 435.046 259.604ZM450.225 262.214V259.82H447.867V257.552H445.239V259.82H443.853V262.214H445.239V266.012C445.239 267.902 446.229 269.216 448.461 269.216C449.163 269.216 449.685 269.09 450.225 268.82V266.354C449.883 266.534 449.487 266.678 449.019 266.678C448.245 266.678 447.867 266.282 447.867 265.58V262.214H450.225ZM456.028 269.216C458.854 269.216 460.978 267.146 460.978 264.41C460.978 261.674 458.854 259.604 456.028 259.604C453.202 259.604 451.078 261.674 451.078 264.41C451.078 267.146 453.202 269.216 456.028 269.216ZM456.028 266.678C454.732 266.678 453.778 265.706 453.778 264.41C453.778 263.114 454.732 262.142 456.028 262.142C457.324 262.142 458.278 263.114 458.278 264.41C458.278 265.706 457.324 266.678 456.028 266.678ZM351.444 286.604C350.328 286.604 349.374 287.018 348.672 287.738V283.04H346.044V296H348.672V295.082C349.374 295.802 350.328 296.216 351.444 296.216C353.982 296.216 355.872 294.146 355.872 291.41C355.872 288.674 353.982 286.604 351.444 286.604ZM350.922 293.678C349.626 293.678 348.672 292.706 348.672 291.41C348.672 290.114 349.626 289.142 350.922 289.142C352.218 289.142 353.172 290.114 353.172 291.41C353.172 292.706 352.218 293.678 350.922 293.678ZM361.628 296.216C364.256 296.216 365.966 294.668 365.966 292.328V286.82H363.338V291.968C363.338 292.994 362.654 293.678 361.628 293.678C360.602 293.678 359.918 292.994 359.918 291.968V286.82H357.29V292.328C357.29 294.668 359.018 296.216 361.628 296.216ZM369.225 285.65C370.161 285.65 370.863 284.966 370.863 284.03C370.863 283.112 370.161 282.428 369.225 282.428C368.307 282.428 367.605 283.112 367.605 284.03C367.605 284.966 368.307 285.65 369.225 285.65ZM367.911 296H370.539V286.82H367.911V296ZM372.622 296H375.25V283.04H372.622V296ZM384.029 283.04V287.738C383.327 287.018 382.373 286.604 381.257 286.604C378.737 286.604 376.829 288.674 376.829 291.41C376.829 294.146 378.737 296.216 381.257 296.216C382.373 296.216 383.327 295.802 384.029 295.082V296H386.657V283.04H384.029ZM381.779 293.678C380.501 293.678 379.547 292.706 379.547 291.41C379.547 290.114 380.501 289.142 381.779 289.142C383.075 289.142 384.029 290.114 384.029 291.41C384.029 292.706 383.075 293.678 381.779 293.678ZM398.492 289.214V286.82H396.134V284.552H393.506V286.82H392.12V289.214H393.506V293.012C393.506 294.902 394.496 296.216 396.728 296.216C397.43 296.216 397.952 296.09 398.492 295.82V293.354C398.15 293.534 397.754 293.678 397.286 293.678C396.512 293.678 396.134 293.282 396.134 292.58V289.214H398.492ZM405.226 286.676C404.236 286.676 403.39 287.108 402.742 287.864V286.82H400.114V296H402.742V291.716C402.742 290.294 403.624 289.376 405.226 289.376H405.622V286.676H405.226ZM415.939 291.446C415.939 288.656 413.869 286.604 411.115 286.604C408.325 286.604 406.219 288.656 406.219 291.356C406.219 294.128 408.415 296.216 411.331 296.216C413.023 296.216 414.499 295.532 415.471 294.434L413.707 292.904C413.275 293.444 412.447 293.93 411.403 293.93C410.251 293.93 409.369 293.3 409.045 292.274H415.885C415.921 292.04 415.939 291.698 415.939 291.446ZM411.079 288.872C412.069 288.872 412.861 289.502 413.149 290.528H409.027C409.297 289.52 410.089 288.872 411.079 288.872ZM424.142 286.82V287.738C423.44 287.018 422.486 286.604 421.37 286.604C418.85 286.604 416.942 288.674 416.942 291.41C416.942 294.146 418.85 296.216 421.37 296.216C422.486 296.216 423.44 295.802 424.142 295.082V296H426.77V286.82H424.142ZM421.892 293.678C420.614 293.678 419.66 292.706 419.66 291.41C419.66 290.114 420.614 289.142 421.892 289.142C423.188 289.142 424.142 290.114 424.142 291.41C424.142 292.706 423.188 293.678 421.892 293.678ZM432.095 296.216C434.327 296.216 436.091 295.154 436.091 293.138C436.091 290.996 434.147 290.546 432.707 290.24C431.771 290.042 431.069 289.88 431.069 289.358C431.069 288.89 431.645 288.692 432.347 288.692C433.247 288.692 434.003 289.034 434.687 289.502L435.911 287.81C435.047 287.18 433.877 286.604 432.257 286.604C430.169 286.604 428.441 287.576 428.441 289.556C428.441 291.716 430.367 292.148 431.825 292.472C432.761 292.688 433.463 292.868 433.463 293.39C433.463 293.876 432.869 294.128 432.005 294.128C430.943 294.128 430.079 293.732 429.377 293.138L428.153 294.83C429.053 295.568 430.349 296.216 432.095 296.216ZM441.697 296.216C444.325 296.216 446.035 294.668 446.035 292.328V286.82H443.407V291.968C443.407 292.994 442.723 293.678 441.697 293.678C440.671 293.678 439.987 292.994 439.987 291.968V286.82H437.359V292.328C437.359 294.668 439.087 296.216 441.697 296.216ZM453.092 286.676C452.102 286.676 451.256 287.108 450.608 287.864V286.82H447.98V296H450.608V291.716C450.608 290.294 451.49 289.376 453.092 289.376H453.488V286.676H453.092ZM461.361 286.82L459.255 292.652L457.131 286.82H454.125L457.797 295.838L457.527 296.414C457.293 296.9 456.933 297.098 456.537 297.098C456.141 297.098 455.727 296.918 455.457 296.648L454.449 298.7C455.097 299.276 456.105 299.636 456.969 299.636C458.247 299.636 459.399 298.808 459.921 297.476L464.295 286.82H461.361Z" fill="white"/>
<path d="M185.382 455.758C152.067 431.553 127.269 397.423 114.544 358.258C101.819 319.094 101.819 276.906 114.544 237.742L300 298L185.382 455.758Z" fill="#334B68"/>
<path d="M114.544 237.742C127.269 198.577 152.067 164.447 185.382 140.242L300 298L114.544 237.742Z" fill="#A5B8D4"/>
<path d="M185.327 140.281C216.943 117.294 254.738 104.34 293.808 103.098L300 298L185.327 140.281Z" fill="#D4DFF0"/>
<path d="M293.882 103.096C295.923 103.032 297.965 103 300.007 103L300 298L293.882 103.096Z" fill="white"/>
<path d="M276 31.3047C276.905 31.3047 277.68 31.5618 278.324 32.0762C278.969 32.5905 279.46 33.3392 279.799 34.3223C280.144 35.2988 280.316 36.4707 280.316 37.8379C280.316 39.2051 280.144 40.3802 279.799 41.3633C279.46 42.3398 278.969 43.0885 278.324 43.6094C277.68 44.1237 276.905 44.3809 276 44.3809C275.095 44.3809 274.32 44.1237 273.676 43.6094C273.031 43.0885 272.536 42.3398 272.191 41.3633C271.853 40.3802 271.684 39.2051 271.684 37.8379C271.684 36.4707 271.853 35.2988 272.191 34.3223C272.536 33.3392 273.031 32.5905 273.676 32.0762C274.32 31.5618 275.095 31.3047 276 31.3047ZM276 33.1016C275.544 33.1016 275.154 33.2904 274.828 33.668C274.503 34.0391 274.252 34.5794 274.076 35.2891C273.907 35.9987 273.822 36.8483 273.822 37.8379C273.822 38.3457 273.848 38.8438 273.9 39.332L277.758 34.752C277.576 34.2181 277.335 33.8112 277.035 33.5312C276.736 33.2448 276.391 33.1016 276 33.1016ZM276 42.584C276.456 42.584 276.846 42.3952 277.172 42.0176C277.497 41.64 277.745 41.0964 277.914 40.3867C278.09 39.6771 278.178 38.8275 278.178 37.8379C278.178 37.252 278.148 36.7214 278.09 36.2461L274.213 40.8555C274.395 41.4154 274.636 41.8451 274.936 42.1445C275.242 42.4375 275.596 42.584 276 42.584ZM285.805 44.2637C285.557 44.2637 285.326 44.2018 285.111 44.0781C284.903 43.9609 284.737 43.7982 284.613 43.5898C284.496 43.375 284.438 43.1439 284.438 42.8965C284.438 42.6556 284.496 42.4342 284.613 42.2324C284.737 42.0241 284.903 41.8613 285.111 41.7441C285.326 41.6204 285.557 41.5586 285.805 41.5586C286.046 41.5586 286.267 41.6204 286.469 41.7441C286.677 41.8613 286.84 42.0241 286.957 42.2324C287.081 42.4342 287.143 42.6556 287.143 42.8965C287.143 43.1439 287.081 43.375 286.957 43.5898C286.84 43.7982 286.677 43.9609 286.469 44.0781C286.267 44.2018 286.046 44.2637 285.805 44.2637ZM296.078 44.3809C294.242 44.3809 292.904 43.5931 292.064 42.0176L293.725 40.748L293.871 40.6406L294.008 40.8262C294.001 40.8587 293.998 40.9108 293.998 40.9824C293.998 41.1582 294.079 41.347 294.242 41.5488C294.451 41.8158 294.695 42.0241 294.975 42.1738C295.255 42.3236 295.596 42.3984 296 42.3984C296.384 42.3984 296.726 42.3073 297.025 42.125C297.325 41.9362 297.562 41.6595 297.738 41.2949C297.914 40.9303 298.002 40.4844 298.002 39.957C298.002 39.1823 297.826 38.5801 297.475 38.1504C297.123 37.7142 296.658 37.4961 296.078 37.4961C295.681 37.4961 295.329 37.5938 295.023 37.7891C294.717 37.9779 294.415 38.2806 294.115 38.6973L292.68 38.082L293.139 31.5391H299.838V33.4434H295.102L294.936 35.8555C295.424 35.7122 295.886 35.6406 296.322 35.6406C297.11 35.6406 297.797 35.8132 298.383 36.1582C298.969 36.5033 299.421 37.0013 299.74 37.6523C300.059 38.3034 300.219 39.0781 300.219 39.9766C300.219 40.8424 300.049 41.6074 299.711 42.2715C299.372 42.9355 298.891 43.4531 298.266 43.8242C297.641 44.1953 296.911 44.3809 296.078 44.3809ZM303.744 36.7832C303.301 36.7832 302.888 36.666 302.504 36.4316C302.126 36.1908 301.824 35.862 301.596 35.4453C301.374 35.0221 301.264 34.5534 301.264 34.0391C301.264 33.5443 301.374 33.0885 301.596 32.6719C301.824 32.2552 302.126 31.9264 302.504 31.6855C302.888 31.4447 303.301 31.3242 303.744 31.3242C304.193 31.3242 304.607 31.4479 304.984 31.6953C305.362 31.9362 305.661 32.265 305.883 32.6816C306.111 33.0983 306.225 33.5573 306.225 34.0586C306.225 34.5859 306.117 35.0579 305.902 35.4746C305.688 35.8848 305.391 36.207 305.014 36.4414C304.636 36.6693 304.213 36.7832 303.744 36.7832ZM308.92 31.5391H310.355L303.217 44H301.84L308.92 31.5391ZM303.695 35.5234C304.021 35.5234 304.265 35.39 304.428 35.123C304.597 34.8496 304.682 34.4948 304.682 34.0586C304.682 33.6289 304.597 33.2773 304.428 33.0039C304.265 32.724 304.021 32.584 303.695 32.584C303.376 32.584 303.132 32.724 302.963 33.0039C302.8 33.2773 302.719 33.6289 302.719 34.0586C302.719 34.4948 302.8 34.8496 302.963 35.123C303.132 35.39 303.376 35.5234 303.695 35.5234ZM308.305 44.1953C307.855 44.1953 307.442 44.0781 307.064 43.8438C306.687 43.6029 306.384 43.2741 306.156 42.8574C305.935 42.4408 305.824 41.9753 305.824 41.4609C305.824 40.9661 305.935 40.5104 306.156 40.0938C306.384 39.6706 306.687 39.3385 307.064 39.0977C307.449 38.8568 307.862 38.7363 308.305 38.7363C308.747 38.7363 309.158 38.86 309.535 39.1074C309.919 39.3483 310.222 39.6803 310.443 40.1035C310.665 40.5202 310.775 40.9792 310.775 41.4805C310.775 42.0078 310.668 42.4766 310.453 42.8867C310.238 43.2969 309.942 43.6191 309.564 43.8535C309.193 44.0814 308.773 44.1953 308.305 44.1953ZM308.256 42.9355C308.581 42.9355 308.826 42.8021 308.988 42.5352C309.158 42.2682 309.242 41.9167 309.242 41.4805C309.242 41.0508 309.158 40.696 308.988 40.416C308.826 40.1361 308.581 39.9961 308.256 39.9961C307.937 39.9961 307.693 40.1361 307.523 40.416C307.361 40.696 307.279 41.0508 307.279 41.4805C307.279 41.9167 307.361 42.2682 307.523 42.5352C307.686 42.8021 307.93 42.9355 308.256 42.9355Z" fill="#A5B8D4"/>
<path d="M278.756 67H280.87L277.16 57.34H274.878L271.154 67H273.24L273.926 65.124H278.07L278.756 67ZM274.57 63.346L275.998 59.468L277.412 63.346H274.57ZM282.799 58.81C283.443 58.81 283.947 58.32 283.947 57.676C283.947 57.032 283.443 56.542 282.799 56.542C282.155 56.542 281.651 57.032 281.651 57.676C281.651 58.32 282.155 58.81 282.799 58.81ZM281.889 67H283.709V59.86H281.889V67ZM289.322 59.748C288.482 59.748 287.782 60.126 287.264 60.784V59.86H285.444V67H287.264V63.612C287.264 62.394 288.02 61.624 289.322 61.624H289.63V59.748H289.322ZM295.934 56.92V60.714C295.36 60.084 294.562 59.692 293.61 59.692C291.622 59.692 290.124 61.302 290.124 63.43C290.124 65.558 291.622 67.168 293.61 67.168C294.562 67.168 295.36 66.776 295.934 66.146V67H297.754V56.92H295.934ZM293.96 65.404C292.84 65.404 292 64.55 292 63.43C292 62.31 292.84 61.456 293.96 61.456C295.094 61.456 295.934 62.31 295.934 63.43C295.934 64.55 295.094 65.404 293.96 65.404ZM303.363 59.748C302.523 59.748 301.823 60.126 301.305 60.784V59.86H299.485V67H301.305V63.612C301.305 62.394 302.061 61.624 303.363 61.624H303.671V59.748H303.363ZM307.973 67.168C310.157 67.168 311.809 65.558 311.809 63.43C311.809 61.302 310.157 59.692 307.973 59.692C305.789 59.692 304.137 61.302 304.137 63.43C304.137 65.558 305.789 67.168 307.973 67.168ZM307.973 65.404C306.853 65.404 306.013 64.55 306.013 63.43C306.013 62.31 306.853 61.456 307.973 61.456C309.107 61.456 309.933 62.31 309.933 63.43C309.933 64.55 309.107 65.404 307.973 65.404ZM317.26 59.692C316.308 59.692 315.51 60.07 314.936 60.714V59.86H313.116V69.66H314.936V66.146C315.51 66.79 316.308 67.168 317.26 67.168C319.248 67.168 320.732 65.558 320.732 63.43C320.732 61.302 319.248 59.692 317.26 59.692ZM316.896 65.404C315.776 65.404 314.936 64.55 314.936 63.43C314.936 62.31 315.776 61.456 316.896 61.456C318.03 61.456 318.856 62.31 318.856 63.43C318.856 64.55 318.03 65.404 316.896 65.404ZM324.535 67.168C326.243 67.168 327.587 66.342 327.587 64.83C327.587 63.206 326.117 62.856 324.983 62.604C324.185 62.436 323.583 62.282 323.583 61.806C323.583 61.386 324.087 61.19 324.703 61.19C325.431 61.19 326.033 61.456 326.551 61.848L327.433 60.63C326.789 60.126 325.879 59.692 324.661 59.692C323.079 59.692 321.749 60.434 321.749 61.946C321.749 63.57 323.219 63.92 324.353 64.172C325.137 64.354 325.753 64.522 325.753 64.998C325.753 65.432 325.221 65.67 324.493 65.67C323.639 65.67 322.953 65.348 322.407 64.872L321.525 66.076C322.211 66.664 323.205 67.168 324.535 67.168Z" fill="white"/>
<path d="M141.039 31.2754C142.302 31.2754 143.259 31.7832 143.91 32.7988C144.568 33.8079 144.896 35.3411 144.896 37.3984C144.896 42.0534 143.471 44.3809 140.619 44.3809C139.962 44.3809 139.311 44.2572 138.666 44.0098C138.021 43.7624 137.439 43.3913 136.918 42.8965L138.266 41.3926L138.383 41.2656L138.549 41.4121C138.562 41.5228 138.598 41.6204 138.656 41.7051C138.721 41.7832 138.845 41.8776 139.027 41.9883C139.464 42.2487 139.955 42.3789 140.502 42.3789C141.023 42.3789 141.433 42.2682 141.732 42.0469C142.032 41.819 142.253 41.4642 142.396 40.9824C142.54 40.5007 142.637 39.8398 142.689 39C142.097 39.638 141.394 39.957 140.58 39.957C139.955 39.957 139.353 39.7715 138.773 39.4004C138.201 39.0293 137.735 38.515 137.377 37.8574C137.019 37.1999 136.84 36.4609 136.84 35.6406C136.84 34.8333 137.019 34.0977 137.377 33.4336C137.735 32.763 138.233 32.2357 138.871 31.8516C139.509 31.4674 140.232 31.2754 141.039 31.2754ZM140.883 37.9844C141.358 37.9844 141.729 37.8672 141.996 37.6328C142.27 37.3919 142.517 37.0339 142.738 36.5586C142.719 35.6862 142.644 35.0124 142.514 34.5371C142.39 34.0618 142.211 33.7331 141.977 33.5508C141.749 33.3685 141.449 33.2773 141.078 33.2773C140.447 33.2773 139.952 33.4954 139.594 33.9316C139.236 34.3678 139.057 34.9831 139.057 35.7773C139.057 36.513 139.213 37.0664 139.525 37.4375C139.844 37.8021 140.297 37.9844 140.883 37.9844ZM150.805 44.2637C150.557 44.2637 150.326 44.2018 150.111 44.0781C149.903 43.9609 149.737 43.7982 149.613 43.5898C149.496 43.375 149.438 43.1439 149.438 42.8965C149.438 42.6556 149.496 42.4342 149.613 42.2324C149.737 42.0241 149.903 41.8613 150.111 41.7441C150.326 41.6204 150.557 41.5586 150.805 41.5586C151.046 41.5586 151.267 41.6204 151.469 41.7441C151.677 41.8613 151.84 42.0241 151.957 42.2324C152.081 42.4342 152.143 42.6556 152.143 42.8965C152.143 43.1439 152.081 43.375 151.957 43.5898C151.84 43.7982 151.677 43.9609 151.469 44.0781C151.267 44.2018 151.046 44.2637 150.805 44.2637ZM161.078 44.3809C159.242 44.3809 157.904 43.5931 157.064 42.0176L158.725 40.748L158.871 40.6406L159.008 40.8262C159.001 40.8587 158.998 40.9108 158.998 40.9824C158.998 41.1582 159.079 41.347 159.242 41.5488C159.451 41.8158 159.695 42.0241 159.975 42.1738C160.255 42.3236 160.596 42.3984 161 42.3984C161.384 42.3984 161.726 42.3073 162.025 42.125C162.325 41.9362 162.562 41.6595 162.738 41.2949C162.914 40.9303 163.002 40.4844 163.002 39.957C163.002 39.1823 162.826 38.5801 162.475 38.1504C162.123 37.7142 161.658 37.4961 161.078 37.4961C160.681 37.4961 160.329 37.5938 160.023 37.7891C159.717 37.9779 159.415 38.2806 159.115 38.6973L157.68 38.082L158.139 31.5391H164.838V33.4434H160.102L159.936 35.8555C160.424 35.7122 160.886 35.6406 161.322 35.6406C162.11 35.6406 162.797 35.8132 163.383 36.1582C163.969 36.5033 164.421 37.0013 164.74 37.6523C165.059 38.3034 165.219 39.0781 165.219 39.9766C165.219 40.8424 165.049 41.6074 164.711 42.2715C164.372 42.9355 163.891 43.4531 163.266 43.8242C162.641 44.1953 161.911 44.3809 161.078 44.3809ZM168.744 36.7832C168.301 36.7832 167.888 36.666 167.504 36.4316C167.126 36.1908 166.824 35.862 166.596 35.4453C166.374 35.0221 166.264 34.5534 166.264 34.0391C166.264 33.5443 166.374 33.0885 166.596 32.6719C166.824 32.2552 167.126 31.9264 167.504 31.6855C167.888 31.4447 168.301 31.3242 168.744 31.3242C169.193 31.3242 169.607 31.4479 169.984 31.6953C170.362 31.9362 170.661 32.265 170.883 32.6816C171.111 33.0983 171.225 33.5573 171.225 34.0586C171.225 34.5859 171.117 35.0579 170.902 35.4746C170.688 35.8848 170.391 36.207 170.014 36.4414C169.636 36.6693 169.213 36.7832 168.744 36.7832ZM173.92 31.5391H175.355L168.217 44H166.84L173.92 31.5391ZM168.695 35.5234C169.021 35.5234 169.265 35.39 169.428 35.123C169.597 34.8496 169.682 34.4948 169.682 34.0586C169.682 33.6289 169.597 33.2773 169.428 33.0039C169.265 32.724 169.021 32.584 168.695 32.584C168.376 32.584 168.132 32.724 167.963 33.0039C167.8 33.2773 167.719 33.6289 167.719 34.0586C167.719 34.4948 167.8 34.8496 167.963 35.123C168.132 35.39 168.376 35.5234 168.695 35.5234ZM173.305 44.1953C172.855 44.1953 172.442 44.0781 172.064 43.8438C171.687 43.6029 171.384 43.2741 171.156 42.8574C170.935 42.4408 170.824 41.9753 170.824 41.4609C170.824 40.9661 170.935 40.5104 171.156 40.0938C171.384 39.6706 171.687 39.3385 172.064 39.0977C172.449 38.8568 172.862 38.7363 173.305 38.7363C173.747 38.7363 174.158 38.86 174.535 39.1074C174.919 39.3483 175.222 39.6803 175.443 40.1035C175.665 40.5202 175.775 40.9792 175.775 41.4805C175.775 42.0078 175.668 42.4766 175.453 42.8867C175.238 43.2969 174.942 43.6191 174.564 43.8535C174.193 44.0814 173.773 44.1953 173.305 44.1953ZM173.256 42.9355C173.581 42.9355 173.826 42.8021 173.988 42.5352C174.158 42.2682 174.242 41.9167 174.242 41.4805C174.242 41.0508 174.158 40.696 173.988 40.416C173.826 40.1361 173.581 39.9961 173.256 39.9961C172.937 39.9961 172.693 40.1361 172.523 40.416C172.361 40.696 172.279 41.0508 172.279 41.4805C172.279 41.9167 172.361 42.2682 172.523 42.5352C172.686 42.8021 172.93 42.9355 173.256 42.9355Z" fill="#A5B8D4"/>
<path d="M144.89 57.34L142.132 62.366L139.388 57.34H136.98V67H138.912V60.364L141.572 65.264H142.664L145.338 60.364V67H147.27V57.34H144.89ZM154.522 59.86V60.714C153.948 60.084 153.15 59.692 152.198 59.692C150.21 59.692 148.712 61.302 148.712 63.43C148.712 65.558 150.21 67.168 152.198 67.168C153.15 67.168 153.948 66.776 154.522 66.146V67H156.342V59.86H154.522ZM152.548 65.404C151.428 65.404 150.588 64.55 150.588 63.43C150.588 62.31 151.428 61.456 152.548 61.456C153.682 61.456 154.522 62.31 154.522 63.43C154.522 64.55 153.682 65.404 152.548 65.404ZM161.951 59.748C161.111 59.748 160.411 60.126 159.893 60.784V59.86H158.073V67H159.893V63.612C159.893 62.394 160.649 61.624 161.951 61.624H162.259V59.748H161.951ZM167.845 67H170.225L167.061 63.164L170.127 59.86H167.775L165.143 62.786V56.92H163.323V67H165.143V65.222L165.773 64.536L167.845 67ZM177.613 63.444C177.613 61.288 176.003 59.692 173.861 59.692C171.705 59.692 170.067 61.288 170.067 63.402C170.067 65.544 171.761 67.168 174.029 67.168C175.373 67.168 176.521 66.622 177.263 65.74L176.045 64.676C175.667 65.152 174.953 65.558 174.085 65.558C173.049 65.558 172.293 64.984 172.041 64.088H177.571C177.599 63.892 177.613 63.64 177.613 63.444ZM173.847 61.288C174.729 61.288 175.443 61.862 175.667 62.758H172.027C172.251 61.876 172.951 61.288 173.847 61.288ZM182.963 61.526V59.86H181.045V58.054H179.225V59.86H178.091V61.526H179.225V64.788C179.225 66.216 179.995 67.168 181.633 67.168C182.165 67.168 182.571 67.07 182.963 66.86V65.166C182.697 65.292 182.389 65.404 182.025 65.404C181.381 65.404 181.045 65.096 181.045 64.494V61.526H182.963ZM185.219 58.81C185.863 58.81 186.367 58.32 186.367 57.676C186.367 57.032 185.863 56.542 185.219 56.542C184.575 56.542 184.071 57.032 184.071 57.676C184.071 58.32 184.575 58.81 185.219 58.81ZM184.309 67H186.129V59.86H184.309V67ZM191.952 59.692C191.028 59.692 190.244 60.028 189.684 60.658V59.86H187.864V67H189.684V63.08C189.684 62.1 190.356 61.456 191.35 61.456C192.302 61.456 192.918 62.086 192.918 63.052V67H194.738V62.464C194.738 60.784 193.632 59.692 191.952 59.692ZM200.904 67H198.58C198.132 67 197.824 66.748 197.824 66.398C197.824 66.16 197.964 65.922 198.188 65.782C198.552 65.894 198.944 65.964 199.364 65.964C201.268 65.964 202.724 64.62 202.724 62.828C202.724 62.128 202.5 61.484 202.108 60.98C202.178 60.658 202.472 60.462 202.836 60.462H203.34V58.782H202.752C201.814 58.782 201.128 59.258 200.918 60.028C200.456 59.818 199.938 59.692 199.364 59.692C197.446 59.692 196.018 61.036 196.018 62.828C196.018 63.724 196.368 64.494 196.97 65.054C196.382 65.418 196.004 66.118 196.004 66.846C196.004 67.98 196.886 68.75 198.216 68.75H200.554C201.198 68.75 201.632 69.086 201.688 69.604L203.564 69.1C203.326 67.784 202.318 67 200.904 67ZM199.364 61.414C200.204 61.414 200.848 62.016 200.848 62.828C200.848 63.64 200.204 64.242 199.364 64.242C198.51 64.242 197.88 63.64 197.88 62.828C197.88 62.016 198.51 61.414 199.364 61.414ZM215.954 67L214.358 65.222C214.946 64.48 215.338 63.598 215.604 62.73L214.008 62.226C213.812 62.856 213.546 63.444 213.224 63.948L211.194 61.68C212.188 61.134 213.07 60.448 213.07 59.342C213.07 58.082 211.922 57.172 210.48 57.172C209.024 57.172 207.904 58.096 207.904 59.37C207.904 60.028 208.198 60.714 208.66 61.358C207.764 61.932 206.994 62.716 206.994 64.046C206.994 65.88 208.478 67.168 210.62 67.168C211.558 67.168 212.412 66.916 213.098 66.384L213.644 67H215.954ZM210.48 58.614C210.928 58.614 211.306 58.922 211.306 59.356C211.306 59.846 210.844 60.21 210.2 60.546C209.864 60.098 209.654 59.72 209.654 59.384C209.654 58.908 210.032 58.614 210.48 58.614ZM210.69 65.502C209.626 65.502 208.856 64.844 208.856 63.934C208.856 63.36 209.178 62.926 209.668 62.562L211.992 65.152C211.6 65.376 211.166 65.502 210.69 65.502ZM141.194 78.34H136.98V88H138.912V84.78H141.194C143.07 84.78 144.512 83.394 144.512 81.56C144.512 79.726 143.07 78.34 141.194 78.34ZM141.152 82.96H138.912V80.16H141.152C141.936 80.16 142.524 80.762 142.524 81.56C142.524 82.358 141.936 82.96 141.152 82.96ZM150.803 80.86V81.714C150.229 81.084 149.431 80.692 148.479 80.692C146.491 80.692 144.993 82.302 144.993 84.43C144.993 86.558 146.491 88.168 148.479 88.168C149.431 88.168 150.229 87.776 150.803 87.146V88H152.623V80.86H150.803ZM148.829 86.404C147.709 86.404 146.869 85.55 146.869 84.43C146.869 83.31 147.709 82.456 148.829 82.456C149.963 82.456 150.803 83.31 150.803 84.43C150.803 85.55 149.963 86.404 148.829 86.404ZM158.232 80.748C157.392 80.748 156.692 81.126 156.174 81.784V80.86H154.354V88H156.174V84.612C156.174 83.394 156.93 82.624 158.232 82.624H158.54V80.748H158.232ZM164.123 82.526V80.86H162.205V79.054H160.385V80.86H159.251V82.526H160.385V85.788C160.385 87.216 161.155 88.168 162.793 88.168C163.325 88.168 163.731 88.07 164.123 87.86V86.166C163.857 86.292 163.549 86.404 163.185 86.404C162.541 86.404 162.205 86.096 162.205 85.494V82.526H164.123ZM169.558 80.692C168.634 80.692 167.85 81.028 167.29 81.658V80.86H165.47V88H167.29V84.08C167.29 83.1 167.962 82.456 168.956 82.456C169.908 82.456 170.524 83.086 170.524 84.052V88H172.344V83.464C172.344 81.784 171.238 80.692 169.558 80.692ZM181.085 84.444C181.085 82.288 179.475 80.692 177.333 80.692C175.177 80.692 173.539 82.288 173.539 84.402C173.539 86.544 175.233 88.168 177.501 88.168C178.845 88.168 179.993 87.622 180.735 86.74L179.517 85.676C179.139 86.152 178.425 86.558 177.557 86.558C176.521 86.558 175.765 85.984 175.513 85.088H181.043C181.071 84.892 181.085 84.64 181.085 84.444ZM177.319 82.288C178.201 82.288 178.915 82.862 179.139 83.758H175.499C175.723 82.876 176.423 82.288 177.319 82.288ZM186.232 80.748C185.392 80.748 184.692 81.126 184.174 81.784V80.86H182.354V88H184.174V84.612C184.174 83.394 184.93 82.624 186.232 82.624H186.54V80.748H186.232ZM190.068 88.168C191.776 88.168 193.12 87.342 193.12 85.83C193.12 84.206 191.65 83.856 190.516 83.604C189.718 83.436 189.116 83.282 189.116 82.806C189.116 82.386 189.62 82.19 190.236 82.19C190.964 82.19 191.566 82.456 192.084 82.848L192.966 81.63C192.322 81.126 191.412 80.692 190.194 80.692C188.612 80.692 187.282 81.434 187.282 82.946C187.282 84.57 188.752 84.92 189.886 85.172C190.67 85.354 191.286 85.522 191.286 85.998C191.286 86.432 190.754 86.67 190.026 86.67C189.172 86.67 188.486 86.348 187.94 85.872L187.058 87.076C187.744 87.664 188.738 88.168 190.068 88.168ZM198.433 80.692C197.509 80.692 196.725 81.042 196.165 81.7V77.92H194.345V88H196.165V84.08C196.165 83.1 196.837 82.456 197.845 82.456C198.783 82.456 199.399 83.086 199.399 84.052V88H201.219V83.464C201.219 81.784 200.113 80.692 198.433 80.692ZM203.758 79.81C204.402 79.81 204.906 79.32 204.906 78.676C204.906 78.032 204.402 77.542 203.758 77.542C203.114 77.542 202.61 78.032 202.61 78.676C202.61 79.32 203.114 79.81 203.758 79.81ZM202.848 88H204.668V80.86H202.848V88ZM210.547 80.692C209.595 80.692 208.797 81.07 208.223 81.714V80.86H206.403V90.66H208.223V87.146C208.797 87.79 209.595 88.168 210.547 88.168C212.535 88.168 214.019 86.558 214.019 84.43C214.019 82.302 212.535 80.692 210.547 80.692ZM210.183 86.404C209.063 86.404 208.223 85.55 208.223 84.43C208.223 83.31 209.063 82.456 210.183 82.456C211.317 82.456 212.143 83.31 212.143 84.43C212.143 85.55 211.317 86.404 210.183 86.404ZM217.822 88.168C219.53 88.168 220.874 87.342 220.874 85.83C220.874 84.206 219.404 83.856 218.27 83.604C217.472 83.436 216.87 83.282 216.87 82.806C216.87 82.386 217.374 82.19 217.99 82.19C218.718 82.19 219.32 82.456 219.838 82.848L220.72 81.63C220.076 81.126 219.166 80.692 217.948 80.692C216.366 80.692 215.036 81.434 215.036 82.946C215.036 84.57 216.506 84.92 217.64 85.172C218.424 85.354 219.04 85.522 219.04 85.998C219.04 86.432 218.508 86.67 217.78 86.67C216.926 86.67 216.24 86.348 215.694 85.872L214.812 87.076C215.498 87.664 216.492 88.168 217.822 88.168Z" fill="white"/>
<path d="M54.1797 115.078L52.041 115.723L51.5039 114.355L54.8828 112.539H56.377V125H54.1797V115.078ZM65 112.305C65.9049 112.305 66.6797 112.562 67.3242 113.076C67.9688 113.59 68.4603 114.339 68.7988 115.322C69.1439 116.299 69.3164 117.471 69.3164 118.838C69.3164 120.205 69.1439 121.38 68.7988 122.363C68.4603 123.34 67.9688 124.089 67.3242 124.609C66.6797 125.124 65.9049 125.381 65 125.381C64.0951 125.381 63.3203 125.124 62.6758 124.609C62.0312 124.089 61.5365 123.34 61.1914 122.363C60.8529 121.38 60.6836 120.205 60.6836 118.838C60.6836 117.471 60.8529 116.299 61.1914 115.322C61.5365 114.339 62.0312 113.59 62.6758 113.076C63.3203 112.562 64.0951 112.305 65 112.305ZM65 114.102C64.5443 114.102 64.1536 114.29 63.8281 114.668C63.5026 115.039 63.252 115.579 63.0762 116.289C62.9069 116.999 62.8223 117.848 62.8223 118.838C62.8223 119.346 62.8483 119.844 62.9004 120.332L66.7578 115.752C66.5755 115.218 66.3346 114.811 66.0352 114.531C65.7357 114.245 65.3906 114.102 65 114.102ZM65 123.584C65.4557 123.584 65.8464 123.395 66.1719 123.018C66.4974 122.64 66.7448 122.096 66.9141 121.387C67.0898 120.677 67.1777 119.827 67.1777 118.838C67.1777 118.252 67.1484 117.721 67.0898 117.246L63.2129 121.855C63.3952 122.415 63.6361 122.845 63.9355 123.145C64.2415 123.438 64.5964 123.584 65 123.584ZM72.7441 117.783C72.3014 117.783 71.888 117.666 71.5039 117.432C71.1263 117.191 70.8236 116.862 70.5957 116.445C70.3743 116.022 70.2637 115.553 70.2637 115.039C70.2637 114.544 70.3743 114.089 70.5957 113.672C70.8236 113.255 71.1263 112.926 71.5039 112.686C71.888 112.445 72.3014 112.324 72.7441 112.324C73.1934 112.324 73.6068 112.448 73.9844 112.695C74.362 112.936 74.6615 113.265 74.8828 113.682C75.1107 114.098 75.2246 114.557 75.2246 115.059C75.2246 115.586 75.1172 116.058 74.9023 116.475C74.6875 116.885 74.3913 117.207 74.0137 117.441C73.6361 117.669 73.2129 117.783 72.7441 117.783ZM77.9199 112.539H79.3555L72.2168 125H70.8398L77.9199 112.539ZM72.6953 116.523C73.0208 116.523 73.265 116.39 73.4277 116.123C73.597 115.85 73.6816 115.495 73.6816 115.059C73.6816 114.629 73.597 114.277 73.4277 114.004C73.265 113.724 73.0208 113.584 72.6953 113.584C72.3763 113.584 72.1322 113.724 71.9629 114.004C71.8001 114.277 71.7188 114.629 71.7188 115.059C71.7188 115.495 71.8001 115.85 71.9629 116.123C72.1322 116.39 72.3763 116.523 72.6953 116.523ZM77.3047 125.195C76.8555 125.195 76.4421 125.078 76.0645 124.844C75.6868 124.603 75.3841 124.274 75.1562 123.857C74.9349 123.441 74.8242 122.975 74.8242 122.461C74.8242 121.966 74.9349 121.51 75.1562 121.094C75.3841 120.671 75.6868 120.339 76.0645 120.098C76.4486 119.857 76.862 119.736 77.3047 119.736C77.7474 119.736 78.1576 119.86 78.5352 120.107C78.9193 120.348 79.222 120.68 79.4434 121.104C79.6647 121.52 79.7754 121.979 79.7754 122.48C79.7754 123.008 79.668 123.477 79.4531 123.887C79.2383 124.297 78.9421 124.619 78.5645 124.854C78.1934 125.081 77.7734 125.195 77.3047 125.195ZM77.2559 123.936C77.5814 123.936 77.8255 123.802 77.9883 123.535C78.1576 123.268 78.2422 122.917 78.2422 122.48C78.2422 122.051 78.1576 121.696 77.9883 121.416C77.8255 121.136 77.5814 120.996 77.2559 120.996C76.9368 120.996 76.6927 121.136 76.5234 121.416C76.3607 121.696 76.2793 122.051 76.2793 122.48C76.2793 122.917 76.3607 123.268 76.5234 123.535C76.6862 123.802 76.9303 123.936 77.2559 123.936Z" fill="#A5B8D4"/>
<path d="M52.912 146.18V138.34H50.98V148H57.126V146.18H52.912ZM59.2428 139.81C59.8868 139.81 60.3908 139.32 60.3908 138.676C60.3908 138.032 59.8868 137.542 59.2428 137.542C58.5988 137.542 58.0948 138.032 58.0948 138.676C58.0948 139.32 58.5988 139.81 59.2428 139.81ZM58.3328 148H60.1528V140.86H58.3328V148ZM67.2915 140.86V141.714C66.7175 141.084 65.9195 140.692 64.9675 140.692C62.9795 140.692 61.4815 142.302 61.4815 144.43C61.4815 146.558 62.9795 148.168 64.9675 148.168C65.9195 148.168 66.7175 147.776 67.2915 147.146V150.66H69.1115V140.86H67.2915ZM65.3175 146.404C64.1975 146.404 63.3575 145.55 63.3575 144.43C63.3575 143.31 64.1975 142.456 65.3175 142.456C66.4515 142.456 67.2915 143.31 67.2915 144.43C67.2915 145.55 66.4515 146.404 65.3175 146.404ZM74.0626 148.168C76.0646 148.168 77.3946 146.978 77.3946 145.158V140.86H75.5746V144.906C75.5746 145.816 74.9726 146.404 74.0626 146.404C73.1526 146.404 72.5506 145.816 72.5506 144.906V140.86H70.7306V145.158C70.7306 146.978 72.0466 148.168 74.0626 148.168ZM79.9284 139.81C80.5724 139.81 81.0764 139.32 81.0764 138.676C81.0764 138.032 80.5724 137.542 79.9284 137.542C79.2844 137.542 78.7804 138.032 78.7804 138.676C78.7804 139.32 79.2844 139.81 79.9284 139.81ZM79.0184 148H80.8384V140.86H79.0184V148ZM87.9771 137.92V141.714C87.4031 141.084 86.6051 140.692 85.6531 140.692C83.6651 140.692 82.1671 142.302 82.1671 144.43C82.1671 146.558 83.6651 148.168 85.6531 148.168C86.6051 148.168 87.4031 147.776 87.9771 147.146V148H89.7971V137.92H87.9771ZM86.0031 146.404C84.8831 146.404 84.0431 145.55 84.0431 144.43C84.0431 143.31 84.8831 142.456 86.0031 142.456C87.1371 142.456 87.9771 143.31 87.9771 144.43C87.9771 145.55 87.1371 146.404 86.0031 146.404ZM92.4382 139.81C93.0822 139.81 93.5862 139.32 93.5862 138.676C93.5862 138.032 93.0822 137.542 92.4382 137.542C91.7942 137.542 91.2902 138.032 91.2902 138.676C91.2902 139.32 91.7942 139.81 92.4382 139.81ZM91.5282 148H93.3482V140.86H91.5282V148ZM99.4788 142.526V140.86H97.5608V139.054H95.7408V140.86H94.6068V142.526H95.7408V145.788C95.7408 147.216 96.5108 148.168 98.1488 148.168C98.6808 148.168 99.0868 148.07 99.4788 147.86V146.166C99.2128 146.292 98.9048 146.404 98.5408 146.404C97.8968 146.404 97.5608 146.096 97.5608 145.494V142.526H99.4788ZM105.905 140.86L104.057 145.718L102.195 140.86H100.123L103.035 147.888L102.741 148.504C102.559 148.91 102.265 149.064 101.929 149.064C101.621 149.064 101.285 148.924 101.061 148.686L100.361 150.114C100.837 150.548 101.593 150.828 102.237 150.828C103.175 150.828 104.015 150.226 104.407 149.246L107.935 140.86H105.905ZM55.012 161.692C54.06 161.692 53.262 162.07 52.688 162.714V161.86H50.868V171.66H52.688V168.146C53.262 168.79 54.06 169.168 55.012 169.168C57 169.168 58.484 167.558 58.484 165.43C58.484 163.302 57 161.692 55.012 161.692ZM54.648 167.404C53.528 167.404 52.688 166.55 52.688 165.43C52.688 164.31 53.528 163.456 54.648 163.456C55.782 163.456 56.608 164.31 56.608 165.43C56.608 166.55 55.782 167.404 54.648 167.404ZM63.7011 161.748C62.8611 161.748 62.1611 162.126 61.6431 162.784V161.86H59.8231V169H61.6431V165.612C61.6431 164.394 62.3991 163.624 63.7011 163.624H64.0091V161.748H63.7011ZM68.311 169.168C70.495 169.168 72.147 167.558 72.147 165.43C72.147 163.302 70.495 161.692 68.311 161.692C66.127 161.692 64.475 163.302 64.475 165.43C64.475 167.558 66.127 169.168 68.311 169.168ZM68.311 167.404C67.191 167.404 66.351 166.55 66.351 165.43C66.351 164.31 67.191 163.456 68.311 163.456C69.445 163.456 70.271 164.31 70.271 165.43C70.271 166.55 69.445 167.404 68.311 167.404ZM78.0278 161.86L76.1798 166.718L74.3178 161.86H72.2458L75.2138 169H77.0898L80.0578 161.86H78.0278ZM81.9108 160.81C82.5548 160.81 83.0588 160.32 83.0588 159.676C83.0588 159.032 82.5548 158.542 81.9108 158.542C81.2668 158.542 80.7628 159.032 80.7628 159.676C80.7628 160.32 81.2668 160.81 81.9108 160.81ZM81.0008 169H82.8208V161.86H81.0008V169ZM89.9595 158.92V162.714C89.3855 162.084 88.5875 161.692 87.6355 161.692C85.6475 161.692 84.1495 163.302 84.1495 165.43C84.1495 167.558 85.6475 169.168 87.6355 169.168C88.5875 169.168 89.3855 168.776 89.9595 168.146V169H91.7795V158.92H89.9595ZM87.9855 167.404C86.8655 167.404 86.0255 166.55 86.0255 165.43C86.0255 164.31 86.8655 163.456 87.9855 163.456C89.1195 163.456 89.9595 164.31 89.9595 165.43C89.9595 166.55 89.1195 167.404 87.9855 167.404ZM94.4206 160.81C95.0646 160.81 95.5686 160.32 95.5686 159.676C95.5686 159.032 95.0646 158.542 94.4206 158.542C93.7766 158.542 93.2726 159.032 93.2726 159.676C93.2726 160.32 93.7766 160.81 94.4206 160.81ZM93.5106 169H95.3306V161.86H93.5106V169ZM101.153 161.692C100.229 161.692 99.4453 162.028 98.8853 162.658V161.86H97.0653V169H98.8853V165.08C98.8853 164.1 99.5573 163.456 100.551 163.456C101.503 163.456 102.119 164.086 102.119 165.052V169H103.939V164.464C103.939 162.784 102.833 161.692 101.153 161.692ZM110.105 169H107.781C107.333 169 107.025 168.748 107.025 168.398C107.025 168.16 107.165 167.922 107.389 167.782C107.753 167.894 108.145 167.964 108.565 167.964C110.469 167.964 111.925 166.62 111.925 164.828C111.925 164.128 111.701 163.484 111.309 162.98C111.379 162.658 111.673 162.462 112.037 162.462H112.541V160.782H111.953C111.015 160.782 110.329 161.258 110.119 162.028C109.657 161.818 109.139 161.692 108.565 161.692C106.647 161.692 105.219 163.036 105.219 164.828C105.219 165.724 105.569 166.494 106.171 167.054C105.583 167.418 105.205 168.118 105.205 168.846C105.205 169.98 106.087 170.75 107.417 170.75H109.755C110.399 170.75 110.833 171.086 110.889 171.604L112.765 171.1C112.527 169.784 111.519 169 110.105 169ZM108.565 163.414C109.405 163.414 110.049 164.016 110.049 164.828C110.049 165.64 109.405 166.242 108.565 166.242C107.711 166.242 107.081 165.64 107.081 164.828C107.081 164.016 107.711 163.414 108.565 163.414Z" fill="white"/>
<path d="M13.1426 373.359C14.7507 371.816 15.903 370.677 16.5996 369.941C17.3027 369.206 17.8366 368.522 18.2012 367.891C18.5723 367.253 18.7578 366.602 18.7578 365.938C18.7578 365.41 18.5918 364.993 18.2598 364.688C17.9277 364.375 17.4818 364.219 16.9219 364.219C16.0951 364.219 15.4212 364.479 14.9004 365C14.7832 365.117 14.7018 365.225 14.6562 365.322C14.6107 365.413 14.5879 365.505 14.5879 365.596L14.5977 365.703L14.4609 365.889L14.3242 365.781L12.8398 364.658C13.3216 363.883 13.9108 363.291 14.6074 362.881C15.3105 362.464 16.0951 362.256 16.9609 362.256C17.7031 362.256 18.3704 362.412 18.9629 362.725C19.5553 363.031 20.0176 363.46 20.3496 364.014C20.6882 364.567 20.8574 365.202 20.8574 365.918C20.8574 366.628 20.6882 367.308 20.3496 367.959C20.0176 368.61 19.5781 369.242 19.0312 369.854C18.4909 370.465 17.6934 371.299 16.6387 372.354L15.8379 373.145H19.9102C20.125 373.145 20.2812 373.135 20.3789 373.115C20.4831 373.089 20.5742 373.04 20.6523 372.969H20.877V375H13.1426V373.359ZM27 362.305C27.9049 362.305 28.6797 362.562 29.3242 363.076C29.9688 363.59 30.4603 364.339 30.7988 365.322C31.1439 366.299 31.3164 367.471 31.3164 368.838C31.3164 370.205 31.1439 371.38 30.7988 372.363C30.4603 373.34 29.9688 374.089 29.3242 374.609C28.6797 375.124 27.9049 375.381 27 375.381C26.0951 375.381 25.3203 375.124 24.6758 374.609C24.0312 374.089 23.5365 373.34 23.1914 372.363C22.8529 371.38 22.6836 370.205 22.6836 368.838C22.6836 367.471 22.8529 366.299 23.1914 365.322C23.5365 364.339 24.0312 363.59 24.6758 363.076C25.3203 362.562 26.0951 362.305 27 362.305ZM27 364.102C26.5443 364.102 26.1536 364.29 25.8281 364.668C25.5026 365.039 25.252 365.579 25.0762 366.289C24.9069 366.999 24.8223 367.848 24.8223 368.838C24.8223 369.346 24.8483 369.844 24.9004 370.332L28.7578 365.752C28.5755 365.218 28.3346 364.811 28.0352 364.531C27.7357 364.245 27.3906 364.102 27 364.102ZM27 373.584C27.4557 373.584 27.8464 373.395 28.1719 373.018C28.4974 372.64 28.7448 372.096 28.9141 371.387C29.0898 370.677 29.1777 369.827 29.1777 368.838C29.1777 368.252 29.1484 367.721 29.0898 367.246L25.2129 371.855C25.3952 372.415 25.6361 372.845 25.9355 373.145C26.2415 373.438 26.5964 373.584 27 373.584ZM34.7441 367.783C34.3014 367.783 33.888 367.666 33.5039 367.432C33.1263 367.191 32.8236 366.862 32.5957 366.445C32.3743 366.022 32.2637 365.553 32.2637 365.039C32.2637 364.544 32.3743 364.089 32.5957 363.672C32.8236 363.255 33.1263 362.926 33.5039 362.686C33.888 362.445 34.3014 362.324 34.7441 362.324C35.1934 362.324 35.6068 362.448 35.9844 362.695C36.362 362.936 36.6615 363.265 36.8828 363.682C37.1107 364.098 37.2246 364.557 37.2246 365.059C37.2246 365.586 37.1172 366.058 36.9023 366.475C36.6875 366.885 36.3913 367.207 36.0137 367.441C35.6361 367.669 35.2129 367.783 34.7441 367.783ZM39.9199 362.539H41.3555L34.2168 375H32.8398L39.9199 362.539ZM34.6953 366.523C35.0208 366.523 35.265 366.39 35.4277 366.123C35.597 365.85 35.6816 365.495 35.6816 365.059C35.6816 364.629 35.597 364.277 35.4277 364.004C35.265 363.724 35.0208 363.584 34.6953 363.584C34.3763 363.584 34.1322 363.724 33.9629 364.004C33.8001 364.277 33.7188 364.629 33.7188 365.059C33.7188 365.495 33.8001 365.85 33.9629 366.123C34.1322 366.39 34.3763 366.523 34.6953 366.523ZM39.3047 375.195C38.8555 375.195 38.4421 375.078 38.0645 374.844C37.6868 374.603 37.3841 374.274 37.1562 373.857C36.9349 373.441 36.8242 372.975 36.8242 372.461C36.8242 371.966 36.9349 371.51 37.1562 371.094C37.3841 370.671 37.6868 370.339 38.0645 370.098C38.4486 369.857 38.862 369.736 39.3047 369.736C39.7474 369.736 40.1576 369.86 40.5352 370.107C40.9193 370.348 41.222 370.68 41.4434 371.104C41.6647 371.52 41.7754 371.979 41.7754 372.48C41.7754 373.008 41.668 373.477 41.4531 373.887C41.2383 374.297 40.9421 374.619 40.5645 374.854C40.1934 375.081 39.7734 375.195 39.3047 375.195ZM39.2559 373.936C39.5814 373.936 39.8255 373.802 39.9883 373.535C40.1576 373.268 40.2422 372.917 40.2422 372.48C40.2422 372.051 40.1576 371.696 39.9883 371.416C39.8255 371.136 39.5814 370.996 39.2559 370.996C38.9368 370.996 38.6927 371.136 38.5234 371.416C38.3607 371.696 38.2793 372.051 38.2793 372.48C38.2793 372.917 38.3607 373.268 38.5234 373.535C38.6862 373.802 38.9303 373.936 39.2559 373.936Z" fill="#A5B8D4"/>
<path d="M19.882 388.34H12.364V390.16H15.164V398H17.096V390.16H19.882V388.34ZM27.021 394.444C27.021 392.288 25.411 390.692 23.269 390.692C21.113 390.692 19.475 392.288 19.475 394.402C19.475 396.544 21.169 398.168 23.437 398.168C24.781 398.168 25.929 397.622 26.671 396.74L25.453 395.676C25.075 396.152 24.361 396.558 23.493 396.558C22.457 396.558 21.701 395.984 21.449 395.088H26.979C27.007 394.892 27.021 394.64 27.021 394.444ZM23.255 392.288C24.137 392.288 24.851 392.862 25.075 393.758H21.435C21.659 392.876 22.359 392.288 23.255 392.288ZM33.6939 390.86V391.714C33.1199 391.084 32.3219 390.692 31.3699 390.692C29.3819 390.692 27.8839 392.302 27.8839 394.43C27.8839 396.558 29.3819 398.168 31.3699 398.168C32.3219 398.168 33.1199 397.776 33.6939 397.146V398H35.5139V390.86H33.6939ZM31.7199 396.404C30.5999 396.404 29.7599 395.55 29.7599 394.43C29.7599 393.31 30.5999 392.456 31.7199 392.456C32.8539 392.456 33.6939 393.31 33.6939 394.43C33.6939 395.55 32.8539 396.404 31.7199 396.404ZM45.855 390.692C44.819 390.692 43.993 391.098 43.419 391.854C42.971 391.126 42.187 390.692 41.179 390.692C40.311 390.692 39.597 391 39.065 391.602V390.86H37.245V398H39.065V393.926C39.065 393.044 39.681 392.456 40.563 392.456C41.417 392.456 41.977 393.03 41.977 393.898V398H43.797V393.926C43.797 393.044 44.399 392.456 45.295 392.456C46.149 392.456 46.695 393.03 46.695 393.898V398H48.515V393.352C48.515 391.742 47.465 390.692 45.855 390.692ZM57.7191 392.526V390.86H55.8011V389.054H53.9811V390.86H52.8471V392.526H53.9811V395.788C53.9811 397.216 54.7511 398.168 56.3891 398.168C56.9211 398.168 57.3271 398.07 57.7191 397.86V396.166C57.4531 396.292 57.1451 396.404 56.7811 396.404C56.1371 396.404 55.8011 396.096 55.8011 395.494V392.526H57.7191ZM62.2622 398.168C64.4462 398.168 66.0982 396.558 66.0982 394.43C66.0982 392.302 64.4462 390.692 62.2622 390.692C60.0782 390.692 58.4262 392.302 58.4262 394.43C58.4262 396.558 60.0782 398.168 62.2622 398.168ZM62.2622 396.404C61.1422 396.404 60.3022 395.55 60.3022 394.43C60.3022 393.31 61.1422 392.456 62.2622 392.456C63.3962 392.456 64.2222 393.31 64.2222 394.43C64.2222 395.55 63.3962 396.404 62.2622 396.404ZM71.9271 398H74.3071L71.1431 394.164L74.2091 390.86H71.8571L69.2251 393.786V387.92H67.4051V398H69.2251V396.222L69.8551 395.536L71.9271 398ZM81.6948 394.444C81.6948 392.288 80.0848 390.692 77.9428 390.692C75.7868 390.692 74.1488 392.288 74.1488 394.402C74.1488 396.544 75.8428 398.168 78.1108 398.168C79.4548 398.168 80.6028 397.622 81.3448 396.74L80.1268 395.676C79.7488 396.152 79.0348 396.558 78.1668 396.558C77.1308 396.558 76.3748 395.984 76.1228 395.088H81.6528C81.6808 394.892 81.6948 394.64 81.6948 394.444ZM77.9288 392.288C78.8108 392.288 79.5248 392.862 79.7488 393.758H76.1088C76.3328 392.876 77.0328 392.288 77.9288 392.288ZM87.0517 390.692C86.1277 390.692 85.3437 391.028 84.7837 391.658V390.86H82.9637V398H84.7837V394.08C84.7837 393.1 85.4557 392.456 86.4497 392.456C87.4017 392.456 88.0177 393.086 88.0177 394.052V398H89.8377V393.464C89.8377 391.784 88.7317 390.692 87.0517 390.692ZM93.9179 398.168C95.6259 398.168 96.9699 397.342 96.9699 395.83C96.9699 394.206 95.4999 393.856 94.3659 393.604C93.5679 393.436 92.9659 393.282 92.9659 392.806C92.9659 392.386 93.4699 392.19 94.0859 392.19C94.8139 392.19 95.4159 392.456 95.9339 392.848L96.8159 391.63C96.1719 391.126 95.2619 390.692 94.0439 390.692C92.4619 390.692 91.1319 391.434 91.1319 392.946C91.1319 394.57 92.6019 394.92 93.7359 395.172C94.5199 395.354 95.1359 395.522 95.1359 395.998C95.1359 396.432 94.6039 396.67 93.8759 396.67C93.0219 396.67 92.3359 396.348 91.7899 395.872L90.9079 397.076C91.5939 397.664 92.5879 398.168 93.9179 398.168ZM12.924 410.278H14.072V410.376C14.016 410.432 13.9787 410.493 13.96 410.558C13.9507 410.623 13.946 410.735 13.946 410.894V418.16H18.146V419H12.924V410.278ZM22.5 419.112C21.9307 419.112 21.422 418.972 20.974 418.692C20.526 418.412 20.176 418.02 19.924 417.516C19.672 417.012 19.546 416.438 19.546 415.794C19.546 415.15 19.672 414.576 19.924 414.072C20.176 413.568 20.526 413.176 20.974 412.896C21.422 412.607 21.9307 412.462 22.5 412.462C23.0693 412.462 23.578 412.607 24.026 412.896C24.474 413.176 24.824 413.568 25.076 414.072C25.328 414.576 25.454 415.15 25.454 415.794C25.454 416.438 25.328 417.012 25.076 417.516C24.824 418.02 24.474 418.412 24.026 418.692C23.578 418.972 23.0693 419.112 22.5 419.112ZM22.5 418.272C22.864 418.272 23.186 418.165 23.466 417.95C23.7553 417.735 23.9793 417.441 24.138 417.068C24.306 416.685 24.39 416.256 24.39 415.78C24.39 415.052 24.2127 414.459 23.858 414.002C23.5033 413.535 23.0507 413.302 22.5 413.302C21.9493 413.302 21.4967 413.535 21.142 414.002C20.7873 414.459 20.61 415.052 20.61 415.78C20.61 416.256 20.6893 416.685 20.848 417.068C21.016 417.441 21.24 417.735 21.52 417.95C21.8093 418.165 22.136 418.272 22.5 418.272ZM29.99 419.154C29.374 419.154 28.8233 419.009 28.338 418.72C27.8527 418.431 27.47 418.034 27.19 417.53C26.9193 417.017 26.784 416.443 26.784 415.808C26.784 415.173 26.9193 414.604 27.19 414.1C27.47 413.596 27.8527 413.199 28.338 412.91C28.8233 412.621 29.3693 412.476 29.976 412.476C30.4893 412.476 30.956 412.583 31.376 412.798C31.796 413.003 32.1367 413.293 32.398 413.666L31.768 414.282L31.67 414.38L31.6 414.31C31.6 414.226 31.5813 414.151 31.544 414.086C31.516 414.011 31.446 413.927 31.334 413.834C31.138 413.657 30.9233 413.531 30.69 413.456C30.4567 413.372 30.1813 413.33 29.864 413.33C29.5 413.33 29.1593 413.433 28.842 413.638C28.534 413.834 28.2867 414.114 28.1 414.478C27.9133 414.842 27.82 415.262 27.82 415.738C27.82 416.214 27.9133 416.643 28.1 417.026C28.296 417.409 28.562 417.707 28.898 417.922C29.2433 418.137 29.626 418.244 30.046 418.244C30.69 418.244 31.2453 417.983 31.712 417.46L32.3 418.146C31.6747 418.818 30.9047 419.154 29.99 419.154ZM35.786 415.794L34.946 416.578V419H33.924V409.69H35.072V409.788C35.016 409.844 34.9787 409.905 34.96 409.97C34.9507 410.035 34.946 410.147 34.946 410.306V415.542L38.152 412.574C38.3853 412.621 38.6327 412.644 38.894 412.644H39.258L36.57 415.178L39.706 419L38.404 419.056L35.786 415.794ZM43.808 419.14C42.856 419.14 42.0953 418.851 41.526 418.272C40.966 417.693 40.686 416.877 40.686 415.822C40.686 415.122 40.8167 414.52 41.078 414.016C41.3393 413.503 41.6893 413.115 42.128 412.854C42.576 412.583 43.0753 412.448 43.626 412.448C44.4007 412.448 45.026 412.705 45.502 413.218C45.9873 413.731 46.23 414.487 46.23 415.486C46.23 415.589 46.2207 415.743 46.202 415.948H41.652C41.6893 416.732 41.9087 417.325 42.31 417.726C42.7113 418.127 43.22 418.328 43.836 418.328C44.508 418.328 45.0587 418.09 45.488 417.614L46.048 418.16C45.5067 418.813 44.76 419.14 43.808 419.14ZM45.208 415.164C45.208 414.567 45.054 414.095 44.746 413.75C44.4473 413.395 44.0507 413.218 43.556 413.218C43.0893 413.218 42.6833 413.381 42.338 413.708C41.9927 414.035 41.778 414.52 41.694 415.164H45.208ZM50.276 419.14C49.8187 419.14 49.3893 419.014 48.988 418.762C48.5867 418.501 48.26 418.113 48.008 417.6C47.756 417.087 47.63 416.466 47.63 415.738C47.63 415.001 47.7607 414.385 48.022 413.89C48.2833 413.395 48.6193 413.031 49.03 412.798C49.4407 412.555 49.8747 412.434 50.332 412.434C50.7613 412.434 51.1347 412.532 51.452 412.728C51.7787 412.924 52.026 413.195 52.194 413.54V409.69H53.258V409.788C53.202 409.844 53.1647 409.905 53.146 409.97C53.1367 410.035 53.132 410.147 53.132 410.306L53.146 418.006C53.146 418.23 53.1507 418.417 53.16 418.566C53.1787 418.706 53.2207 418.851 53.286 419H52.292C52.2267 418.851 52.1847 418.706 52.166 418.566C52.1567 418.417 52.152 418.23 52.152 418.006C51.9467 418.361 51.6807 418.641 51.354 418.846C51.0367 419.042 50.6773 419.14 50.276 419.14ZM50.43 418.258C51.0087 418.258 51.4333 418.029 51.704 417.572C51.9747 417.115 52.11 416.513 52.11 415.766C52.11 415.01 51.9607 414.403 51.662 413.946C51.3727 413.489 50.934 413.26 50.346 413.26C49.786 413.26 49.3567 413.47 49.058 413.89C48.7593 414.301 48.61 414.865 48.61 415.584C48.61 416.405 48.764 417.059 49.072 417.544C49.3893 418.02 49.842 418.258 50.43 418.258ZM61.896 419.182L66.278 409.69L67.118 410.124L62.722 419.588L61.896 419.182ZM81.37 412.602C81.2207 413.358 80.908 414.291 80.432 415.402L78.878 419H78.094L75.56 412.602H76.568L78.542 417.614L79.578 415.248C80.0073 414.277 80.2873 413.395 80.418 412.602H81.37ZM85.808 419.14C84.856 419.14 84.0953 418.851 83.526 418.272C82.966 417.693 82.686 416.877 82.686 415.822C82.686 415.122 82.8167 414.52 83.078 414.016C83.3393 413.503 83.6893 413.115 84.128 412.854C84.576 412.583 85.0753 412.448 85.626 412.448C86.4007 412.448 87.026 412.705 87.502 413.218C87.9873 413.731 88.23 414.487 88.23 415.486C88.23 415.589 88.2207 415.743 88.202 415.948H83.652C83.6893 416.732 83.9087 417.325 84.31 417.726C84.7113 418.127 85.22 418.328 85.836 418.328C86.508 418.328 87.0587 418.09 87.488 417.614L88.048 418.16C87.5067 418.813 86.76 419.14 85.808 419.14ZM87.208 415.164C87.208 414.567 87.054 414.095 86.746 413.75C86.4473 413.395 86.0507 413.218 85.556 413.218C85.0893 413.218 84.6833 413.381 84.338 413.708C83.9927 414.035 83.778 414.52 83.694 415.164H87.208ZM92.514 419.14C91.4313 419.14 90.526 418.804 89.798 418.132L90.358 417.18L90.442 417.054L90.526 417.11C90.526 417.129 90.5307 417.171 90.54 417.236C90.5587 417.301 90.5867 417.367 90.624 417.432C90.6613 417.497 90.7127 417.563 90.778 417.628C90.9927 417.843 91.2353 418.011 91.506 418.132C91.786 418.244 92.1313 418.3 92.542 418.3C93.046 418.3 93.4427 418.211 93.732 418.034C94.0213 417.847 94.166 417.595 94.166 417.278C94.166 417.007 94.0493 416.783 93.816 416.606C93.5827 416.429 93.1627 416.242 92.556 416.046C90.9507 415.589 90.148 414.926 90.148 414.058C90.148 413.563 90.3487 413.171 90.75 412.882C91.1607 412.593 91.744 412.448 92.5 412.448C93.0787 412.448 93.564 412.532 93.956 412.7C94.3573 412.859 94.7213 413.111 95.048 413.456L94.474 414.156L94.376 414.268L94.306 414.198C94.2967 414.095 94.2733 414.011 94.236 413.946C94.208 413.881 94.1427 413.806 94.04 413.722C93.8253 413.554 93.5827 413.428 93.312 413.344C93.0507 413.251 92.7893 413.204 92.528 413.204C92.1267 413.204 91.7953 413.274 91.534 413.414C91.282 413.554 91.156 413.75 91.156 414.002C91.156 414.235 91.2867 414.45 91.548 414.646C91.8093 414.842 92.2807 415.038 92.962 415.234C93.7647 415.477 94.3293 415.743 94.656 416.032C94.992 416.312 95.16 416.681 95.16 417.138C95.16 417.717 94.9313 418.197 94.474 418.58C94.026 418.953 93.3727 419.14 92.514 419.14ZM102.216 418.412C101.6 418.869 100.923 419.098 100.186 419.098C99.4767 419.098 98.9727 418.883 98.674 418.454C98.3847 418.025 98.24 417.325 98.24 416.354C98.24 416.195 98.2493 415.92 98.268 415.528L98.394 413.428H96.98V412.602H98.45L98.548 410.894L99.668 410.712L99.808 410.698L99.822 410.782C99.7567 410.875 99.7053 410.955 99.668 411.02C99.64 411.085 99.6213 411.188 99.612 411.328L99.458 412.602H101.586V413.428H99.402L99.276 415.598C99.2573 415.971 99.248 416.219 99.248 416.34C99.248 417.087 99.332 417.595 99.5 417.866C99.6773 418.127 99.9573 418.258 100.34 418.258C100.62 418.258 100.877 418.207 101.11 418.104C101.343 418.001 101.609 417.838 101.908 417.614L102.216 418.412ZM106.808 419.14C105.856 419.14 105.095 418.851 104.526 418.272C103.966 417.693 103.686 416.877 103.686 415.822C103.686 415.122 103.817 414.52 104.078 414.016C104.339 413.503 104.689 413.115 105.128 412.854C105.576 412.583 106.075 412.448 106.626 412.448C107.401 412.448 108.026 412.705 108.502 413.218C108.987 413.731 109.23 414.487 109.23 415.486C109.23 415.589 109.221 415.743 109.202 415.948H104.652C104.689 416.732 104.909 417.325 105.31 417.726C105.711 418.127 106.22 418.328 106.836 418.328C107.508 418.328 108.059 418.09 108.488 417.614L109.048 418.16C108.507 418.813 107.76 419.14 106.808 419.14ZM108.208 415.164C108.208 414.567 108.054 414.095 107.746 413.75C107.447 413.395 107.051 413.218 106.556 413.218C106.089 413.218 105.683 413.381 105.338 413.708C104.993 414.035 104.778 414.52 104.694 415.164H108.208ZM113.276 419.14C112.819 419.14 112.389 419.014 111.988 418.762C111.587 418.501 111.26 418.113 111.008 417.6C110.756 417.087 110.63 416.466 110.63 415.738C110.63 415.001 110.761 414.385 111.022 413.89C111.283 413.395 111.619 413.031 112.03 412.798C112.441 412.555 112.875 412.434 113.332 412.434C113.761 412.434 114.135 412.532 114.452 412.728C114.779 412.924 115.026 413.195 115.194 413.54V409.69H116.258V409.788C116.202 409.844 116.165 409.905 116.146 409.97C116.137 410.035 116.132 410.147 116.132 410.306L116.146 418.006C116.146 418.23 116.151 418.417 116.16 418.566C116.179 418.706 116.221 418.851 116.286 419H115.292C115.227 418.851 115.185 418.706 115.166 418.566C115.157 418.417 115.152 418.23 115.152 418.006C114.947 418.361 114.681 418.641 114.354 418.846C114.037 419.042 113.677 419.14 113.276 419.14ZM113.43 418.258C114.009 418.258 114.433 418.029 114.704 417.572C114.975 417.115 115.11 416.513 115.11 415.766C115.11 415.01 114.961 414.403 114.662 413.946C114.373 413.489 113.934 413.26 113.346 413.26C112.786 413.26 112.357 413.47 112.058 413.89C111.759 414.301 111.61 414.865 111.61 415.584C111.61 416.405 111.764 417.059 112.072 417.544C112.389 418.02 112.842 418.258 113.43 418.258Z" fill="white"/>
<path d="M233.143 525.359C234.751 523.816 235.903 522.677 236.6 521.941C237.303 521.206 237.837 520.522 238.201 519.891C238.572 519.253 238.758 518.602 238.758 517.938C238.758 517.41 238.592 516.993 238.26 516.688C237.928 516.375 237.482 516.219 236.922 516.219C236.095 516.219 235.421 516.479 234.9 517C234.783 517.117 234.702 517.225 234.656 517.322C234.611 517.413 234.588 517.505 234.588 517.596L234.598 517.703L234.461 517.889L234.324 517.781L232.84 516.658C233.322 515.883 233.911 515.291 234.607 514.881C235.311 514.464 236.095 514.256 236.961 514.256C237.703 514.256 238.37 514.412 238.963 514.725C239.555 515.031 240.018 515.46 240.35 516.014C240.688 516.567 240.857 517.202 240.857 517.918C240.857 518.628 240.688 519.308 240.35 519.959C240.018 520.61 239.578 521.242 239.031 521.854C238.491 522.465 237.693 523.299 236.639 524.354L235.838 525.145H239.91C240.125 525.145 240.281 525.135 240.379 525.115C240.483 525.089 240.574 525.04 240.652 524.969H240.877V527H233.143V525.359ZM247 514.305C247.905 514.305 248.68 514.562 249.324 515.076C249.969 515.59 250.46 516.339 250.799 517.322C251.144 518.299 251.316 519.471 251.316 520.838C251.316 522.205 251.144 523.38 250.799 524.363C250.46 525.34 249.969 526.089 249.324 526.609C248.68 527.124 247.905 527.381 247 527.381C246.095 527.381 245.32 527.124 244.676 526.609C244.031 526.089 243.536 525.34 243.191 524.363C242.853 523.38 242.684 522.205 242.684 520.838C242.684 519.471 242.853 518.299 243.191 517.322C243.536 516.339 244.031 515.59 244.676 515.076C245.32 514.562 246.095 514.305 247 514.305ZM247 516.102C246.544 516.102 246.154 516.29 245.828 516.668C245.503 517.039 245.252 517.579 245.076 518.289C244.907 518.999 244.822 519.848 244.822 520.838C244.822 521.346 244.848 521.844 244.9 522.332L248.758 517.752C248.576 517.218 248.335 516.811 248.035 516.531C247.736 516.245 247.391 516.102 247 516.102ZM247 525.584C247.456 525.584 247.846 525.395 248.172 525.018C248.497 524.64 248.745 524.096 248.914 523.387C249.09 522.677 249.178 521.827 249.178 520.838C249.178 520.252 249.148 519.721 249.09 519.246L245.213 523.855C245.395 524.415 245.636 524.845 245.936 525.145C246.242 525.438 246.596 525.584 247 525.584ZM254.744 519.783C254.301 519.783 253.888 519.666 253.504 519.432C253.126 519.191 252.824 518.862 252.596 518.445C252.374 518.022 252.264 517.553 252.264 517.039C252.264 516.544 252.374 516.089 252.596 515.672C252.824 515.255 253.126 514.926 253.504 514.686C253.888 514.445 254.301 514.324 254.744 514.324C255.193 514.324 255.607 514.448 255.984 514.695C256.362 514.936 256.661 515.265 256.883 515.682C257.111 516.098 257.225 516.557 257.225 517.059C257.225 517.586 257.117 518.058 256.902 518.475C256.688 518.885 256.391 519.207 256.014 519.441C255.636 519.669 255.213 519.783 254.744 519.783ZM259.92 514.539H261.355L254.217 527H252.84L259.92 514.539ZM254.695 518.523C255.021 518.523 255.265 518.39 255.428 518.123C255.597 517.85 255.682 517.495 255.682 517.059C255.682 516.629 255.597 516.277 255.428 516.004C255.265 515.724 255.021 515.584 254.695 515.584C254.376 515.584 254.132 515.724 253.963 516.004C253.8 516.277 253.719 516.629 253.719 517.059C253.719 517.495 253.8 517.85 253.963 518.123C254.132 518.39 254.376 518.523 254.695 518.523ZM259.305 527.195C258.855 527.195 258.442 527.078 258.064 526.844C257.687 526.603 257.384 526.274 257.156 525.857C256.935 525.441 256.824 524.975 256.824 524.461C256.824 523.966 256.935 523.51 257.156 523.094C257.384 522.671 257.687 522.339 258.064 522.098C258.449 521.857 258.862 521.736 259.305 521.736C259.747 521.736 260.158 521.86 260.535 522.107C260.919 522.348 261.222 522.68 261.443 523.104C261.665 523.52 261.775 523.979 261.775 524.48C261.775 525.008 261.668 525.477 261.453 525.887C261.238 526.297 260.942 526.619 260.564 526.854C260.193 527.081 259.773 527.195 259.305 527.195ZM259.256 525.936C259.581 525.936 259.826 525.802 259.988 525.535C260.158 525.268 260.242 524.917 260.242 524.48C260.242 524.051 260.158 523.696 259.988 523.416C259.826 523.136 259.581 522.996 259.256 522.996C258.937 522.996 258.693 523.136 258.523 523.416C258.361 523.696 258.279 524.051 258.279 524.48C258.279 524.917 258.361 525.268 258.523 525.535C258.686 525.802 258.93 525.936 259.256 525.936Z" fill="#A5B8D4"/>
<path d="M237.586 550.168C239.392 550.168 240.946 549.328 241.842 547.998L240.176 546.962C239.616 547.788 238.678 548.306 237.586 548.306C235.822 548.306 234.478 546.962 234.478 545.17C234.478 543.378 235.822 542.034 237.586 542.034C238.678 542.034 239.616 542.552 240.176 543.378L241.842 542.342C240.946 541.012 239.392 540.172 237.586 540.172C234.688 540.172 232.49 542.328 232.49 545.17C232.49 548.012 234.688 550.168 237.586 550.168ZM246.305 550.168C248.489 550.168 250.141 548.558 250.141 546.43C250.141 544.302 248.489 542.692 246.305 542.692C244.121 542.692 242.469 544.302 242.469 546.43C242.469 548.558 244.121 550.168 246.305 550.168ZM246.305 548.404C245.185 548.404 244.345 547.55 244.345 546.43C244.345 545.31 245.185 544.456 246.305 544.456C247.439 544.456 248.265 545.31 248.265 546.43C248.265 547.55 247.439 548.404 246.305 548.404ZM260.058 542.692C259.022 542.692 258.196 543.098 257.622 543.854C257.174 543.126 256.39 542.692 255.382 542.692C254.514 542.692 253.8 543 253.268 543.602V542.86H251.448V550H253.268V545.926C253.268 545.044 253.884 544.456 254.766 544.456C255.62 544.456 256.18 545.03 256.18 545.898V550H258V545.926C258 545.044 258.602 544.456 259.498 544.456C260.352 544.456 260.898 545.03 260.898 545.898V550H262.718V545.352C262.718 543.742 261.668 542.692 260.058 542.692ZM272.951 542.692C271.915 542.692 271.089 543.098 270.515 543.854C270.067 543.126 269.283 542.692 268.275 542.692C267.407 542.692 266.693 543 266.161 543.602V542.86H264.341V550H266.161V545.926C266.161 545.044 266.777 544.456 267.659 544.456C268.513 544.456 269.073 545.03 269.073 545.898V550H270.893V545.926C270.893 545.044 271.495 544.456 272.391 544.456C273.245 544.456 273.791 545.03 273.791 545.898V550H275.611V545.352C275.611 543.742 274.561 542.692 272.951 542.692ZM280.453 550.168C282.455 550.168 283.785 548.978 283.785 547.158V542.86H281.965V546.906C281.965 547.816 281.363 548.404 280.453 548.404C279.543 548.404 278.941 547.816 278.941 546.906V542.86H277.121V547.158C277.121 548.978 278.437 550.168 280.453 550.168ZM289.497 542.692C288.573 542.692 287.789 543.028 287.229 543.658V542.86H285.409V550H287.229V546.08C287.229 545.1 287.901 544.456 288.895 544.456C289.847 544.456 290.463 545.086 290.463 546.052V550H292.283V545.464C292.283 543.784 291.177 542.692 289.497 542.692ZM294.823 541.81C295.467 541.81 295.971 541.32 295.971 540.676C295.971 540.032 295.467 539.542 294.823 539.542C294.179 539.542 293.675 540.032 293.675 540.676C293.675 541.32 294.179 541.81 294.823 541.81ZM293.913 550H295.733V542.86H293.913V550ZM301.864 544.526V542.86H299.946V541.054H298.126V542.86H296.992V544.526H298.126V547.788C298.126 549.216 298.896 550.168 300.534 550.168C301.066 550.168 301.472 550.07 301.864 549.86V548.166C301.598 548.292 301.29 548.404 300.926 548.404C300.282 548.404 299.946 548.096 299.946 547.494V544.526H301.864ZM308.29 542.86L306.442 547.718L304.58 542.86H302.508L305.42 549.888L305.126 550.504C304.944 550.91 304.65 551.064 304.314 551.064C304.006 551.064 303.67 550.924 303.446 550.686L302.746 552.114C303.222 552.548 303.978 552.828 304.622 552.828C305.56 552.828 306.4 552.226 306.792 551.246L310.32 542.86H308.29ZM317.85 550.168C320.034 550.168 321.686 548.558 321.686 546.43C321.686 544.302 320.034 542.692 317.85 542.692C315.666 542.692 314.014 544.302 314.014 546.43C314.014 548.558 315.666 550.168 317.85 550.168ZM317.85 548.404C316.73 548.404 315.89 547.55 315.89 546.43C315.89 545.31 316.73 544.456 317.85 544.456C318.984 544.456 319.81 545.31 319.81 546.43C319.81 547.55 318.984 548.404 317.85 548.404ZM326.205 541.418C326.569 541.418 326.863 541.502 327.143 541.656V540.06C326.737 539.85 326.331 539.752 325.799 539.752C324.161 539.752 323.391 540.732 323.391 542.216V542.86H322.271V544.526H323.391V550H325.211V544.526H327.003V542.86H325.211V542.328C325.211 541.726 325.561 541.418 326.205 541.418ZM331.619 541.418C331.983 541.418 332.277 541.502 332.557 541.656V540.06C332.151 539.85 331.745 539.752 331.213 539.752C329.575 539.752 328.805 540.732 328.805 542.216V542.86H327.685V544.526H328.805V550H330.625V544.526H332.417V542.86H330.625V542.328C330.625 541.726 330.975 541.418 331.619 541.418ZM340.414 546.444C340.414 544.288 338.804 542.692 336.662 542.692C334.506 542.692 332.868 544.288 332.868 546.402C332.868 548.544 334.562 550.168 336.83 550.168C338.174 550.168 339.322 549.622 340.064 548.74L338.846 547.676C338.468 548.152 337.754 548.558 336.886 548.558C335.85 548.558 335.094 547.984 334.842 547.088H340.372C340.4 546.892 340.414 546.64 340.414 546.444ZM336.648 544.288C337.53 544.288 338.244 544.862 338.468 545.758H334.828C335.052 544.876 335.752 544.288 336.648 544.288ZM345.56 542.748C344.72 542.748 344.02 543.126 343.502 543.784V542.86H341.682V550H343.502V546.612C343.502 545.394 344.258 544.624 345.56 544.624H345.868V542.748H345.56ZM347.842 541.81C348.486 541.81 348.99 541.32 348.99 540.676C348.99 540.032 348.486 539.542 347.842 539.542C347.198 539.542 346.694 540.032 346.694 540.676C346.694 541.32 347.198 541.81 347.842 541.81ZM346.932 550H348.752V542.86H346.932V550ZM354.575 542.692C353.651 542.692 352.867 543.028 352.307 543.658V542.86H350.487V550H352.307V546.08C352.307 545.1 352.979 544.456 353.973 544.456C354.925 544.456 355.541 545.086 355.541 546.052V550H357.361V545.464C357.361 543.784 356.255 542.692 354.575 542.692ZM363.527 550H361.203C360.755 550 360.447 549.748 360.447 549.398C360.447 549.16 360.587 548.922 360.811 548.782C361.175 548.894 361.567 548.964 361.987 548.964C363.891 548.964 365.347 547.62 365.347 545.828C365.347 545.128 365.123 544.484 364.731 543.98C364.801 543.658 365.095 543.462 365.459 543.462H365.963V541.782H365.375C364.437 541.782 363.751 542.258 363.541 543.028C363.079 542.818 362.561 542.692 361.987 542.692C360.069 542.692 358.641 544.036 358.641 545.828C358.641 546.724 358.991 547.494 359.593 548.054C359.005 548.418 358.627 549.118 358.627 549.846C358.627 550.98 359.509 551.75 360.839 551.75H363.177C363.821 551.75 364.255 552.086 364.311 552.604L366.187 552.1C365.949 550.784 364.941 550 363.527 550ZM361.987 544.414C362.827 544.414 363.471 545.016 363.471 545.828C363.471 546.64 362.827 547.242 361.987 547.242C361.133 547.242 360.503 546.64 360.503 545.828C360.503 545.016 361.133 544.414 361.987 544.414Z" fill="white"/>
<line x1="300.5" y1="452" x2="300.5" y2="516" stroke="#496586"/>
<line x1="300.5" y1="452" x2="300.5" y2="493" stroke="white"/>
<line x1="297.5" y1="121.008" x2="296.847" y2="80.001" stroke="#496586"/>
<line x1="297.5" y1="121.009" x2="297.185" y2="102.999" stroke="#D4DFF0"/>
<line x1="252.221" y1="151.617" x2="229.704" y2="91.7086" stroke="#496586"/>
<line x1="252.221" y1="151.617" x2="237.796" y2="113.238" stroke="white"/>
<line x1="174.48" y1="208.309" x2="124.455" y2="168.39" stroke="#496586"/>
<line x1="174.48" y1="208.309" x2="142.433" y2="182.736" stroke="white"/>
<line x1="154.175" y1="350.766" x2="95.1885" y2="375.597" stroke="#496586"/>
<line x1="154.175" y1="350.766" x2="116.387" y2="366.674" stroke="white"/>
</svg>
