<svg width="516" height="579" fill="none" xmlns="http://www.w3.org/2000/svg">
  <g clip-path="url(#a)">
    <path d="M280.176 541.381c-.853 0-1.595-.261-2.227-.781-.625-.521-1.103-1.244-1.435-2.168-.332-.925-.498-1.983-.498-3.174 0-1.426.192-2.663.576-3.711.39-1.055.937-1.862 1.64-2.422a3.77 3.77 0 0 1 2.432-.85c.56 0 1.107.127 1.641.381a5.063 5.063 0 0 1 1.494 1.084l-1.406 1.494-.118.127-.166-.156a1.172 1.172 0 0 0-.078-.351c-.039-.092-.133-.199-.283-.323a1.372 1.372 0 0 0-.459-.244 1.944 1.944 0 0 0-.625-.088c-.352 0-.693.114-1.025.342-.332.228-.625.599-.879 1.113-.248.508-.414 1.169-.498 1.983.267-.267.589-.489.967-.664a2.5 2.5 0 0 1 1.093-.274c.69 0 1.322.183 1.895.547a3.81 3.81 0 0 1 1.357 1.524c.339.644.508 1.373.508 2.187 0 .82-.176 1.569-.527 2.246a4.095 4.095 0 0 1-1.416 1.592 3.49 3.49 0 0 1-1.963.586Zm.049-2.061c.306 0 .582-.091.83-.273.247-.189.442-.459.586-.811.143-.358.214-.784.214-1.279 0-.495-.081-.915-.244-1.26-.162-.345-.371-.599-.625-.761a1.4 1.4 0 0 0-.791-.254c-.358 0-.709.11-1.054.332a2.61 2.61 0 0 0-.84.869c0 .703.081 1.315.244 1.836.169.514.397.911.684 1.191.292.274.625.41.996.41Zm9.853 2.061c-1.836 0-3.174-.788-4.014-2.363l1.661-1.27.146-.107.137.185a.839.839 0 0 0-.01.156c0 .176.081.365.244.567.209.267.453.475.733.625.28.15.621.224 1.025.224.384 0 .726-.091 1.025-.273.3-.189.537-.465.713-.83.176-.365.264-.811.264-1.338 0-.775-.176-1.377-.527-1.807-.352-.436-.817-.654-1.397-.654-.397 0-.749.098-1.055.293-.306.189-.608.492-.908.908l-1.435-.615.459-6.543h6.699v1.904h-4.736l-.166 2.412c.488-.143.95-.214 1.386-.214.788 0 1.475.172 2.061.517.586.345 1.038.843 1.357 1.494.319.651.479 1.426.479 2.325 0 .865-.17 1.63-.508 2.294a3.738 3.738 0 0 1-1.445 1.553c-.625.371-1.355.557-2.188.557Zm7.666-7.598a2.34 2.34 0 0 1-1.24-.351 2.654 2.654 0 0 1-.908-.987 2.98 2.98 0 0 1-.332-1.406c0-.495.11-.95.332-1.367.228-.417.53-.746.908-.986a2.29 2.29 0 0 1 1.24-.362c.449 0 .863.124 1.24.371.378.241.677.57.899.987.228.416.342.875.342 1.377 0 .527-.108.999-.323 1.416-.214.41-.511.732-.888.966a2.41 2.41 0 0 1-1.27.342Zm5.176-5.244h1.435L297.217 541h-1.377l7.08-12.461Zm-5.225 3.984c.326 0 .57-.133.733-.4.169-.273.254-.628.254-1.064 0-.43-.085-.782-.254-1.055a.795.795 0 0 0-.733-.42.807.807 0 0 0-.732.42c-.163.273-.244.625-.244 1.055 0 .436.081.791.244 1.064.169.267.413.4.732.4Zm4.61 8.672c-.45 0-.863-.117-1.241-.351a2.662 2.662 0 0 1-.908-.987 2.93 2.93 0 0 1-.332-1.396c0-.495.111-.951.332-1.367.228-.423.531-.755.908-.996a2.296 2.296 0 0 1 1.241-.362c.442 0 .853.124 1.23.371.384.241.687.573.908.997.222.416.332.875.332 1.376 0 .528-.107.997-.322 1.407-.215.41-.511.732-.889.967a2.365 2.365 0 0 1-1.259.341Zm-.049-1.259c.325 0 .57-.134.732-.401.17-.267.254-.618.254-1.055 0-.429-.084-.784-.254-1.064a.794.794 0 0 0-.732-.42.81.81 0 0 0-.733.42c-.162.28-.244.635-.244 1.064 0 .437.082.788.244 1.055.163.267.407.401.733.401ZM281.24 570.24c3.08 0 5.46-1.72 5.46-4.26 0-3.22-3.86-4.18-5.08-4.44-1.26-.26-2.52-.68-2.52-1.58 0-.72.88-1.24 2.12-1.24 1.3 0 2.66.54 3.46 1.3l1.44-2.36c-1.02-.98-2.76-1.7-4.88-1.7-3.18 0-5.32 1.64-5.32 4.12 0 2.44 2.06 3.74 4.82 4.4 1.46.36 2.78.68 2.78 1.64 0 .82-1.06 1.36-2.3 1.36-1.46 0-3.12-.72-4.24-1.76l-1.6 2.36c1.44 1.3 3.72 2.16 5.86 2.16Zm11.988 0c3.14 0 5.5-2.3 5.5-5.34s-2.36-5.34-5.5-5.34-5.5 2.3-5.5 5.34 2.36 5.34 5.5 5.34Zm0-2.82c-1.44 0-2.5-1.08-2.5-2.52s1.06-2.52 2.5-2.52 2.5 1.08 2.5 2.52-1.06 2.52-2.5 2.52Zm7.229 2.58h2.92v-14.4h-2.92V570Zm12.674-14.4v5.22c-.78-.8-1.84-1.26-3.08-1.26-2.8 0-4.92 2.3-4.92 5.34s2.12 5.34 4.92 5.34c1.24 0 2.3-.46 3.08-1.26V570h2.92v-14.4h-2.92Zm-2.5 11.82c-1.42 0-2.48-1.08-2.48-2.52s1.06-2.52 2.48-2.52c1.44 0 2.5 1.08 2.5 2.52s-1.06 2.52-2.5 2.52Zm19.571-7.62v1.02c-.78-.8-1.84-1.26-3.08-1.26-2.8 0-4.92 2.3-4.92 5.34s2.12 5.34 4.92 5.34c1.24 0 2.3-.46 3.08-1.26V570h2.92v-10.2h-2.92Zm-2.5 7.62c-1.42 0-2.48-1.08-2.48-2.52s1.06-2.52 2.48-2.52c1.44 0 2.5 1.08 2.5 2.52s-1.06 2.52-2.5 2.52Zm14.175-4.96v-2.66h-2.62v-2.52h-2.92v2.52h-1.54v2.66h1.54v4.22c0 2.1 1.1 3.56 3.58 3.56.78 0 1.36-.14 1.96-.44v-2.74c-.38.2-.82.36-1.34.36-.86 0-1.28-.44-1.28-1.22v-3.74h2.62Zm6.197 7.54h2.92v-14.4h-2.92V570Zm12.674-10.2v1.02c-.78-.8-1.84-1.26-3.08-1.26-2.8 0-4.92 2.3-4.92 5.34s2.12 5.34 4.92 5.34c1.24 0 2.3-.46 3.08-1.26V570h2.92v-10.2h-2.92Zm-2.5 7.62c-1.42 0-2.48-1.08-2.48-2.52s1.06-2.52 2.48-2.52c1.44 0 2.5 1.08 2.5 2.52s-1.06 2.52-2.5 2.52Zm12.376 2.82c2.92 0 4.82-1.72 4.82-4.32v-6.12h-2.92v5.72c0 1.14-.76 1.9-1.9 1.9s-1.9-.76-1.9-1.9v-5.72h-2.92v6.12c0 2.6 1.92 4.32 4.82 4.32Zm13.001-10.68c-1.26 0-2.3.44-3.1 1.26v-1.02h-2.92V570h2.92v-5.54c0-1.26.86-2.08 2.1-2.08 1.2 0 1.98.8 1.98 2.04V570h2.92v-6.56c0-2.34-1.56-3.88-3.9-3.88Zm10.931 10.68c2.06 0 3.78-.98 4.72-2.54l-2.54-1.54c-.42.76-1.22 1.26-2.18 1.26-1.44 0-2.5-1.08-2.5-2.52s1.06-2.52 2.5-2.52c.96 0 1.76.5 2.18 1.26l2.54-1.54c-.94-1.56-2.66-2.54-4.72-2.54-3.14 0-5.5 2.3-5.5 5.34s2.36 5.34 5.5 5.34Zm12.175-10.68c-1.26 0-2.3.46-3.1 1.32v-5.28h-2.92V570h2.92v-5.54c0-1.26.86-2.08 2.12-2.08 1.18 0 1.96.8 1.96 2.04V570h2.92v-6.56c0-2.34-1.56-3.88-3.9-3.88Z" fill="#E93C3C"/>
    <path d="M23.063 407.305c-1.47 0-2.54-.631-3.211-1.891l1.328-1.016.117-.086.11.149a.711.711 0 0 0-.009.125c0 .141.066.292.196.453.166.214.362.38.586.5.224.12.497.18.82.18.307 0 .58-.073.82-.219.24-.151.43-.372.57-.664.141-.292.212-.648.212-1.07 0-.62-.141-1.102-.422-1.446-.282-.349-.654-.523-1.117-.523-.318 0-.6.078-.844.234-.245.151-.487.393-.727.727l-1.148-.492.367-5.235h5.36v1.524h-3.79l-.133 1.929c.391-.114.76-.172 1.11-.172.63 0 1.18.139 1.648.415.469.276.831.674 1.086 1.195.255.521.383 1.14.383 1.859 0 .693-.135 1.305-.406 1.836-.271.531-.657.945-1.157 1.242-.5.297-1.083.446-1.75.446Zm6.132-6.078c-.354 0-.685-.094-.992-.282a2.114 2.114 0 0 1-.726-.789 2.387 2.387 0 0 1-.266-1.125c0-.396.088-.76.266-1.093.182-.334.424-.597.726-.79a1.84 1.84 0 0 1 .992-.289c.36 0 .69.099.992.297.303.193.542.456.72.789.181.334.273.701.273 1.102 0 .422-.086.799-.258 1.133a1.958 1.958 0 0 1-.711.773 1.93 1.93 0 0 1-1.016.274Zm4.14-4.196h1.15L28.772 407h-1.101l5.664-9.969Zm-4.179 3.188c.26 0 .456-.107.586-.321.136-.218.203-.502.203-.851 0-.344-.067-.625-.203-.844a.636.636 0 0 0-.586-.336.646.646 0 0 0-.586.336c-.13.219-.195.5-.195.844 0 .349.065.633.195.851.136.214.331.321.586.321Zm3.688 6.937c-.36 0-.69-.094-.992-.281a2.13 2.13 0 0 1-.727-.789 2.343 2.343 0 0 1-.266-1.117c0-.396.089-.761.266-1.094.182-.339.424-.604.727-.797.307-.193.638-.289.992-.289s.682.099.984.297c.307.193.55.458.727.797.177.333.265.7.265 1.101 0 .422-.086.797-.258 1.125a1.961 1.961 0 0 1-.71.774 1.89 1.89 0 0 1-1.008.273Zm-.04-1.008a.64.64 0 0 0 .587-.32c.135-.213.203-.495.203-.844 0-.343-.068-.627-.203-.851a.635.635 0 0 0-.586-.336.646.646 0 0 0-.586.336c-.13.224-.196.508-.196.851 0 .349.066.631.196.844a.64.64 0 0 0 .586.32ZM22.536 428.664v-8.704h-2.48V431h7.088v-2.336h-4.608Zm7.06-6.864c.832 0 1.456-.608 1.456-1.44 0-.816-.624-1.424-1.456-1.424-.816 0-1.44.608-1.44 1.424 0 .832.624 1.44 1.44 1.44Zm-1.168 9.2h2.336v-8.16h-2.336V431Zm10.14-8.16v.816c-.624-.64-1.472-1.008-2.465-1.008-2.24 0-3.936 1.84-3.936 4.272 0 2.432 1.697 4.272 3.936 4.272.992 0 1.84-.368 2.465-1.008v3.856h2.336v-11.2h-2.337Zm-2 6.096c-1.136 0-1.984-.864-1.984-2.016 0-1.152.847-2.016 1.983-2.016 1.152 0 2 .864 2 2.016 0 1.152-.848 2.016-2 2.016Zm9.9 2.256c2.336 0 3.856-1.376 3.856-3.456v-4.896h-2.336v4.576c0 .912-.608 1.52-1.52 1.52s-1.52-.608-1.52-1.52v-4.576h-2.336v4.896c0 2.08 1.536 3.456 3.856 3.456Zm6.753-9.392c.832 0 1.456-.608 1.456-1.44 0-.816-.624-1.424-1.456-1.424-.816 0-1.44.608-1.44 1.424 0 .832.624 1.44 1.44 1.44Zm-1.168 9.2h2.336v-8.16h-2.336V431Zm10.14-11.52v4.176c-.624-.64-1.472-1.008-2.465-1.008-2.24 0-3.936 1.84-3.936 4.272 0 2.432 1.697 4.272 3.936 4.272.992 0 1.84-.368 2.465-1.008V431h2.335v-11.52h-2.336Zm-2 9.456c-1.136 0-1.984-.864-1.984-2.016 0-1.152.847-2.016 1.983-2.016 1.152 0 2 .864 2 2.016 0 1.152-.848 2.016-2 2.016Zm7.356-7.136c.832 0 1.456-.608 1.456-1.44 0-.816-.624-1.424-1.456-1.424-.816 0-1.44.608-1.44 1.424 0 .832.624 1.44 1.44 1.44Zm-1.168 9.2h2.336v-8.16h-2.336V431Zm9.34-6.032v-2.128h-2.096v-2.016h-2.336v2.016h-1.232v2.128h1.232v3.376c0 1.68.88 2.848 2.864 2.848.624 0 1.088-.112 1.568-.352v-2.192c-.304.16-.656.288-1.072.288-.688 0-1.024-.352-1.024-.976v-2.992h2.096Zm7.086-2.128-1.872 5.184-1.888-5.184h-2.672l3.264 8.016-.24.512c-.208.432-.528.608-.88.608s-.72-.16-.96-.4l-.896 1.824c.576.512 1.472.832 2.24.832 1.136 0 2.16-.736 2.624-1.92l3.888-9.472h-2.608Zm11.89-.192c-.992 0-1.84.368-2.464 1.008v-.816h-2.336v11.2h2.336v-3.856c.624.64 1.472 1.008 2.464 1.008 2.256 0 3.936-1.84 3.936-4.272 0-2.432-1.68-4.272-3.936-4.272Zm-.464 6.288c-1.152 0-2-.864-2-2.016 0-1.152.848-2.016 2-2.016 1.152 0 2 .864 2 2.016 0 1.152-.848 2.016-2 2.016Zm10.348-6.224c-.88 0-1.632.384-2.208 1.056v-.928h-2.336V431h2.336v-3.808c0-1.264.784-2.08 2.208-2.08h.352v-2.4h-.352Zm5.283 8.48c2.512 0 4.4-1.84 4.4-4.272 0-2.432-1.888-4.272-4.4-4.272-2.512 0-4.4 1.84-4.4 4.272 0 2.432 1.888 4.272 4.4 4.272Zm0-2.256c-1.152 0-2-.864-2-2.016 0-1.152.848-2.016 2-2.016 1.152 0 2 .864 2 2.016 0 1.152-.848 2.016-2 2.016Zm10.85-6.096-1.872 5.2-1.888-5.2h-2.672l3.328 8.16h2.4l3.312-8.16h-2.608Zm4.741-1.04c.832 0 1.456-.608 1.456-1.44 0-.816-.624-1.424-1.456-1.424-.816 0-1.44.608-1.44 1.424 0 .832.624 1.44 1.44 1.44Zm-1.168 9.2h2.336v-8.16h-2.336V431Zm10.14-11.52v4.176c-.624-.64-1.472-1.008-2.464-1.008-2.24 0-3.936 1.84-3.936 4.272 0 2.432 1.696 4.272 3.936 4.272.992 0 1.84-.368 2.464-1.008V431h2.336v-11.52h-2.336Zm-2 9.456c-1.136 0-1.984-.864-1.984-2.016 0-1.152.848-2.016 1.984-2.016 1.152 0 2 .864 2 2.016 0 1.152-.848 2.016-2 2.016Zm7.357-7.136c.832 0 1.456-.608 1.456-1.44 0-.816-.624-1.424-1.456-1.424-.816 0-1.44.608-1.44 1.424 0 .832.624 1.44 1.44 1.44Zm-1.168 9.2h2.336v-8.16h-2.336V431Zm9.003-8.352c-1.008 0-1.84.352-2.48 1.008v-.816h-2.336V431h2.336v-4.432c0-1.008.688-1.664 1.68-1.664.96 0 1.584.64 1.584 1.632V431h2.336v-5.248c0-1.872-1.248-3.104-3.12-3.104Zm10.025 8.272H155.1c-.432 0-.736-.24-.736-.608 0-.24.128-.464.368-.624.384.112.784.16 1.2.16 2.208 0 3.872-1.536 3.872-3.6 0-.784-.24-1.472-.64-2.048.08-.304.384-.496.768-.496h.576v-2.16h-.688c-1.12 0-1.936.56-2.176 1.44a4.534 4.534 0 0 0-1.712-.336c-2.208 0-3.856 1.536-3.856 3.6 0 1.008.4 1.904 1.072 2.544-.688.416-1.12 1.248-1.12 2.112 0 1.36 1.04 2.272 2.624 2.272h2.544c.656 0 1.104.352 1.168.88l2.4-.656c-.304-1.568-1.472-2.48-3.12-2.48Zm-1.712-6.064c.832 0 1.472.592 1.472 1.392 0 .8-.64 1.392-1.472 1.392s-1.456-.592-1.456-1.392c0-.8.608-1.392 1.456-1.392ZM19.924 444.278h1.148v.098a.423.423 0 0 0-.112.182c-.01.065-.014.177-.014.336v7.266h4.2v.84h-5.222v-8.722Zm9.576 8.834a2.82 2.82 0 0 1-1.526-.42 2.86 2.86 0 0 1-1.05-1.176c-.252-.504-.378-1.078-.378-1.722 0-.644.126-1.218.378-1.722a2.86 2.86 0 0 1 1.05-1.176 2.754 2.754 0 0 1 1.526-.434c.57 0 1.078.145 1.526.434.448.28.798.672 1.05 1.176.252.504.378 1.078.378 1.722 0 .644-.126 1.218-.378 1.722a2.86 2.86 0 0 1-1.05 1.176 2.82 2.82 0 0 1-1.526.42Zm0-.84c.364 0 .686-.107.966-.322.29-.215.513-.509.672-.882.168-.383.252-.812.252-1.288 0-.728-.177-1.321-.532-1.778-.355-.467-.807-.7-1.358-.7-.55 0-1.003.233-1.358.7-.355.457-.532 1.05-.532 1.778 0 .476.08.905.238 1.288.168.373.392.667.672.882.29.215.616.322.98.322Zm7.49.882a3.167 3.167 0 0 1-1.652-.434 3.124 3.124 0 0 1-1.148-1.19 3.632 3.632 0 0 1-.406-1.722c0-.635.135-1.204.406-1.708.28-.504.663-.901 1.148-1.19a3.14 3.14 0 0 1 1.638-.434c.513 0 .98.107 1.4.322.42.205.76.495 1.022.868l-.63.616-.098.098-.07-.07a.443.443 0 0 0-.056-.224.67.67 0 0 0-.21-.252 1.759 1.759 0 0 0-.644-.378 2.44 2.44 0 0 0-.826-.126 1.85 1.85 0 0 0-1.022.308 2.108 2.108 0 0 0-.742.84c-.187.364-.28.784-.28 1.26s.093.905.28 1.288c.196.383.462.681.798.896.345.215.728.322 1.148.322.644 0 1.2-.261 1.666-.784l.588.686c-.625.672-1.395 1.008-2.31 1.008Zm5.796-3.36-.84.784V453h-1.022v-9.31h1.148v.098a.423.423 0 0 0-.112.182c-.01.065-.014.177-.014.336v5.236l3.206-2.968c.233.047.48.07.742.07h.364l-2.688 2.534L46.706 453l-1.302.056-2.618-3.262Zm8.022 3.346c-.952 0-1.713-.289-2.282-.868-.56-.579-.84-1.395-.84-2.45 0-.7.13-1.302.392-1.806.261-.513.611-.901 1.05-1.162a2.837 2.837 0 0 1 1.498-.406c.775 0 1.4.257 1.876.77.485.513.728 1.269.728 2.268 0 .103-.01.257-.028.462h-4.55c.037.784.257 1.377.658 1.778s.91.602 1.526.602c.672 0 1.223-.238 1.652-.714l.56.546c-.541.653-1.288.98-2.24.98Zm1.4-3.976c0-.597-.154-1.069-.462-1.414-.299-.355-.695-.532-1.19-.532-.467 0-.873.163-1.218.49-.345.327-.56.812-.644 1.456h3.514Zm5.068 3.976a2.38 2.38 0 0 1-1.288-.378c-.401-.261-.728-.649-.98-1.162-.252-.513-.378-1.134-.378-1.862 0-.737.13-1.353.392-1.848.261-.495.597-.859 1.008-1.092.41-.243.845-.364 1.302-.364.43 0 .803.098 1.12.294.327.196.574.467.742.812v-3.85h1.064v.098a.423.423 0 0 0-.112.182c-.01.065-.014.177-.014.336l.014 7.7c0 .224.005.411.014.56.019.14.06.285.126.434h-.994a1.617 1.617 0 0 1-.126-.434 9.271 9.271 0 0 1-.014-.56 2.374 2.374 0 0 1-.798.84 2.01 2.01 0 0 1-1.078.294Zm.154-.882c.579 0 1.003-.229 1.274-.686.27-.457.406-1.059.406-1.806 0-.756-.15-1.363-.448-1.82-.29-.457-.728-.686-1.316-.686-.56 0-.99.21-1.288.63-.299.411-.448.975-.448 1.694 0 .821.154 1.475.462 1.96.317.476.77.714 1.358.714Zm11.466.924 4.382-9.492.84.434-4.396 9.464-.826-.406Zm13.944-6.58h1.022v1.26c.14-.467.383-.817.728-1.05.345-.233.751-.35 1.218-.35.485 0 .929.126 1.33.378.41.243.737.611.98 1.106.243.495.364 1.097.364 1.806 0 .719-.126 1.339-.378 1.862-.252.513-.588.901-1.008 1.162-.41.261-.85.392-1.316.392a2.28 2.28 0 0 1-1.904-1.008v3.178H82.84v-8.736Zm2.772 5.67c.513 0 .943-.191 1.288-.574.355-.392.532-1.027.532-1.904 0-.793-.154-1.4-.462-1.82-.308-.429-.747-.644-1.316-.644-.532 0-.966.224-1.302.672-.327.439-.49 1.111-.49 2.016.019.737.182 1.297.49 1.68s.728.574 1.26.574Zm8.106-5.824c.681 0 1.246.233 1.694.7l-.448.784-.056.126-.098-.056a.827.827 0 0 0-.098-.238.69.69 0 0 0-.238-.21 1.473 1.473 0 0 0-.826-.238c-.336 0-.653.084-.952.252a1.88 1.88 0 0 0-.728.77c-.187.336-.28.761-.28 1.274v3.402h-1.022v-6.412h1.05l-.028 1.176c.177-.42.448-.747.812-.98.373-.233.78-.35 1.218-.35Zm5.782 6.664a2.82 2.82 0 0 1-1.526-.42 2.86 2.86 0 0 1-1.05-1.176c-.252-.504-.378-1.078-.378-1.722 0-.644.126-1.218.378-1.722a2.86 2.86 0 0 1 1.05-1.176 2.754 2.754 0 0 1 1.526-.434c.569 0 1.078.145 1.526.434.448.28.798.672 1.05 1.176.252.504.378 1.078.378 1.722 0 .644-.126 1.218-.378 1.722a2.86 2.86 0 0 1-1.05 1.176 2.82 2.82 0 0 1-1.526.42Zm0-.84c.364 0 .686-.107.966-.322.289-.215.513-.509.672-.882.168-.383.252-.812.252-1.288 0-.728-.177-1.321-.532-1.778-.355-.467-.807-.7-1.358-.7-.55 0-1.003.233-1.358.7-.355.457-.532 1.05-.532 1.778 0 .476.08.905.238 1.288.168.373.392.667.672.882.29.215.616.322.98.322Zm9.716.14a3.333 3.333 0 0 1-2.03.686c-.709 0-1.213-.215-1.512-.644-.289-.429-.434-1.129-.434-2.1 0-.159.009-.434.028-.826l.126-2.1h-1.414v-.826h1.47l.098-1.708 1.12-.182.14-.014.014.084a3.196 3.196 0 0 0-.154.238.995.995 0 0 0-.056.308l-.154 1.274h2.128v.826h-2.184l-.126 2.17a18.12 18.12 0 0 0-.028.742c0 .747.084 1.255.252 1.526.177.261.457.392.84.392.28 0 .537-.051.77-.154.233-.103.499-.266.798-.49l.308.798Zm4.284.7a2.82 2.82 0 0 1-1.526-.42 2.86 2.86 0 0 1-1.05-1.176c-.252-.504-.378-1.078-.378-1.722 0-.644.126-1.218.378-1.722a2.86 2.86 0 0 1 1.05-1.176 2.755 2.755 0 0 1 1.526-.434c.569 0 1.078.145 1.526.434.448.28.798.672 1.05 1.176.252.504.378 1.078.378 1.722 0 .644-.126 1.218-.378 1.722a2.86 2.86 0 0 1-1.05 1.176 2.82 2.82 0 0 1-1.526.42Zm0-.84c.364 0 .686-.107.966-.322.289-.215.513-.509.672-.882.168-.383.252-.812.252-1.288 0-.728-.177-1.321-.532-1.778-.355-.467-.807-.7-1.358-.7s-1.003.233-1.358.7c-.355.457-.532 1.05-.532 1.778 0 .476.079.905.238 1.288.168.373.392.667.672.882a1.6 1.6 0 0 0 .98.322Zm7.49.882a3.166 3.166 0 0 1-1.652-.434 3.126 3.126 0 0 1-1.148-1.19 3.629 3.629 0 0 1-.406-1.722c0-.635.135-1.204.406-1.708.28-.504.663-.901 1.148-1.19a3.139 3.139 0 0 1 1.638-.434c.513 0 .98.107 1.4.322.42.205.761.495 1.022.868l-.63.616-.098.098-.07-.07a.446.446 0 0 0-.056-.224.67.67 0 0 0-.21-.252 1.761 1.761 0 0 0-.644-.378 2.44 2.44 0 0 0-.826-.126c-.364 0-.705.103-1.022.308a2.11 2.11 0 0 0-.742.84c-.187.364-.28.784-.28 1.26s.093.905.28 1.288c.196.383.462.681.798.896.345.215.728.322 1.148.322.644 0 1.199-.261 1.666-.784l.588.686c-.625.672-1.395 1.008-2.31 1.008Zm6.51-.042a2.82 2.82 0 0 1-1.526-.42 2.86 2.86 0 0 1-1.05-1.176c-.252-.504-.378-1.078-.378-1.722 0-.644.126-1.218.378-1.722a2.86 2.86 0 0 1 1.05-1.176 2.755 2.755 0 0 1 1.526-.434c.569 0 1.078.145 1.526.434.448.28.798.672 1.05 1.176.252.504.378 1.078.378 1.722 0 .644-.126 1.218-.378 1.722a2.86 2.86 0 0 1-1.05 1.176 2.82 2.82 0 0 1-1.526.42Zm0-.84c.364 0 .686-.107.966-.322.289-.215.513-.509.672-.882.168-.383.252-.812.252-1.288 0-.728-.177-1.321-.532-1.778-.355-.467-.807-.7-1.358-.7s-1.003.233-1.358.7c-.355.457-.532 1.05-.532 1.778 0 .476.079.905.238 1.288.168.373.392.667.672.882a1.6 1.6 0 0 0 .98.322Zm4.606-.084h1.89v-7.686h-1.806v-.812h2.828v8.498h1.876V453h-4.788v-.812Zm16.394.924a2.82 2.82 0 0 1-1.526-.42 2.86 2.86 0 0 1-1.05-1.176c-.252-.504-.378-1.078-.378-1.722 0-.644.126-1.218.378-1.722a2.86 2.86 0 0 1 1.05-1.176 2.755 2.755 0 0 1 1.526-.434c.569 0 1.078.145 1.526.434.448.28.798.672 1.05 1.176.252.504.378 1.078.378 1.722 0 .644-.126 1.218-.378 1.722a2.86 2.86 0 0 1-1.05 1.176 2.82 2.82 0 0 1-1.526.42Zm0-.84c.364 0 .686-.107.966-.322.289-.215.513-.509.672-.882.168-.383.252-.812.252-1.288 0-.728-.177-1.321-.532-1.778-.355-.467-.807-.7-1.358-.7s-1.003.233-1.358.7c-.355.457-.532 1.05-.532 1.778 0 .476.079.905.238 1.288.168.373.392.667.672.882a1.6 1.6 0 0 0 .98.322Zm3.724-5.67h.882l1.036 5.138 1.092-4.536h.616l1.358 4.522c.261-1.745.425-2.889.49-3.43.065-.551.098-1.045.098-1.484v-.21h.938a90.206 90.206 0 0 1-1.064 6.412h-.952l-1.176-4.144-1.12 4.144h-.91l-1.288-6.412Zm7.784 0h.98v1.134a2.94 2.94 0 0 1 .952-.938c.383-.233.789-.35 1.218-.35.569 0 1.022.219 1.358.658.345.429.518 1.101.518 2.016V453h-.98v-3.85c0-.635-.107-1.097-.322-1.386a1.013 1.013 0 0 0-.854-.434c-.289 0-.583.084-.882.252a2.13 2.13 0 0 0-.728.714c-.187.299-.28.639-.28 1.022V453h-.98v-6.398Zm9.8 6.538c-.952 0-1.713-.289-2.282-.868-.56-.579-.84-1.395-.84-2.45 0-.7.131-1.302.392-1.806.261-.513.611-.901 1.05-1.162a2.837 2.837 0 0 1 1.498-.406c.775 0 1.4.257 1.876.77.485.513.728 1.269.728 2.268 0 .103-.009.257-.028.462h-4.55c.037.784.257 1.377.658 1.778s.91.602 1.526.602c.672 0 1.223-.238 1.652-.714l.56.546c-.541.653-1.288.98-2.24.98Zm1.4-3.976c0-.597-.154-1.069-.462-1.414-.299-.355-.695-.532-1.19-.532-.467 0-.873.163-1.218.49-.345.327-.56.812-.644 1.456h3.514Zm5.068 3.976a2.38 2.38 0 0 1-1.288-.378c-.401-.261-.728-.649-.98-1.162-.252-.513-.378-1.134-.378-1.862 0-.737.131-1.353.392-1.848.261-.495.597-.859 1.008-1.092a2.518 2.518 0 0 1 1.302-.364c.429 0 .803.098 1.12.294.327.196.574.467.742.812v-3.85h1.064v.098a.426.426 0 0 0-.112.182 2.797 2.797 0 0 0-.014.336l.014 7.7c0 .224.005.411.014.56.019.14.061.285.126.434h-.994a1.64 1.64 0 0 1-.126-.434 9.527 9.527 0 0 1-.014-.56 2.369 2.369 0 0 1-.798.84 2.01 2.01 0 0 1-1.078.294Zm.154-.882c.579 0 1.003-.229 1.274-.686.271-.457.406-1.059.406-1.806 0-.756-.149-1.363-.448-1.82-.289-.457-.728-.686-1.316-.686-.56 0-.989.21-1.288.63-.299.411-.448.975-.448 1.694 0 .821.154 1.475.462 1.96.317.476.77.714 1.358.714Z" fill="#A5B8D4"/>
    <path d="M.914 156.688c1.287-1.235 2.208-2.146 2.766-2.735.562-.588.99-1.135 1.28-1.641.298-.51.446-1.031.446-1.562 0-.422-.133-.755-.398-1-.266-.25-.623-.375-1.07-.375-.662 0-1.201.208-1.618.625a.964.964 0 0 0-.195.258.486.486 0 0 0-.055.219l.008.085-.11.149-.109-.086-1.187-.898c.385-.62.857-1.094 1.414-1.422.562-.334 1.19-.5 1.883-.5a3.38 3.38 0 0 1 1.601.375c.474.244.844.588 1.11 1.031.27.443.406.95.406 1.523 0 .568-.135 1.112-.406 1.633a7.183 7.183 0 0 1-1.055 1.516 48.256 48.256 0 0 1-1.914 2l-.64.633h3.257c.172 0 .297-.008.375-.024a.501.501 0 0 0 .219-.117h.18V158H.914v-1.312ZM12 147.844c.724 0 1.344.205 1.86.617.515.411.908 1.01 1.18 1.797.275.781.413 1.719.413 2.812 0 1.094-.138 2.034-.414 2.821-.27.781-.664 1.38-1.18 1.797-.515.411-1.135.617-1.859.617s-1.344-.206-1.86-.617c-.515-.417-.91-1.016-1.187-1.797-.27-.787-.406-1.727-.406-2.821 0-1.093.135-2.031.406-2.812.276-.787.672-1.386 1.188-1.797.515-.412 1.135-.617 1.859-.617Zm0 1.437c-.365 0-.677.151-.938.453-.26.297-.46.73-.601 1.297-.136.568-.203 1.248-.203 2.039 0 .407.02.805.062 1.196l3.086-3.664c-.146-.428-.338-.753-.578-.977a1.164 1.164 0 0 0-.828-.344Zm0 7.586c.365 0 .677-.151.938-.453.26-.302.458-.737.593-1.305.14-.567.211-1.247.211-2.039 0-.468-.023-.893-.07-1.273l-3.102 3.687c.146.448.339.792.578 1.032.245.234.53.351.852.351Zm6.195-4.64c-.354 0-.685-.094-.992-.282a2.114 2.114 0 0 1-.726-.789 2.387 2.387 0 0 1-.266-1.125c0-.396.088-.76.266-1.093.182-.334.424-.597.726-.79a1.84 1.84 0 0 1 .992-.289c.36 0 .69.099.992.297.303.193.542.456.72.789.181.334.273.701.273 1.102 0 .422-.086.799-.258 1.133a1.958 1.958 0 0 1-.711.773 1.93 1.93 0 0 1-1.016.274Zm4.14-4.196h1.15L17.772 158h-1.101l5.664-9.969Zm-4.179 3.188c.26 0 .456-.107.586-.321.136-.218.203-.502.203-.851 0-.344-.067-.625-.203-.844a.636.636 0 0 0-.586-.336.646.646 0 0 0-.586.336c-.13.219-.195.5-.195.844 0 .349.065.633.195.851.136.214.331.321.586.321Zm3.688 6.937c-.36 0-.69-.094-.992-.281a2.13 2.13 0 0 1-.727-.789 2.343 2.343 0 0 1-.266-1.117c0-.396.089-.761.266-1.094.182-.339.424-.604.727-.797.307-.193.638-.289.992-.289s.682.099.984.297c.307.193.55.458.727.797.177.333.265.7.265 1.101 0 .422-.086.797-.258 1.125a1.961 1.961 0 0 1-.71.774 1.89 1.89 0 0 1-1.008.273Zm-.04-1.008a.64.64 0 0 0 .587-.32c.135-.213.203-.495.203-.844 0-.343-.068-.627-.203-.851a.635.635 0 0 0-.586-.336.646.646 0 0 0-.586.336c-.13.224-.196.508-.196.851 0 .349.066.631.196.844a.64.64 0 0 0 .586.32ZM9.024 170.96H.4v2.336h3.072V182h2.48v-8.704h3.072v-2.336Zm8.142 6.992c0-2.48-1.84-4.304-4.288-4.304-2.48 0-4.352 1.824-4.352 4.224 0 2.464 1.952 4.32 4.544 4.32 1.504 0 2.816-.608 3.68-1.584l-1.568-1.36c-.384.48-1.12.912-2.048.912-1.024 0-1.808-.56-2.096-1.472h6.08c.032-.208.048-.512.048-.736Zm-4.32-2.288c.88 0 1.584.56 1.84 1.472h-3.664c.24-.896.944-1.472 1.824-1.472Zm11.612-1.824v.816c-.624-.64-1.472-1.008-2.464-1.008-2.24 0-3.936 1.84-3.936 4.272 0 2.432 1.696 4.272 3.936 4.272.992 0 1.84-.368 2.464-1.008V182h2.336v-8.16h-2.336Zm-2 6.096c-1.136 0-1.984-.864-1.984-2.016 0-1.152.848-2.016 1.984-2.016 1.152 0 2 .864 2 2.016 0 1.152-.848 2.016-2 2.016Zm16.06-6.288c-1.135 0-2.063.432-2.72 1.264-.511-.8-1.391-1.264-2.495-1.264-.944 0-1.728.336-2.32.976v-.784h-2.336V182h2.336v-4.592c0-.896.624-1.504 1.52-1.504.864 0 1.424.592 1.424 1.472V182h2.336v-4.592c0-.896.624-1.504 1.52-1.504.864 0 1.424.592 1.424 1.472V182h2.336v-5.328c0-1.824-1.184-3.024-3.024-3.024ZM.924 195.278h1.148v.098a.423.423 0 0 0-.112.182c-.01.065-.014.177-.014.336v7.266h4.2v.84H.924v-8.722Zm9.576 8.834a2.82 2.82 0 0 1-1.526-.42 2.86 2.86 0 0 1-1.05-1.176c-.252-.504-.378-1.078-.378-1.722 0-.644.126-1.218.378-1.722a2.86 2.86 0 0 1 1.05-1.176 2.754 2.754 0 0 1 1.526-.434c.57 0 1.078.145 1.526.434.448.28.798.672 1.05 1.176.252.504.378 1.078.378 1.722 0 .644-.126 1.218-.378 1.722a2.86 2.86 0 0 1-1.05 1.176 2.82 2.82 0 0 1-1.526.42Zm0-.84c.364 0 .686-.107.966-.322.29-.215.513-.509.672-.882.168-.383.252-.812.252-1.288 0-.728-.177-1.321-.532-1.778-.355-.467-.807-.7-1.358-.7-.55 0-1.003.233-1.358.7-.355.457-.532 1.05-.532 1.778 0 .476.08.905.238 1.288.168.373.392.667.672.882.29.215.616.322.98.322Zm7.49.882a3.167 3.167 0 0 1-1.652-.434 3.124 3.124 0 0 1-1.148-1.19 3.632 3.632 0 0 1-.406-1.722c0-.635.135-1.204.406-1.708.28-.504.663-.901 1.148-1.19a3.14 3.14 0 0 1 1.638-.434c.513 0 .98.107 1.4.322.42.205.76.495 1.022.868l-.63.616-.098.098-.07-.07a.443.443 0 0 0-.056-.224.67.67 0 0 0-.21-.252 1.759 1.759 0 0 0-.644-.378 2.44 2.44 0 0 0-.826-.126 1.85 1.85 0 0 0-1.022.308 2.108 2.108 0 0 0-.742.84c-.187.364-.28.784-.28 1.26s.093.905.28 1.288c.196.383.462.681.798.896.345.215.728.322 1.148.322.644 0 1.2-.261 1.666-.784l.588.686c-.625.672-1.395 1.008-2.31 1.008Zm5.796-3.36-.84.784V204h-1.022v-9.31h1.148v.098a.423.423 0 0 0-.112.182c-.01.065-.014.177-.014.336v5.236l3.206-2.968c.233.047.48.07.742.07h.364l-2.688 2.534L27.706 204l-1.302.056-2.618-3.262Zm8.022 3.346c-.952 0-1.713-.289-2.282-.868-.56-.579-.84-1.395-.84-2.45 0-.7.13-1.302.392-1.806.261-.513.611-.901 1.05-1.162a2.837 2.837 0 0 1 1.498-.406c.775 0 1.4.257 1.876.77.485.513.728 1.269.728 2.268 0 .103-.01.257-.028.462h-4.55c.037.784.257 1.377.658 1.778s.91.602 1.526.602c.672 0 1.223-.238 1.652-.714l.56.546c-.541.653-1.288.98-2.24.98Zm1.4-3.976c0-.597-.154-1.069-.462-1.414-.299-.355-.695-.532-1.19-.532-.467 0-.873.163-1.218.49-.345.327-.56.812-.644 1.456h3.514Zm5.068 3.976a2.38 2.38 0 0 1-1.288-.378c-.401-.261-.728-.649-.98-1.162-.252-.513-.378-1.134-.378-1.862 0-.737.13-1.353.392-1.848.261-.495.597-.859 1.008-1.092.41-.243.845-.364 1.302-.364.43 0 .803.098 1.12.294.327.196.574.467.742.812v-3.85h1.064v.098a.423.423 0 0 0-.112.182c-.01.065-.014.177-.014.336l.014 7.7c0 .224.005.411.014.56.019.14.06.285.126.434h-.994a1.617 1.617 0 0 1-.126-.434 9.271 9.271 0 0 1-.014-.56 2.374 2.374 0 0 1-.798.84 2.01 2.01 0 0 1-1.078.294Zm.154-.882c.579 0 1.003-.229 1.274-.686.27-.457.406-1.059.406-1.806 0-.756-.15-1.363-.448-1.82-.29-.457-.728-.686-1.316-.686-.56 0-.99.21-1.288.63-.299.411-.448.975-.448 1.694 0 .821.154 1.475.462 1.96.317.476.77.714 1.358.714Zm11.466.924 4.382-9.492.84.434-4.396 9.464-.826-.406Zm19.474-6.58c-.15.756-.462 1.689-.938 2.8L66.878 204h-.784l-2.534-6.398h1.008l1.974 5.012 1.036-2.366c.43-.971.71-1.853.84-2.646h.952Zm4.438 6.538c-.952 0-1.713-.289-2.282-.868-.56-.579-.84-1.395-.84-2.45 0-.7.13-1.302.392-1.806.261-.513.611-.901 1.05-1.162a2.837 2.837 0 0 1 1.498-.406c.775 0 1.4.257 1.876.77.485.513.728 1.269.728 2.268 0 .103-.01.257-.028.462h-4.55c.037.784.257 1.377.658 1.778s.91.602 1.526.602c.672 0 1.223-.238 1.652-.714l.56.546c-.541.653-1.288.98-2.24.98Zm1.4-3.976c0-.597-.154-1.069-.462-1.414-.299-.355-.695-.532-1.19-.532-.467 0-.873.163-1.218.49-.345.327-.56.812-.644 1.456h3.514Zm5.306 3.976c-1.083 0-1.988-.336-2.716-1.008l.56-.952.084-.126.084.056c0 .019.005.061.014.126a.89.89 0 0 0 .238.392c.215.215.457.383.728.504.28.112.625.168 1.036.168.504 0 .9-.089 1.19-.266.29-.187.434-.439.434-.756 0-.271-.117-.495-.35-.672-.233-.177-.653-.364-1.26-.56-1.605-.457-2.408-1.12-2.408-1.988 0-.495.2-.887.602-1.176.41-.289.994-.434 1.75-.434.579 0 1.064.084 1.456.252.401.159.765.411 1.092.756l-.574.7-.098.112-.07-.07a.617.617 0 0 0-.07-.252.667.667 0 0 0-.196-.224 2.254 2.254 0 0 0-.728-.378 2.326 2.326 0 0 0-.784-.14c-.401 0-.733.07-.994.21-.252.14-.378.336-.378.588 0 .233.13.448.392.644.261.196.733.392 1.414.588.803.243 1.367.509 1.694.798.336.28.504.649.504 1.106 0 .579-.229 1.059-.686 1.442-.448.373-1.101.56-1.96.56Zm9.702-.728a3.332 3.332 0 0 1-2.03.686c-.71 0-1.213-.215-1.512-.644-.29-.429-.434-1.129-.434-2.1 0-.159.01-.434.028-.826l.126-2.1H84.98v-.826h1.47l.098-1.708 1.12-.182.14-.014.014.084a3.196 3.196 0 0 0-.154.238 1.004 1.004 0 0 0-.056.308l-.154 1.274h2.128v.826h-2.184l-.126 2.17c-.019.373-.028.621-.028.742 0 .747.084 1.255.252 1.526.177.261.457.392.84.392.28 0 .537-.051.77-.154.233-.103.5-.266.798-.49l.308.798Zm4.592.728c-.952 0-1.713-.289-2.282-.868-.56-.579-.84-1.395-.84-2.45 0-.7.13-1.302.392-1.806.261-.513.611-.901 1.05-1.162a2.837 2.837 0 0 1 1.498-.406c.775 0 1.4.257 1.876.77.485.513.728 1.269.728 2.268 0 .103-.01.257-.028.462h-4.55c.037.784.257 1.377.658 1.778s.91.602 1.526.602c.672 0 1.223-.238 1.652-.714l.56.546c-.541.653-1.288.98-2.24.98Zm1.4-3.976c0-.597-.154-1.069-.462-1.414-.299-.355-.695-.532-1.19-.532-.467 0-.873.163-1.218.49-.345.327-.56.812-.644 1.456h3.514Zm5.068 3.976a2.38 2.38 0 0 1-1.288-.378c-.401-.261-.728-.649-.98-1.162-.252-.513-.378-1.134-.378-1.862 0-.737.13-1.353.392-1.848.261-.495.597-.859 1.008-1.092a2.518 2.518 0 0 1 1.302-.364c.429 0 .803.098 1.12.294.327.196.574.467.742.812v-3.85h1.064v.098a.426.426 0 0 0-.112.182 2.797 2.797 0 0 0-.014.336l.014 7.7c0 .224.005.411.014.56.019.14.061.285.126.434h-.994a1.64 1.64 0 0 1-.126-.434 9.527 9.527 0 0 1-.014-.56 2.369 2.369 0 0 1-.798.84 2.01 2.01 0 0 1-1.078.294Zm.154-.882c.579 0 1.003-.229 1.274-.686.271-.457.406-1.059.406-1.806 0-.756-.149-1.363-.448-1.82-.289-.457-.728-.686-1.316-.686-.56 0-.989.21-1.288.63-.299.411-.448.975-.448 1.694 0 .821.154 1.475.462 1.96.317.476.77.714 1.358.714Z" fill="#D4DFF0"/>
    <path d="m184.344 9.063-1.711.515-.43-1.094 2.703-1.453h1.196V17h-1.758V9.062ZM193 6.842c.724 0 1.344.206 1.859.618.516.411.909 1.01 1.18 1.797.276.781.414 1.719.414 2.812 0 1.094-.138 2.034-.414 2.82-.271.782-.664 1.38-1.18 1.797-.515.412-1.135.618-1.859.618s-1.344-.206-1.859-.617c-.516-.417-.912-1.016-1.188-1.797-.271-.787-.406-1.727-.406-2.82 0-1.094.135-2.032.406-2.813.276-.787.672-1.386 1.188-1.797.515-.412 1.135-.617 1.859-.617Zm0 1.438c-.365 0-.677.151-.938.453-.26.297-.46.73-.601 1.297-.135.568-.203 1.248-.203 2.04 0 .406.021.804.062 1.195l3.086-3.664c-.146-.428-.338-.753-.578-.977a1.163 1.163 0 0 0-.828-.344Zm0 7.586c.365 0 .677-.15.938-.453.26-.302.458-.737.593-1.305.141-.567.211-1.247.211-2.039 0-.468-.023-.893-.07-1.273l-3.102 3.687c.146.448.339.792.578 1.032.245.234.529.351.852.351Zm6.195-4.64a1.87 1.87 0 0 1-.992-.282 2.122 2.122 0 0 1-.726-.789 2.379 2.379 0 0 1-.266-1.125c0-.396.088-.76.266-1.094.182-.333.424-.596.726-.789a1.833 1.833 0 0 1 1.985.008c.302.193.541.456.718.79.183.333.274.7.274 1.1 0 .423-.086.8-.258 1.134a1.963 1.963 0 0 1-.711.773 1.928 1.928 0 0 1-1.016.274Zm4.141-4.196h1.148L198.773 17h-1.101l5.664-9.969Zm-4.18 3.188a.641.641 0 0 0 .586-.32c.136-.22.203-.503.203-.852 0-.344-.067-.625-.203-.844a.635.635 0 0 0-.586-.336.647.647 0 0 0-.586.336c-.13.219-.195.5-.195.844 0 .349.065.633.195.851.136.214.331.32.586.32Zm3.688 6.937c-.36 0-.69-.093-.992-.281a2.116 2.116 0 0 1-.727-.79 2.345 2.345 0 0 1-.266-1.116c0-.396.089-.76.266-1.094.182-.338.424-.604.727-.797.307-.193.638-.289.992-.289s.682.099.984.297c.307.193.55.458.727.797.177.333.265.7.265 1.101 0 .422-.086.797-.258 1.125a1.953 1.953 0 0 1-.71.774 1.888 1.888 0 0 1-1.008.273Zm-.039-1.008c.26 0 .455-.106.586-.32.135-.213.203-.495.203-.844 0-.343-.068-.627-.203-.851a.637.637 0 0 0-.586-.336.645.645 0 0 0-.586.336c-.13.224-.196.508-.196.851 0 .35.066.63.196.844a.64.64 0 0 0 .586.32ZM190.968 29.96l-2.928 5.456-2.912-5.456h-3.072V41h2.48v-7.088l2.784 5.232h1.408l2.784-5.232V41h2.48V29.96h-3.024Zm10.959 2.88v.816c-.624-.64-1.472-1.008-2.464-1.008-2.24 0-3.936 1.84-3.936 4.272 0 2.432 1.696 4.272 3.936 4.272.992 0 1.84-.368 2.464-1.008V41h2.336v-8.16h-2.336Zm-2 6.096c-1.136 0-1.984-.864-1.984-2.016 0-1.152.848-2.016 1.984-2.016 1.152 0 2 .864 2 2.016 0 1.152-.848 2.016-2 2.016Zm10.733-6.224c-.88 0-1.632.384-2.208 1.056v-.928h-2.336V41h2.336v-3.808c0-1.264.784-2.08 2.208-2.08h.352v-2.4h-.352ZM217.235 41h3.072l-3.568-4.4 3.456-3.76h-3.024l-2.688 3.04v-6.4h-2.336V41h2.336v-1.968l.608-.656L217.235 41Zm11.416-4.048c0-2.48-1.84-4.304-4.288-4.304-2.48 0-4.352 1.824-4.352 4.224 0 2.464 1.952 4.32 4.544 4.32 1.504 0 2.816-.608 3.68-1.584l-1.568-1.36c-.384.48-1.12.912-2.048.912-1.024 0-1.808-.56-2.096-1.472h6.079c.033-.208.049-.512.049-.736Zm-4.32-2.288c.88 0 1.584.56 1.84 1.472h-3.664c.24-.896.944-1.472 1.824-1.472Zm10.515.304V32.84h-2.096v-2.016h-2.336v2.016h-1.232v2.128h1.232v3.376c0 1.68.88 2.848 2.864 2.848.624 0 1.088-.112 1.568-.352v-2.192c-.304.16-.656.288-1.072.288-.688 0-1.024-.352-1.024-.976v-2.992h2.096Zm2.609-3.168c.832 0 1.456-.608 1.456-1.44 0-.816-.624-1.424-1.456-1.424-.816 0-1.44.608-1.44 1.424 0 .832.624 1.44 1.44 1.44Zm-1.168 9.2h2.336v-8.16h-2.336V41Zm9.004-8.352c-1.008 0-1.84.352-2.48 1.008v-.816h-2.336V41h2.336v-4.432c0-1.008.688-1.664 1.68-1.664.96 0 1.584.64 1.584 1.632V41h2.336v-5.248c0-1.872-1.248-3.104-3.12-3.104Zm10.025 8.272h-2.544c-.432 0-.736-.24-.736-.608 0-.24.128-.464.368-.624.384.112.784.16 1.2.16 2.208 0 3.872-1.536 3.872-3.6 0-.784-.24-1.472-.64-2.048.08-.304.384-.496.768-.496h.576v-2.16h-.688c-1.12 0-1.936.56-2.176 1.44a4.534 4.534 0 0 0-1.712-.336c-2.208 0-3.856 1.536-3.856 3.6 0 1.008.4 1.904 1.072 2.544-.688.416-1.12 1.248-1.12 2.112 0 1.36 1.04 2.272 2.624 2.272h2.544c.656 0 1.104.352 1.168.88l2.4-.656c-.304-1.568-1.472-2.48-3.12-2.48Zm-1.712-6.064c.832 0 1.472.592 1.472 1.392 0 .8-.64 1.392-1.472 1.392s-1.456-.592-1.456-1.392c0-.8.608-1.392 1.456-1.392ZM272.518 41l-1.792-2c.656-.848 1.12-1.872 1.408-2.896l-2.032-.608a7.417 7.417 0 0 1-.848 1.872l-2.112-2.352c1.136-.656 2.112-1.424 2.112-2.688 0-1.488-1.344-2.56-3.056-2.56s-3.024 1.088-3.024 2.576c0 .752.32 1.52.816 2.256-.992.64-1.824 1.52-1.824 3.008 0 2.128 1.712 3.584 4.208 3.584 1.008 0 1.936-.24 2.704-.816l.56.624h2.88Zm-6.32-9.408c.464 0 .848.288.848.752 0 .496-.48.864-1.136 1.232-.336-.448-.56-.864-.56-1.216 0-.496.4-.768.848-.768Zm.256 7.488c-1.136 0-1.952-.688-1.952-1.616 0-.544.288-.96.752-1.328l2.416 2.672a2.874 2.874 0 0 1-1.216.272Zm15.024-6.432c-.992 0-1.84.368-2.464 1.008v-.816h-2.336v11.2h2.336v-3.856c.624.64 1.472 1.008 2.464 1.008 2.256 0 3.936-1.84 3.936-4.272 0-2.432-1.68-4.272-3.936-4.272Zm-.464 6.288c-1.152 0-2-.864-2-2.016 0-1.152.848-2.016 2-2.016 1.152 0 2 .864 2 2.016 0 1.152-.848 2.016-2 2.016Zm11.757-6.096v.816c-.624-.64-1.472-1.008-2.464-1.008-2.24 0-3.936 1.84-3.936 4.272 0 2.432 1.696 4.272 3.936 4.272.992 0 1.84-.368 2.464-1.008V41h2.336v-8.16h-2.336Zm-2 6.096c-1.136 0-1.984-.864-1.984-2.016 0-1.152.848-2.016 1.984-2.016 1.152 0 2 .864 2 2.016 0 1.152-.848 2.016-2 2.016Zm10.732-6.224c-.88 0-1.632.384-2.208 1.056v-.928h-2.336V41h2.336v-3.808c0-1.264.784-2.08 2.208-2.08h.352v-2.4h-.352Zm6.796 2.256V32.84h-2.096v-2.016h-2.336v2.016h-1.232v2.128h1.232v3.376c0 1.68.88 2.848 2.864 2.848.624 0 1.088-.112 1.568-.352v-2.192c-.304.16-.656.288-1.072.288-.688 0-1.024-.352-1.024-.976v-2.992h2.096Zm6.258-2.32c-1.008 0-1.84.352-2.48 1.008v-.816h-2.336V41h2.336v-4.432c0-1.008.688-1.664 1.68-1.664.96 0 1.584.64 1.584 1.632V41h2.336v-5.248c0-1.872-1.248-3.104-3.12-3.104Zm12.984 4.304c0-2.48-1.84-4.304-4.288-4.304-2.48 0-4.352 1.824-4.352 4.224 0 2.464 1.952 4.32 4.544 4.32 1.504 0 2.816-.608 3.68-1.584l-1.568-1.36c-.384.48-1.12.912-2.048.912-1.024 0-1.808-.56-2.096-1.472h6.08c.032-.208.048-.512.048-.736Zm-4.32-2.288c.88 0 1.584.56 1.84 1.472h-3.664c.24-.896.944-1.472 1.824-1.472Zm10.204-1.952c-.88 0-1.632.384-2.208 1.056v-.928h-2.336V41h2.336v-3.808c0-1.264.784-2.08 2.208-2.08h.352v-2.4h-.352Zm4.383 8.48c1.984 0 3.552-.944 3.552-2.736 0-1.904-1.728-2.304-3.008-2.576-.832-.176-1.456-.32-1.456-.784 0-.416.512-.592 1.136-.592.8 0 1.472.304 2.08.72l1.088-1.504c-.768-.56-1.808-1.072-3.248-1.072-1.856 0-3.392.864-3.392 2.624 0 1.92 1.712 2.304 3.008 2.592.832.192 1.456.352 1.456.816 0 .432-.528.656-1.296.656-.944 0-1.712-.352-2.336-.88l-1.088 1.504c.8.656 1.952 1.232 3.504 1.232Zm9.639-8.544c-1.008 0-1.84.368-2.48 1.056V29.48h-2.336V41h2.336v-4.432c0-1.008.688-1.664 1.696-1.664.944 0 1.568.64 1.568 1.632V41h2.336v-5.248c0-1.872-1.248-3.104-3.12-3.104Zm5.993-.848c.832 0 1.456-.608 1.456-1.44 0-.816-.624-1.424-1.456-1.424-.816 0-1.44.608-1.44 1.424 0 .832.624 1.44 1.44 1.44Zm-1.168 9.2h2.336v-8.16h-2.336V41Zm8.987-8.352c-.992 0-1.84.368-2.464 1.008v-.816h-2.336v11.2h2.336v-3.856c.624.64 1.472 1.008 2.464 1.008 2.256 0 3.936-1.84 3.936-4.272 0-2.432-1.68-4.272-3.936-4.272Zm-.464 6.288c-1.152 0-2-.864-2-2.016 0-1.152.848-2.016 2-2.016 1.152 0 2 .864 2 2.016 0 1.152-.848 2.016-2 2.016Zm8.685 2.256c1.984 0 3.552-.944 3.552-2.736 0-1.904-1.728-2.304-3.008-2.576-.832-.176-1.456-.32-1.456-.784 0-.416.512-.592 1.136-.592.8 0 1.472.304 2.08.72l1.088-1.504c-.768-.56-1.808-1.072-3.248-1.072-1.856 0-3.392.864-3.392 2.624 0 1.92 1.712 2.304 3.008 2.592.832.192 1.456.352 1.456.816 0 .432-.528.656-1.296.656-.944 0-1.712-.352-2.336-.88l-1.088 1.504c.8.656 1.952 1.232 3.504 1.232ZM184.514 63.154c-.924 0-1.624-.275-2.1-.826-.476-.55-.714-1.33-.714-2.338v-5.712h1.092v.098a.425.425 0 0 0-.112.182 2.804 2.804 0 0 0-.014.336v5.11c0 .747.145 1.32.434 1.722.289.401.765.602 1.428.602.672 0 1.153-.2 1.442-.602.299-.401.448-.99.448-1.764v-5.684h.938v5.67c0 1.073-.252 1.876-.756 2.408-.495.532-1.19.798-2.086.798Zm4.494-6.552h.98v1.134c.252-.392.569-.705.952-.938.383-.233.789-.35 1.218-.35.569 0 1.022.22 1.358.658.345.43.518 1.101.518 2.016V63h-.98v-3.85c0-.635-.107-1.097-.322-1.386a1.012 1.012 0 0 0-.854-.434c-.289 0-.583.084-.882.252a2.13 2.13 0 0 0-.728.714c-.187.299-.28.64-.28 1.022V63h-.98v-6.398Zm7.098 5.586h1.89v-7.686h-1.806v-.812h2.828v8.498h1.876V63h-4.788v-.812Zm9.394.924a2.82 2.82 0 0 1-1.526-.42 2.86 2.86 0 0 1-1.05-1.176c-.252-.504-.378-1.078-.378-1.722 0-.644.126-1.218.378-1.722a2.86 2.86 0 0 1 1.05-1.176c.448-.29.957-.434 1.526-.434.569 0 1.078.145 1.526.434.448.28.798.672 1.05 1.176.252.504.378 1.078.378 1.722 0 .644-.126 1.218-.378 1.722a2.86 2.86 0 0 1-1.05 1.176 2.82 2.82 0 0 1-1.526.42Zm0-.84c.364 0 .686-.107.966-.322a2.09 2.09 0 0 0 .672-.882c.168-.383.252-.812.252-1.288 0-.728-.177-1.32-.532-1.778-.355-.467-.807-.7-1.358-.7s-1.003.233-1.358.7c-.355.457-.532 1.05-.532 1.778 0 .476.079.905.238 1.288.168.373.392.667.672.882.289.215.616.322.98.322Zm7.49.882a3.163 3.163 0 0 1-1.652-.434 3.128 3.128 0 0 1-1.148-1.19 3.63 3.63 0 0 1-.406-1.722c0-.635.135-1.204.406-1.708.28-.504.663-.9 1.148-1.19a3.136 3.136 0 0 1 1.638-.434c.513 0 .98.107 1.4.322.42.205.761.495 1.022.868l-.63.616-.098.098-.07-.07a.447.447 0 0 0-.056-.224.675.675 0 0 0-.21-.252 1.753 1.753 0 0 0-.644-.378 2.44 2.44 0 0 0-.826-.126c-.364 0-.705.103-1.022.308a2.11 2.11 0 0 0-.742.84c-.187.364-.28.784-.28 1.26s.093.905.28 1.288c.196.383.462.681.798.896a2.13 2.13 0 0 0 1.148.322c.644 0 1.199-.261 1.666-.784l.588.686c-.625.672-1.395 1.008-2.31 1.008Zm5.796-3.36-.84.784V63h-1.022v-9.31h1.148v.098a.425.425 0 0 0-.112.182 2.804 2.804 0 0 0-.014.336v5.236l3.206-2.968c.233.047.481.07.742.07h.364l-2.688 2.534L222.706 63l-1.302.056-2.618-3.262Zm8.022 3.346c-.952 0-1.713-.29-2.282-.868-.56-.579-.84-1.395-.84-2.45 0-.7.131-1.302.392-1.806.261-.513.611-.9 1.05-1.162a2.84 2.84 0 0 1 1.498-.406c.775 0 1.4.257 1.876.77.485.513.728 1.27.728 2.268 0 .103-.009.257-.028.462h-4.55c.037.784.257 1.377.658 1.778s.91.602 1.526.602c.672 0 1.223-.238 1.652-.714l.56.546c-.541.653-1.288.98-2.24.98Zm1.4-3.976c0-.597-.154-1.069-.462-1.414-.299-.355-.695-.532-1.19-.532-.467 0-.873.163-1.218.49-.345.327-.56.812-.644 1.456h3.514Zm5.068 3.976a2.38 2.38 0 0 1-1.288-.378c-.401-.261-.728-.649-.98-1.162-.252-.513-.378-1.134-.378-1.862 0-.737.131-1.353.392-1.848.261-.495.597-.859 1.008-1.092a2.521 2.521 0 0 1 1.302-.364c.429 0 .803.098 1.12.294.327.196.574.467.742.812v-3.85h1.064v.098a.425.425 0 0 0-.112.182 2.804 2.804 0 0 0-.014.336l.014 7.7c0 .224.005.41.014.56.019.14.061.285.126.434h-.994a1.643 1.643 0 0 1-.126-.434 9.534 9.534 0 0 1-.014-.56 2.374 2.374 0 0 1-.798.84 2.01 2.01 0 0 1-1.078.294Zm.154-.882c.579 0 1.003-.229 1.274-.686.271-.457.406-1.06.406-1.806 0-.756-.149-1.363-.448-1.82-.289-.457-.728-.686-1.316-.686-.56 0-.989.21-1.288.63-.299.41-.448.975-.448 1.694 0 .821.154 1.475.462 1.96.317.476.77.714 1.358.714ZM236.443 153.187a174.997 174.997 0 0 1 102.825-33.539l.199 175-103.024-141.461Z" fill="#fff"/>
    <path d="M173.094 348.917a175.002 175.002 0 0 1 63.348-195.729l103.025 141.46-166.373 54.269Z" fill="#D4DFF0"/>
    <path d="M198.006 397.671a175.01 175.01 0 0 1-24.913-48.756l166.374-54.267-141.461 103.023Z" fill="#A5B8D4"/>
    <path d="M198.006 397.671a175 175 0 1 0 141.262-278.023l.199 174.999-141.461 103.024Z" fill="#E93C3C"/>
    <path d="m340.254 431.806.105 100" stroke="#E93C3C"/>
    <path stroke="#28374D" d="m340.141 431.194.041 39"/>
    <path d="m218.605 356.355-88.977 45.64" stroke="#A5B8D4"/>
    <path stroke="#28374D" d="m219.1 355.975-34.701 17.8"/>
    <path d="m210.073 250.65-94.741-32.001" stroke="#D4DFF0"/>
    <path stroke="#28374D" d="m210.69 250.74-36.95-12.481"/>
    <path d="m297.147 164.138-30.401-95.267" stroke="#fff"/>
    <path stroke="#28374D" d="m297.44 164.687-11.856-37.154"/>
  </g>
  <defs>
    <clipPath id="a">
      <path fill="#fff" d="M0 0h516v579H0z"/>
    </clipPath>
  </defs>
</svg>
