<svg width="151" height="22" fill="none" xmlns="http://www.w3.org/2000/svg"><path d="M114.679 2.827h-5.403v13.757h5.403c4.063 0 7.11-2.95 7.11-6.878s-3.047-6.879-7.11-6.879Zm-.02 12.043h-3.514V4.542h3.514c2.966 0 5.22 2.213 5.22 5.164 0 2.95-2.254 5.164-5.22 5.164ZM133.818 16.584h2.052l-5.708-13.757h-2.214l-5.708 13.757h1.991l1.361-3.33h6.865l1.361 3.33Zm-7.536-5.024 2.743-6.759 2.742 6.759h-5.485ZM143.667 16.823c4.185 0 7.333-3.07 7.333-7.117 0-4.048-3.148-7.118-7.333-7.118-4.184 0-7.332 3.07-7.332 7.118 0 4.047 3.148 7.117 7.332 7.117Zm0-1.754c-3.087 0-5.423-2.313-5.423-5.363 0-3.05 2.336-5.363 5.423-5.363 3.088 0 5.424 2.312 5.424 5.363 0 3.05-2.336 5.363-5.424 5.363Z" fill="#E93C3C"/><path d="M99.342 3.352V6.89h-3.61v4.975c0 1.037.578 1.622 1.763 1.622.717 0 1.323-.213 1.847-.479v3.645c-.827.399-1.626.585-2.701.585-3.418 0-4.934-1.942-4.934-4.735V6.89h-2.122V3.352h2.122V0h4.024v3.352h3.611Z" fill="#fff"/><path fill-rule="evenodd" clip-rule="evenodd" d="M47.211 16.786h4.383c2.839 0 4.85 1.516 5.375 4.123L52.834 22c-.11-.878-.882-1.463-2.012-1.463H46.44c-2.73 0-4.52-1.516-4.52-3.778 0-1.436.744-2.82 1.929-3.511a5.681 5.681 0 0 1-1.847-4.23c0-3.432 2.839-5.985 6.643-5.985 1.075 0 2.067.212 2.949.558.413-1.463 1.819-2.394 3.748-2.394h1.186v3.591h-.993c-.661 0-1.185.32-1.323.825a5.743 5.743 0 0 1 1.103 3.405c0 3.432-2.867 5.986-6.67 5.986-.717 0-1.406-.08-2.068-.266-.413.266-.633.638-.633 1.037 0 .612.523 1.011 1.267 1.011Zm3.97-7.768c0-1.33-1.103-2.314-2.536-2.314-1.461 0-2.509.984-2.509 2.314s1.075 2.314 2.509 2.314c1.433 0 2.535-.984 2.535-2.314Z" fill="#fff"/><path d="M17.006 3.033c-1.957 0-3.555.718-4.686 2.101-.882-1.33-2.397-2.101-4.3-2.101-1.625 0-2.976.558-3.996 1.622V3.352H0v13.567h4.024V9.284c0-1.49 1.075-2.5 2.619-2.5 1.488 0 2.453.984 2.453 2.447v7.688h4.024V9.284c0-1.49 1.075-2.5 2.618-2.5 1.489 0 2.453.984 2.453 2.447v7.688h4.024V8.06c0-3.032-2.04-5.027-5.209-5.027Z" fill="#fff"/><path fill-rule="evenodd" clip-rule="evenodd" d="M35.42 3.352v1.357c-1.075-1.064-2.535-1.676-4.244-1.676-3.859 0-6.78 3.059-6.78 7.102 0 4.044 2.921 7.103 6.78 7.103 1.709 0 3.17-.612 4.244-1.676v1.357h4.024V3.352H35.42Zm-3.445 10.135c-1.957 0-3.418-1.436-3.418-3.352 0-1.915 1.461-3.351 3.418-3.351 1.985 0 3.445 1.436 3.445 3.351 0 1.916-1.46 3.352-3.445 3.352ZM88.67 10.189c0-4.124-3.17-7.156-7.387-7.156-4.272 0-7.497 3.032-7.497 7.023 0 4.096 3.363 7.182 7.828 7.182 2.59 0 4.85-1.01 6.34-2.633l-2.702-2.262c-.661.799-1.93 1.517-3.528 1.517-1.764 0-3.114-.931-3.61-2.448h10.473a8.84 8.84 0 0 0 .083-1.223Zm-7.442-3.804c1.516 0 2.729.93 3.17 2.447h-6.312c.413-1.49 1.626-2.447 3.142-2.447Z" fill="#fff"/><path d="M65.056 2.805c-3.823 0-6.923 2.573-6.923 5.746l.231 4.469h4.187l-.23-4.15c0-2.938 2.328-5.32 6.145-5.32a8.011 8.011 0 0 0-3.41-.745Z" fill="#fff"/><path d="M63.872 6.57h-.001l-.2.053c1.385-2.29 3.123-2.614 5.035-2.955 1.965 1.014 3.272 2.821 3.272 4.883l-.23 4.468H67.56l.23-4.15c0-1.41-1.036-2.553-2.735-2.553-.235 0-.832.16-1.184.254ZM58.54 14.228h4.073l.203 2.322h-4.123l-.152-2.322ZM67.425 14.228h4.072l-.076 1.16-.077 1.162h-4.122l.203-2.322Z" fill="#fff"/></svg>